<svg version="1.1" xmlns="http://www.w3.org/2000/svg" xmlns:xlink="http://www.w3.org/1999/xlink" width="713.578125" height="389"><defs/><g><g transform="translate(-410,-134) scale(1,1)"><rect fill="#C0C0C0" stroke="none" x="615" y="151" width="287" height="367" opacity="0.2"/></g><g transform="translate(-410,-134) scale(1,1)"><rect fill="#ffffff" stroke="none" x="608" y="144" width="287" height="367"/></g><g transform="translate(-410,-134) scale(1,1)"><path fill="none" stroke="#000000" d="M 608 144 L 895 144 L 895 511 L 608 511 L 608 144 Z Z" stroke-miterlimit="10"/></g><g transform="translate(-410,-134) scale(1,1)"><g><path fill="none" stroke="none"/><text fill="#000000" stroke="none" font-family="Arial" font-size="13px" font-style="normal" font-weight="bold" text-decoration="none" x="731.990478515625" y="163.5">Report</text></g></g><g transform="translate(-410,-134) scale(1,1)"><path fill="#C0C0C0" stroke="none" d="M 683 216 C 683 206.6111584 713.8923488 199 752 199 C 790.1076512 199 821 206.6111584 821 216 C 821 225.3888416 790.1076512 233 752 233 C 713.8923488 233 683 225.3888416 683 216 Z" opacity="0.2"/></g><g transform="translate(-410,-134) scale(1,1)"><path fill="#ffffff" stroke="none" d="M 676 209 C 676 199.6111584 706.8923488 192 745 192 C 783.1076512 192 814 199.6111584 814 209 C 814 218.3888416 783.1076512 226 745 226 C 706.8923488 226 676 218.3888416 676 209 Z"/></g><g transform="translate(-410,-134) scale(1,1)"><path fill="none" stroke="#000000" d="M 676 209 C 676 199.6111584 706.8923488 192 745 192 C 783.1076512 192 814 199.6111584 814 209 C 814 218.3888416 783.1076512 226 745 226 C 706.8923488 226 676 218.3888416 676 209 Z" stroke-miterlimit="10"/></g><g transform="translate(-410,-134) scale(1,1)"><g><path fill="none" stroke="none"/><text fill="#000000" stroke="none" font-family="Arial" font-size="13px" font-style="normal" font-weight="bold" text-decoration="none" x="703.813232421875" y="216">Accept Report</text></g></g><g transform="translate(-410,-134) scale(1,1)"><path fill="#C0C0C0" stroke="none" d="M 692 280 C 692 270.6111584 718.862912 263 752 263 C 785.137088 263 812 270.6111584 812 280 C 812 289.3888416 785.137088 297 752 297 C 718.862912 297 692 289.3888416 692 280 Z" opacity="0.2"/></g><g transform="translate(-410,-134) scale(1,1)"><path fill="#ffffff" stroke="none" d="M 685 273 C 685 263.6111584 711.862912 256 745 256 C 778.137088 256 805 263.6111584 805 273 C 805 282.3888416 778.137088 290 745 290 C 711.862912 290 685 282.3888416 685 273 Z"/></g><g transform="translate(-410,-134) scale(1,1)"><path fill="none" stroke="#000000" d="M 685 273 C 685 263.6111584 711.862912 256 745 256 C 778.137088 256 805 263.6111584 805 273 C 805 282.3888416 778.137088 290 745 290 C 711.862912 290 685 282.3888416 685 273 Z" stroke-miterlimit="10"/></g><g transform="translate(-410,-134) scale(1,1)"><g><path fill="none" stroke="none"/><text fill="#000000" stroke="none" font-family="Arial" font-size="13px" font-style="normal" font-weight="bold" text-decoration="none" x="708.869140625" y="280">Save Report</text></g></g><g transform="translate(-410,-134) scale(1,1)"><path fill="#C0C0C0" stroke="none" d="M 686 360 C 686 350.6111584 715.5492032 343 752 343 C 788.4507968 343 818 350.6111584 818 360 C 818 369.3888416 788.4507968 377 752 377 C 715.5492032 377 686 369.3888416 686 360 Z" opacity="0.2"/></g><g transform="translate(-410,-134) scale(1,1)"><path fill="#ffffff" stroke="none" d="M 679 353 C 679 343.6111584 708.5492032 336 745 336 C 781.4507968 336 811 343.6111584 811 353 C 811 362.3888416 781.4507968 370 745 370 C 708.5492032 370 679 362.3888416 679 353 Z"/></g><g transform="translate(-410,-134) scale(1,1)"><path fill="none" stroke="#000000" d="M 679 353 C 679 343.6111584 708.5492032 336 745 336 C 781.4507968 336 811 343.6111584 811 353 C 811 362.3888416 781.4507968 370 745 370 C 708.5492032 370 679 362.3888416 679 353 Z" stroke-miterlimit="10"/></g><g transform="translate(-410,-134) scale(1,1)"><g><path fill="none" stroke="none"/><text fill="#000000" stroke="none" font-family="Arial" font-size="13px" font-style="normal" font-weight="bold" text-decoration="none" x="705.260498046875" y="360">Reject Report</text></g></g><g transform="translate(-410,-134) scale(1,1)"><path fill="#C0C0C0" stroke="none" d="M 693 440 C 693 430.6111584 719.6390544 423 752.5 423 C 785.3609456 423 812 430.6111584 812 440 C 812 449.3888416 785.3609456 457 752.5 457 C 719.6390544 457 693 449.3888416 693 440 Z" opacity="0.2"/></g><g transform="translate(-410,-134) scale(1,1)"><path fill="#ffffff" stroke="none" d="M 686 433 C 686 423.6111584 712.6390544 416 745.5 416 C 778.3609456 416 805 423.6111584 805 433 C 805 442.3888416 778.3609456 450 745.5 450 C 712.6390544 450 686 442.3888416 686 433 Z"/></g><g transform="translate(-410,-134) scale(1,1)"><path fill="none" stroke="#000000" d="M 686 433 C 686 423.6111584 712.6390544 416 745.5 416 C 778.3609456 416 805 423.6111584 805 433 C 805 442.3888416 778.3609456 450 745.5 450 C 712.6390544 450 686 442.3888416 686 433 Z" stroke-miterlimit="10"/></g><g transform="translate(-410,-134) scale(1,1)"><g><path fill="none" stroke="none"/><text fill="#000000" stroke="none" font-family="Arial" font-size="13px" font-style="normal" font-weight="bold" text-decoration="none" x="710.21337890625" y="440">View Report</text></g></g><g transform="translate(-410,-134) scale(1,1)"><path fill="#ffffff" stroke="none" d="M 482.85661594460225 159.68 C 482.85661594460225 154.886167936 486.74245826954774 151 491.535888671875 151 C 496.32931907420226 151 500.21516139914775 154.886167936 500.21516139914775 159.68 C 500.21516139914775 164.47383206400002 496.32931907420226 168.36 491.535888671875 168.36 C 486.74245826954774 168.36 482.85661594460225 164.47383206400002 482.85661594460225 159.68 Z"/></g><g transform="translate(-410,-134) scale(1,1)"><path fill="none" stroke="#000000" d="M 482.85661594460225 159.68 C 482.85661594460225 154.886167936 486.74245826954774 151 491.535888671875 151 C 496.32931907420226 151 500.21516139914775 154.886167936 500.21516139914775 159.68 C 500.21516139914775 164.47383206400002 496.32931907420226 168.36 491.535888671875 168.36 C 486.74245826954774 168.36 482.85661594460225 164.47383206400002 482.85661594460225 159.68 Z" stroke-miterlimit="10"/></g><g transform="translate(-410,-134) scale(1,1)"><path fill="none" stroke="#000000" d="M 491.535888671875 168.36 L 491.535888671875 185.64" stroke-miterlimit="10"/></g><g transform="translate(-410,-134) scale(1,1)"><path fill="none" stroke="#000000" d="M 482.34607049005683 174.84 L 500.72570685369317 174.84" stroke-miterlimit="10"/></g><g transform="translate(-410,-134) scale(1,1)"><path fill="none" stroke="#000000" d="M 491.535888671875 185.64 L 478.77225230823865 203" stroke-miterlimit="10"/></g><g transform="translate(-410,-134) scale(1,1)"><path fill="none" stroke="#000000" d="M 491.535888671875 185.64 L 504.29952503551135 203" stroke-miterlimit="10"/></g><g transform="translate(-410,-134) scale(1,1)"><g><path fill="none" stroke="none"/><text fill="#000000" stroke="none" font-family="Arial" font-size="13px" font-style="normal" font-weight="bold" text-decoration="none" x="446.7373046875" y="223.5">Centeral Admin</text></g></g><g transform="translate(-410,-134) scale(1,1)"><path fill="#ffffff" stroke="none" d="M 489.14250461647725 295.68 C 489.14250461647725 290.886167936 493.02834694142274 287 497.82177734375 287 C 502.61520774607726 287 506.50105007102275 290.886167936 506.50105007102275 295.68 C 506.50105007102275 300.473832064 502.61520774607726 304.36 497.82177734375 304.36 C 493.02834694142274 304.36 489.14250461647725 300.473832064 489.14250461647725 295.68 Z"/></g><g transform="translate(-410,-134) scale(1,1)"><path fill="none" stroke="#000000" d="M 489.14250461647725 295.68 C 489.14250461647725 290.886167936 493.02834694142274 287 497.82177734375 287 C 502.61520774607726 287 506.50105007102275 290.886167936 506.50105007102275 295.68 C 506.50105007102275 300.473832064 502.61520774607726 304.36 497.82177734375 304.36 C 493.02834694142274 304.36 489.14250461647725 300.473832064 489.14250461647725 295.68 Z" stroke-miterlimit="10"/></g><g transform="translate(-410,-134) scale(1,1)"><path fill="none" stroke="#000000" d="M 497.82177734375 304.36 L 497.82177734375 321.64" stroke-miterlimit="10"/></g><g transform="translate(-410,-134) scale(1,1)"><path fill="none" stroke="#000000" d="M 488.63195916193183 310.84 L 507.01159552556817 310.84" stroke-miterlimit="10"/></g><g transform="translate(-410,-134) scale(1,1)"><path fill="none" stroke="#000000" d="M 497.82177734375 321.64 L 485.05814098011365 339" stroke-miterlimit="10"/></g><g transform="translate(-410,-134) scale(1,1)"><path fill="none" stroke="#000000" d="M 497.82177734375 321.64 L 510.58541370738635 339" stroke-miterlimit="10"/></g><g transform="translate(-410,-134) scale(1,1)"><g><path fill="none" stroke="none"/><text fill="#000000" stroke="none" font-family="Arial" font-size="13px" font-style="normal" font-weight="bold" text-decoration="none" x="431.352294921875" y="359.5">Business Administrator</text></g></g><g transform="translate(-410,-134) scale(1,1)"><path fill="#ffffff" stroke="none" d="M 485.43571750710225 443.68 C 485.43571750710225 438.886167936 489.32155983204774 435 494.114990234375 435 C 498.90842063670226 435 502.79426296164775 438.886167936 502.79426296164775 443.68 C 502.79426296164775 448.473832064 498.90842063670226 452.36 494.114990234375 452.36 C 489.32155983204774 452.36 485.43571750710225 448.473832064 485.43571750710225 443.68 Z"/></g><g transform="translate(-410,-134) scale(1,1)"><path fill="none" stroke="#000000" d="M 485.43571750710225 443.68 C 485.43571750710225 438.886167936 489.32155983204774 435 494.114990234375 435 C 498.90842063670226 435 502.79426296164775 438.886167936 502.79426296164775 443.68 C 502.79426296164775 448.473832064 498.90842063670226 452.36 494.114990234375 452.36 C 489.32155983204774 452.36 485.43571750710225 448.473832064 485.43571750710225 443.68 Z" stroke-miterlimit="10"/></g><g transform="translate(-410,-134) scale(1,1)"><path fill="none" stroke="#000000" d="M 494.114990234375 452.36 L 494.114990234375 469.64" stroke-miterlimit="10"/></g><g transform="translate(-410,-134) scale(1,1)"><path fill="none" stroke="#000000" d="M 484.92517205255683 458.84 L 503.30480841619317 458.84" stroke-miterlimit="10"/></g><g transform="translate(-410,-134) scale(1,1)"><path fill="none" stroke="#000000" d="M 494.114990234375 469.64 L 481.35135387073865 487" stroke-miterlimit="10"/></g><g transform="translate(-410,-134) scale(1,1)"><path fill="none" stroke="#000000" d="M 494.114990234375 469.64 L 506.87862659801135 487" stroke-miterlimit="10"/></g><g transform="translate(-410,-134) scale(1,1)"><g><path fill="none" stroke="none"/><text fill="#000000" stroke="none" font-family="Arial" font-size="13px" font-style="normal" font-weight="bold" text-decoration="none" x="455.825927734375" y="507.5">Administrator</text></g></g><g transform="translate(-410,-134) scale(1,1)"><path fill="#ffffff" stroke="none" d="M 1046.0770749289773 439.68 C 1046.0770749289773 434.886167936 1049.9629172539228 431 1054.75634765625 431 C 1059.5497780585772 431 1063.4356203835227 434.886167936 1063.4356203835227 439.68 C 1063.4356203835227 444.473832064 1059.5497780585772 448.36 1054.75634765625 448.36 C 1049.9629172539228 448.36 1046.0770749289773 444.473832064 1046.0770749289773 439.68 Z"/></g><g transform="translate(-410,-134) scale(1,1)"><path fill="none" stroke="#000000" d="M 1046.0770749289773 439.68 C 1046.0770749289773 434.886167936 1049.9629172539228 431 1054.75634765625 431 C 1059.5497780585772 431 1063.4356203835227 434.886167936 1063.4356203835227 439.68 C 1063.4356203835227 444.473832064 1059.5497780585772 448.36 1054.75634765625 448.36 C 1049.9629172539228 448.36 1046.0770749289773 444.473832064 1046.0770749289773 439.68 Z" stroke-miterlimit="10"/></g><g transform="translate(-410,-134) scale(1,1)"><path fill="none" stroke="#000000" d="M 1054.75634765625 448.36 L 1054.75634765625 465.64" stroke-miterlimit="10"/></g><g transform="translate(-410,-134) scale(1,1)"><path fill="none" stroke="#000000" d="M 1045.5665294744317 454.84 L 1063.9461658380683 454.84" stroke-miterlimit="10"/></g><g transform="translate(-410,-134) scale(1,1)"><path fill="none" stroke="#000000" d="M 1054.75634765625 465.64 L 1041.9927112926136 483" stroke-miterlimit="10"/></g><g transform="translate(-410,-134) scale(1,1)"><path fill="none" stroke="#000000" d="M 1054.75634765625 465.64 L 1067.5199840198864 483" stroke-miterlimit="10"/></g><g transform="translate(-410,-134) scale(1,1)"><g><path fill="none" stroke="none"/><text fill="#000000" stroke="none" font-family="Arial" font-size="13px" font-style="normal" font-weight="bold" text-decoration="none" x="1028.02001953125" y="503.5">Inspector</text></g></g><g transform="translate(-410,-134) scale(1,1)"><path fill="#ffffff" stroke="none" d="M 1049.1097897727273 198.68 C 1049.1097897727273 193.886167936 1052.9956320976728 190 1057.7890625 190 C 1062.5824929023272 190 1066.4683352272727 193.886167936 1066.4683352272727 198.68 C 1066.4683352272727 203.47383206400002 1062.5824929023272 207.36 1057.7890625 207.36 C 1052.9956320976728 207.36 1049.1097897727273 203.47383206400002 1049.1097897727273 198.68 Z"/></g><g transform="translate(-410,-134) scale(1,1)"><path fill="none" stroke="#000000" d="M 1049.1097897727273 198.68 C 1049.1097897727273 193.886167936 1052.9956320976728 190 1057.7890625 190 C 1062.5824929023272 190 1066.4683352272727 193.886167936 1066.4683352272727 198.68 C 1066.4683352272727 203.47383206400002 1062.5824929023272 207.36 1057.7890625 207.36 C 1052.9956320976728 207.36 1049.1097897727273 203.47383206400002 1049.1097897727273 198.68 Z" stroke-miterlimit="10"/></g><g transform="translate(-410,-134) scale(1,1)"><path fill="none" stroke="#000000" d="M 1057.7890625 207.36 L 1057.7890625 224.64" stroke-miterlimit="10"/></g><g transform="translate(-410,-134) scale(1,1)"><path fill="none" stroke="#000000" d="M 1048.5992443181817 213.84 L 1066.9788806818183 213.84" stroke-miterlimit="10"/></g><g transform="translate(-410,-134) scale(1,1)"><path fill="none" stroke="#000000" d="M 1057.7890625 224.64 L 1045.0254261363636 242" stroke-miterlimit="10"/></g><g transform="translate(-410,-134) scale(1,1)"><path fill="none" stroke="#000000" d="M 1057.7890625 224.64 L 1070.5526988636364 242" stroke-miterlimit="10"/></g><g transform="translate(-410,-134) scale(1,1)"><g><path fill="none" stroke="none"/><text fill="#000000" stroke="none" font-family="Arial" font-size="13px" font-style="normal" font-weight="bold" text-decoration="none" x="1010.457763671875" y="262.5">Senior Inspector</text></g></g><g transform="translate(-410,-134) scale(1,1)"><path fill="none" stroke="#000000" d="M 545 193 L 675 203" stroke-miterlimit="10"/></g><g transform="translate(-410,-134) scale(1,1)"><path fill="none" stroke="#000000" d="M 664.5444041746322 206.41767697955058 L 675 203 L 665.1901147223913 198.023439858682" stroke-miterlimit="10"/></g><g transform="translate(-410,-134) scale(1,1)"><path fill="none" stroke="#000000" d="M 545 224 L 717 335" stroke-miterlimit="10"/></g><g transform="translate(-410,-134) scale(1,1)"><path fill="none" stroke="#000000" d="M 706.1785069418971 333.02635160339247 L 717 335 L 710.7436290409714 325.9524687111332" stroke-miterlimit="10"/></g><g transform="translate(-410,-134) scale(1,1)"><path fill="none" stroke="#000000" d="M 1001 236 L 806 264" stroke-miterlimit="10"/></g><g transform="translate(-410,-134) scale(1,1)"><path fill="none" stroke="#000000" d="M 815.4611934013617 258.3887773683422 L 806 264 L 816.657807585813 266.7223404386276" stroke-miterlimit="10"/></g><g transform="translate(-410,-134) scale(1,1)"><path fill="none" stroke="#000000" d="M 534 230 L 726 415" stroke-miterlimit="10"/></g><g transform="translate(-410,-134) scale(1,1)"><path fill="none" stroke="#000000" d="M 715.7609291799719 410.9798720489955 L 726 415 L 721.6025433255016 404.9172238547159" stroke-miterlimit="10"/></g><g transform="translate(-410,-134) scale(1,1)"><path fill="none" stroke="#000000" d="M 577 360 L 704 415" stroke-miterlimit="10"/></g><g transform="translate(-410,-134) scale(1,1)"><path fill="none" stroke="#000000" d="M 693.0014058153691 414.8241422114194 L 704 415 L 696.3471697033584 407.0984692336988" stroke-miterlimit="10"/></g><g transform="translate(-410,-134) scale(1,1)"><path fill="none" stroke="#000000" d="M 542 465 L 685 443" stroke-miterlimit="10"/></g><g transform="translate(-410,-134) scale(1,1)"><path fill="none" stroke="#000000" d="M 675.5955872153455 448.70587593414257 L 685 443 L 674.315412381252 440.38473951253474" stroke-miterlimit="10"/></g><g transform="translate(-410,-134) scale(1,1)"><path fill="none" stroke="#000000" d="M 542 450 L 707 371" stroke-miterlimit="10"/></g><g transform="translate(-410,-134) scale(1,1)"><path fill="none" stroke="#000000" d="M 699.6516321815611 379.1854438123373 L 707 371 L 696.0159364582037 371.59190211165406" stroke-miterlimit="10"/></g><g transform="translate(-410,-134) scale(1,1)"><path fill="none" stroke="#000000" d="M 577 334 L 678 345" stroke-miterlimit="10"/></g><g transform="translate(-410,-134) scale(1,1)"><path fill="none" stroke="#000000" d="M 667.4412996544157 348.0844524655373 L 678 345 L 668.3528341304916 339.71490863974964" stroke-miterlimit="10"/></g><g transform="translate(-410,-134) scale(1,1)"><path fill="none" stroke="#000000" d="M 577 288 L 707 227" stroke-miterlimit="10"/></g><g transform="translate(-410,-134) scale(1,1)"><path fill="none" stroke="#000000" d="M 699.5879796931765 235.12785057510504 L 707 227 L 696.0116519206249 227.50616843688044" stroke-miterlimit="10"/></g><g transform="translate(-410,-134) scale(1,1)"><path fill="none" stroke="#000000" d="M 527 433 L 648 288 L 723 227" stroke-miterlimit="10"/></g><g transform="translate(-410,-134) scale(1,1)"><path fill="none" stroke="#000000" d="M 717.7719520530858 236.67819790378178 L 723 227 L 712.459692476939 230.14673121179806" stroke-miterlimit="10"/></g><g transform="translate(-410,-134) scale(1,1)"><path fill="none" stroke="#000000" d="M 1020 465 L 806 440" stroke-miterlimit="10"/></g><g transform="translate(-410,-134) scale(1,1)"><path fill="none" stroke="#000000" d="M 816.5824736125546 436.99812521254063 L 806 440 L 815.6055848716505 445.3602928346796" stroke-miterlimit="10"/></g></g></svg>