<svg version="1.1" xmlns="http://www.w3.org/2000/svg" xmlns:xlink="http://www.w3.org/1999/xlink" width="713.578125" height="436"><defs/><g><g transform="translate(-371,-174) scale(1,1)"><rect fill="#C0C0C0" stroke="none" x="567" y="191" width="335" height="416" opacity="0.2"/></g><g transform="translate(-371,-174) scale(1,1)"><rect fill="#ffffff" stroke="none" x="560" y="184" width="335" height="416"/></g><g transform="translate(-371,-174) scale(1,1)"><path fill="none" stroke="#000000" d="M 560 184 L 895 184 L 895 600 L 560 600 L 560 184 Z Z" stroke-miterlimit="10"/></g><g transform="translate(-371,-174) scale(1,1)"><g><path fill="none" stroke="none"/><text fill="#000000" stroke="none" font-family="Arial" font-size="13px" font-style="normal" font-weight="bold" text-decoration="none" x="701.484130859375" y="203.5">Question</text></g></g><g transform="translate(-371,-174) scale(1,1)"><path fill="#C0C0C0" stroke="none" d="M 663 288 C 663 278.6111584 692.7730607999999 271 729.5 271 C 766.2269392000001 271 796 278.6111584 796 288 C 796 297.3888416 766.2269392000001 305 729.5 305 C 692.7730607999999 305 663 297.3888416 663 288 Z" opacity="0.2"/></g><g transform="translate(-371,-174) scale(1,1)"><path fill="#ffffff" stroke="none" d="M 656 281 C 656 271.6111584 685.7730607999999 264 722.5 264 C 759.2269392000001 264 789 271.6111584 789 281 C 789 290.3888416 759.2269392000001 298 722.5 298 C 685.7730607999999 298 656 290.3888416 656 281 Z"/></g><g transform="translate(-371,-174) scale(1,1)"><path fill="none" stroke="#000000" d="M 656 281 C 656 271.6111584 685.7730607999999 264 722.5 264 C 759.2269392000001 264 789 271.6111584 789 281 C 789 290.3888416 759.2269392000001 298 722.5 298 C 685.7730607999999 298 656 290.3888416 656 281 Z" stroke-miterlimit="10"/></g><g transform="translate(-371,-174) scale(1,1)"><g><path fill="none" stroke="none"/><text fill="#000000" stroke="none" font-family="Arial" font-size="13px" font-style="normal" font-weight="bold" text-decoration="none" x="683.11279296875" y="288">Add Question</text></g></g><g transform="translate(-371,-174) scale(1,1)"><path fill="#C0C0C0" stroke="none" d="M 655 360 C 655 350.6111584 690.817216 343 735 343 C 779.182784 343 815 350.6111584 815 360 C 815 369.3888416 779.182784 377 735 377 C 690.817216 377 655 369.3888416 655 360 Z" opacity="0.2"/></g><g transform="translate(-371,-174) scale(1,1)"><path fill="#ffffff" stroke="none" d="M 648 353 C 648 343.6111584 683.817216 336 728 336 C 772.182784 336 808 343.6111584 808 353 C 808 362.3888416 772.182784 370 728 370 C 683.817216 370 648 362.3888416 648 353 Z"/></g><g transform="translate(-371,-174) scale(1,1)"><path fill="none" stroke="#000000" d="M 648 353 C 648 343.6111584 683.817216 336 728 336 C 772.182784 336 808 343.6111584 808 353 C 808 362.3888416 772.182784 370 728 370 C 683.817216 370 648 362.3888416 648 353 Z" stroke-miterlimit="10"/></g><g transform="translate(-371,-174) scale(1,1)"><g><path fill="none" stroke="none"/><text fill="#000000" stroke="none" font-family="Arial" font-size="13px" font-style="normal" font-weight="bold" text-decoration="none" x="679.21826171875" y="360">Update Question</text></g></g><g transform="translate(-371,-174) scale(1,1)"><path fill="#C0C0C0" stroke="none" d="M 655 440 C 655 430.6111584 689.2502128 423 731.5 423 C 773.7497872 423 808 430.6111584 808 440 C 808 449.3888416 773.7497872 457 731.5 457 C 689.2502128 457 655 449.3888416 655 440 Z" opacity="0.2"/></g><g transform="translate(-371,-174) scale(1,1)"><path fill="#ffffff" stroke="none" d="M 648 433 C 648 423.6111584 682.2502128 416 724.5 416 C 766.7497872 416 801 423.6111584 801 433 C 801 442.3888416 766.7497872 450 724.5 450 C 682.2502128 450 648 442.3888416 648 433 Z"/></g><g transform="translate(-371,-174) scale(1,1)"><path fill="none" stroke="#000000" d="M 648 433 C 648 423.6111584 682.2502128 416 724.5 416 C 766.7497872 416 801 423.6111584 801 433 C 801 442.3888416 766.7497872 450 724.5 450 C 682.2502128 450 648 442.3888416 648 433 Z" stroke-miterlimit="10"/></g><g transform="translate(-371,-174) scale(1,1)"><g><path fill="none" stroke="none"/><text fill="#000000" stroke="none" font-family="Arial" font-size="13px" font-style="normal" font-weight="bold" text-decoration="none" x="677.88916015625" y="440">Delete Question</text></g></g><g transform="translate(-371,-174) scale(1,1)"><path fill="#C0C0C0" stroke="none" d="M 663 536 C 663 526.6111584 694.1162064 519 732.5 519 C 770.8837936 519 802 526.6111584 802 536 C 802 545.3888416 770.8837936 553 732.5 553 C 694.1162064 553 663 545.3888416 663 536 Z" opacity="0.2"/></g><g transform="translate(-371,-174) scale(1,1)"><path fill="#ffffff" stroke="none" d="M 656 529 C 656 519.6111584 687.1162064 512 725.5 512 C 763.8837936 512 795 519.6111584 795 529 C 795 538.3888416 763.8837936 546 725.5 546 C 687.1162064 546 656 538.3888416 656 529 Z"/></g><g transform="translate(-371,-174) scale(1,1)"><path fill="none" stroke="#000000" d="M 656 529 C 656 519.6111584 687.1162064 512 725.5 512 C 763.8837936 512 795 519.6111584 795 529 C 795 538.3888416 763.8837936 546 725.5 546 C 687.1162064 546 656 538.3888416 656 529 Z" stroke-miterlimit="10"/></g><g transform="translate(-371,-174) scale(1,1)"><g><path fill="none" stroke="none"/><text fill="#000000" stroke="none" font-family="Arial" font-size="13px" font-style="normal" font-weight="bold" text-decoration="none" x="683.70703125" y="536">View Question</text></g></g><g transform="translate(-371,-174) scale(1,1)"><path fill="#ffffff" stroke="none" d="M 449.85661594460225 207.68 C 449.85661594460225 202.886167936 453.74245826954774 199 458.535888671875 199 C 463.32931907420226 199 467.21516139914775 202.886167936 467.21516139914775 207.68 C 467.21516139914775 212.47383206400002 463.32931907420226 216.36 458.535888671875 216.36 C 453.74245826954774 216.36 449.85661594460225 212.47383206400002 449.85661594460225 207.68 Z"/></g><g transform="translate(-371,-174) scale(1,1)"><path fill="none" stroke="#000000" d="M 449.85661594460225 207.68 C 449.85661594460225 202.886167936 453.74245826954774 199 458.535888671875 199 C 463.32931907420226 199 467.21516139914775 202.886167936 467.21516139914775 207.68 C 467.21516139914775 212.47383206400002 463.32931907420226 216.36 458.535888671875 216.36 C 453.74245826954774 216.36 449.85661594460225 212.47383206400002 449.85661594460225 207.68 Z" stroke-miterlimit="10"/></g><g transform="translate(-371,-174) scale(1,1)"><path fill="none" stroke="#000000" d="M 458.535888671875 216.36 L 458.535888671875 233.64" stroke-miterlimit="10"/></g><g transform="translate(-371,-174) scale(1,1)"><path fill="none" stroke="#000000" d="M 449.34607049005683 222.84 L 467.72570685369317 222.84" stroke-miterlimit="10"/></g><g transform="translate(-371,-174) scale(1,1)"><path fill="none" stroke="#000000" d="M 458.535888671875 233.64 L 445.77225230823865 251" stroke-miterlimit="10"/></g><g transform="translate(-371,-174) scale(1,1)"><path fill="none" stroke="#000000" d="M 458.535888671875 233.64 L 471.29952503551135 251" stroke-miterlimit="10"/></g><g transform="translate(-371,-174) scale(1,1)"><g><path fill="none" stroke="none"/><text fill="#000000" stroke="none" font-family="Arial" font-size="13px" font-style="normal" font-weight="bold" text-decoration="none" x="413.7373046875" y="271.5">Centeral Admin</text></g></g><g transform="translate(-371,-174) scale(1,1)"><path fill="#ffffff" stroke="none" d="M 450.14250461647725 343.68 C 450.14250461647725 338.886167936 454.02834694142274 335 458.82177734375 335 C 463.61520774607726 335 467.50105007102275 338.886167936 467.50105007102275 343.68 C 467.50105007102275 348.473832064 463.61520774607726 352.36 458.82177734375 352.36 C 454.02834694142274 352.36 450.14250461647725 348.473832064 450.14250461647725 343.68 Z"/></g><g transform="translate(-371,-174) scale(1,1)"><path fill="none" stroke="#000000" d="M 450.14250461647725 343.68 C 450.14250461647725 338.886167936 454.02834694142274 335 458.82177734375 335 C 463.61520774607726 335 467.50105007102275 338.886167936 467.50105007102275 343.68 C 467.50105007102275 348.473832064 463.61520774607726 352.36 458.82177734375 352.36 C 454.02834694142274 352.36 450.14250461647725 348.473832064 450.14250461647725 343.68 Z" stroke-miterlimit="10"/></g><g transform="translate(-371,-174) scale(1,1)"><path fill="none" stroke="#000000" d="M 458.82177734375 352.36 L 458.82177734375 369.64" stroke-miterlimit="10"/></g><g transform="translate(-371,-174) scale(1,1)"><path fill="none" stroke="#000000" d="M 449.63195916193183 358.84 L 468.01159552556817 358.84" stroke-miterlimit="10"/></g><g transform="translate(-371,-174) scale(1,1)"><path fill="none" stroke="#000000" d="M 458.82177734375 369.64 L 446.05814098011365 387" stroke-miterlimit="10"/></g><g transform="translate(-371,-174) scale(1,1)"><path fill="none" stroke="#000000" d="M 458.82177734375 369.64 L 471.58541370738635 387" stroke-miterlimit="10"/></g><g transform="translate(-371,-174) scale(1,1)"><g><path fill="none" stroke="none"/><text fill="#000000" stroke="none" font-family="Arial" font-size="13px" font-style="normal" font-weight="bold" text-decoration="none" x="392.352294921875" y="407.5">Business Administrator</text></g></g><g transform="translate(-371,-174) scale(1,1)"><path fill="#ffffff" stroke="none" d="M 446.43571750710225 491.68 C 446.43571750710225 486.886167936 450.32155983204774 483 455.114990234375 483 C 459.90842063670226 483 463.79426296164775 486.886167936 463.79426296164775 491.68 C 463.79426296164775 496.473832064 459.90842063670226 500.36 455.114990234375 500.36 C 450.32155983204774 500.36 446.43571750710225 496.473832064 446.43571750710225 491.68 Z"/></g><g transform="translate(-371,-174) scale(1,1)"><path fill="none" stroke="#000000" d="M 446.43571750710225 491.68 C 446.43571750710225 486.886167936 450.32155983204774 483 455.114990234375 483 C 459.90842063670226 483 463.79426296164775 486.886167936 463.79426296164775 491.68 C 463.79426296164775 496.473832064 459.90842063670226 500.36 455.114990234375 500.36 C 450.32155983204774 500.36 446.43571750710225 496.473832064 446.43571750710225 491.68 Z" stroke-miterlimit="10"/></g><g transform="translate(-371,-174) scale(1,1)"><path fill="none" stroke="#000000" d="M 455.114990234375 500.36 L 455.114990234375 517.64" stroke-miterlimit="10"/></g><g transform="translate(-371,-174) scale(1,1)"><path fill="none" stroke="#000000" d="M 445.92517205255683 506.84 L 464.30480841619317 506.84" stroke-miterlimit="10"/></g><g transform="translate(-371,-174) scale(1,1)"><path fill="none" stroke="#000000" d="M 455.114990234375 517.64 L 442.35135387073865 535" stroke-miterlimit="10"/></g><g transform="translate(-371,-174) scale(1,1)"><path fill="none" stroke="#000000" d="M 455.114990234375 517.64 L 467.87862659801135 535" stroke-miterlimit="10"/></g><g transform="translate(-371,-174) scale(1,1)"><g><path fill="none" stroke="none"/><text fill="#000000" stroke="none" font-family="Arial" font-size="13px" font-style="normal" font-weight="bold" text-decoration="none" x="416.825927734375" y="555.5">Administrator</text></g></g><g transform="translate(-371,-174) scale(1,1)"><path fill="#ffffff" stroke="none" d="M 1010.1097897727273 246.68 C 1010.1097897727273 241.886167936 1013.9956320976727 238 1018.7890625 238 C 1023.5824929023273 238 1027.4683352272727 241.886167936 1027.4683352272727 246.68 C 1027.4683352272727 251.47383206400002 1023.5824929023273 255.36 1018.7890625 255.36 C 1013.9956320976727 255.36 1010.1097897727273 251.47383206400002 1010.1097897727273 246.68 Z"/></g><g transform="translate(-371,-174) scale(1,1)"><path fill="none" stroke="#000000" d="M 1010.1097897727273 246.68 C 1010.1097897727273 241.886167936 1013.9956320976727 238 1018.7890625 238 C 1023.5824929023273 238 1027.4683352272727 241.886167936 1027.4683352272727 246.68 C 1027.4683352272727 251.47383206400002 1023.5824929023273 255.36 1018.7890625 255.36 C 1013.9956320976727 255.36 1010.1097897727273 251.47383206400002 1010.1097897727273 246.68 Z" stroke-miterlimit="10"/></g><g transform="translate(-371,-174) scale(1,1)"><path fill="none" stroke="#000000" d="M 1018.7890625 255.36 L 1018.7890625 272.64" stroke-miterlimit="10"/></g><g transform="translate(-371,-174) scale(1,1)"><path fill="none" stroke="#000000" d="M 1009.5992443181818 261.84 L 1027.9788806818183 261.84" stroke-miterlimit="10"/></g><g transform="translate(-371,-174) scale(1,1)"><path fill="none" stroke="#000000" d="M 1018.7890625 272.64 L 1006.0254261363636 290" stroke-miterlimit="10"/></g><g transform="translate(-371,-174) scale(1,1)"><path fill="none" stroke="#000000" d="M 1018.7890625 272.64 L 1031.5526988636364 290" stroke-miterlimit="10"/></g><g transform="translate(-371,-174) scale(1,1)"><g><path fill="none" stroke="none"/><text fill="#000000" stroke="none" font-family="Arial" font-size="13px" font-style="normal" font-weight="bold" text-decoration="none" x="971.457763671875" y="310.5">Senior Inspector</text></g></g><g transform="translate(-371,-174) scale(1,1)"><path fill="#ffffff" stroke="none" d="M 1007.0770749289773 487.68 C 1007.0770749289773 482.886167936 1010.9629172539227 479 1015.75634765625 479 C 1020.5497780585773 479 1024.4356203835227 482.886167936 1024.4356203835227 487.68 C 1024.4356203835227 492.473832064 1020.5497780585773 496.36 1015.75634765625 496.36 C 1010.9629172539227 496.36 1007.0770749289773 492.473832064 1007.0770749289773 487.68 Z"/></g><g transform="translate(-371,-174) scale(1,1)"><path fill="none" stroke="#000000" d="M 1007.0770749289773 487.68 C 1007.0770749289773 482.886167936 1010.9629172539227 479 1015.75634765625 479 C 1020.5497780585773 479 1024.4356203835227 482.886167936 1024.4356203835227 487.68 C 1024.4356203835227 492.473832064 1020.5497780585773 496.36 1015.75634765625 496.36 C 1010.9629172539227 496.36 1007.0770749289773 492.473832064 1007.0770749289773 487.68 Z" stroke-miterlimit="10"/></g><g transform="translate(-371,-174) scale(1,1)"><path fill="none" stroke="#000000" d="M 1015.75634765625 496.36 L 1015.75634765625 513.64" stroke-miterlimit="10"/></g><g transform="translate(-371,-174) scale(1,1)"><path fill="none" stroke="#000000" d="M 1006.5665294744318 502.84 L 1024.9461658380683 502.84" stroke-miterlimit="10"/></g><g transform="translate(-371,-174) scale(1,1)"><path fill="none" stroke="#000000" d="M 1015.75634765625 513.64 L 1002.9927112926136 531" stroke-miterlimit="10"/></g><g transform="translate(-371,-174) scale(1,1)"><path fill="none" stroke="#000000" d="M 1015.75634765625 513.64 L 1028.5199840198864 531" stroke-miterlimit="10"/></g><g transform="translate(-371,-174) scale(1,1)"><g><path fill="none" stroke="none"/><text fill="#000000" stroke="none" font-family="Arial" font-size="13px" font-style="normal" font-weight="bold" text-decoration="none" x="989.02001953125" y="551.5">Inspector</text></g></g><g transform="translate(-371,-174) scale(1,1)"><path fill="none" stroke="#000000" d="M 512 246 L 655 270" stroke-miterlimit="10"/></g><g transform="translate(-371,-174) scale(1,1)"><path fill="none" stroke="#000000" d="M 644.2807522014853 272.4693575346711 L 655 270 L 645.6742477345113 264.16644665039126" stroke-miterlimit="10"/></g><g transform="translate(-371,-174) scale(1,1)"><path fill="none" stroke="#000000" d="M 512 260 L 686 335" stroke-miterlimit="10"/></g><g transform="translate(-371,-174) scale(1,1)"><path fill="none" stroke="#000000" d="M 675.0011202293767 334.84301658885954 L 686 335 L 678.3336215632879 327.1116134941855" stroke-miterlimit="10"/></g><g transform="translate(-371,-174) scale(1,1)"><path fill="none" stroke="#000000" d="M 512 277 L 700 415" stroke-miterlimit="10"/></g><g transform="translate(-371,-174) scale(1,1)"><path fill="none" stroke="#000000" d="M 689.3166192614875 412.3798137478455 L 700 415 L 694.2984605006702 405.59295756692984" stroke-miterlimit="10"/></g><g transform="translate(-371,-174) scale(1,1)"><path fill="none" stroke="#000000" d="M 515 414 L 584 464 L 686 511" stroke-miterlimit="10"/></g><g transform="translate(-371,-174) scale(1,1)"><path fill="none" stroke="#000000" d="M 675.0084017103579 510.5701546334567 L 686 511 L 678.5317128868601 502.92381973977126" stroke-miterlimit="10"/></g><g transform="translate(-371,-174) scale(1,1)"><path fill="none" stroke="#000000" d="M 503 522 L 655 527" stroke-miterlimit="10"/></g><g transform="translate(-371,-174) scale(1,1)"><path fill="none" stroke="#000000" d="M 644.7044228927274 530.8731243238765 L 655 527 L 644.981215137427 522.4586400850102" stroke-miterlimit="10"/></g><g transform="translate(-371,-174) scale(1,1)"><path fill="none" stroke="#000000" d="M 981 518 L 796 526" stroke-miterlimit="10"/></g><g transform="translate(-371,-174) scale(1,1)"><path fill="none" stroke="#000000" d="M 805.9713229340928 521.3553558861809 L 796 526 L 806.3350494131777 529.7665307150182" stroke-miterlimit="10"/></g><g transform="translate(-371,-174) scale(1,1)"><path fill="none" stroke="#000000" d="M 971 317 L 746 511" stroke-miterlimit="10"/></g><g transform="translate(-371,-174) scale(1,1)"><path fill="none" stroke="#000000" d="M 750.9478865784369 501.17562122030483 L 746 511 L 756.4455690082223 507.5517992960869" stroke-miterlimit="10"/></g><g transform="translate(-371,-174) scale(1,1)"><path fill="none" stroke="#000000" d="M 492 278 L 600 409 L 706 511" stroke-miterlimit="10"/></g><g transform="translate(-371,-174) scale(1,1)"><path fill="none" stroke="#000000" d="M 695.7582665144412 506.9866603419618 L 706 511 L 701.5958604886597 500.92014111385225" stroke-miterlimit="10"/></g></g></svg>