<svg version="1.1" xmlns="http://www.w3.org/2000/svg" xmlns:xlink="http://www.w3.org/1999/xlink" width="585.578125" height="435"><defs/><g><g transform="translate(-272,-106) scale(1,1)"><rect fill="#C0C0C0" stroke="none" x="479" y="151" width="200" height="352" opacity="0.2"/></g><g transform="translate(-272,-106) scale(1,1)"><rect fill="#ffffff" stroke="none" x="472" y="144" width="200" height="352"/></g><g transform="translate(-272,-106) scale(1,1)"><path fill="none" stroke="#000000" d="M 472 144 L 672 144 L 672 496 L 472 496 L 472 144 Z Z" stroke-miterlimit="10"/></g><g transform="translate(-272,-106) scale(1,1)"><g><path fill="none" stroke="none"/><text fill="#000000" stroke="none" font-family="Arial" font-size="13px" font-style="normal" font-weight="bold" text-decoration="none" x="558.2763671875" y="163.5">User</text></g></g><g transform="translate(-272,-106) scale(1,1)"><path fill="#C0C0C0" stroke="none" d="M 535 224 C 535 214.6111584 556.0426144 207 582 207 C 607.9573856 207 629 214.6111584 629 224 C 629 233.3888416 607.9573856 241 582 241 C 556.0426144 241 535 233.3888416 535 224 Z" opacity="0.2"/></g><g transform="translate(-272,-106) scale(1,1)"><path fill="#ffffff" stroke="none" d="M 528 217 C 528 207.6111584 549.0426144 200 575 200 C 600.9573856 200 622 207.6111584 622 217 C 622 226.3888416 600.9573856 234 575 234 C 549.0426144 234 528 226.3888416 528 217 Z"/></g><g transform="translate(-272,-106) scale(1,1)"><path fill="none" stroke="#000000" d="M 528 217 C 528 207.6111584 549.0426144 200 575 200 C 600.9573856 200 622 207.6111584 622 217 C 622 226.3888416 600.9573856 234 575 234 C 549.0426144 234 528 226.3888416 528 217 Z" stroke-miterlimit="10"/></g><g transform="translate(-272,-106) scale(1,1)"><g><path fill="none" stroke="none"/><text fill="#000000" stroke="none" font-family="Arial" font-size="13px" font-style="normal" font-weight="bold" text-decoration="none" x="547.905029296875" y="224">Add User</text></g></g><g transform="translate(-272,-106) scale(1,1)"><path fill="#C0C0C0" stroke="none" d="M 535 288 C 535 278.6111584 561.6390544 271 594.5 271 C 627.3609456 271 654 278.6111584 654 288 C 654 297.3888416 627.3609456 305 594.5 305 C 561.6390544 305 535 297.3888416 535 288 Z" opacity="0.2"/></g><g transform="translate(-272,-106) scale(1,1)"><path fill="#ffffff" stroke="none" d="M 528 281 C 528 271.6111584 554.6390544 264 587.5 264 C 620.3609456 264 647 271.6111584 647 281 C 647 290.3888416 620.3609456 298 587.5 298 C 554.6390544 298 528 290.3888416 528 281 Z"/></g><g transform="translate(-272,-106) scale(1,1)"><path fill="none" stroke="#000000" d="M 528 281 C 528 271.6111584 554.6390544 264 587.5 264 C 620.3609456 264 647 271.6111584 647 281 C 647 290.3888416 620.3609456 298 587.5 298 C 554.6390544 298 528 290.3888416 528 281 Z" stroke-miterlimit="10"/></g><g transform="translate(-272,-106) scale(1,1)"><g><path fill="none" stroke="none"/><text fill="#000000" stroke="none" font-family="Arial" font-size="13px" font-style="normal" font-weight="bold" text-decoration="none" x="552.089599609375" y="288">Update user</text></g></g><g transform="translate(-272,-106) scale(1,1)"><path fill="#C0C0C0" stroke="none" d="M 535 360 C 535 350.6111584 560.0720512 343 591 343 C 621.9279488 343 647 350.6111584 647 360 C 647 369.3888416 621.9279488 377 591 377 C 560.0720512 377 535 369.3888416 535 360 Z" opacity="0.2"/></g><g transform="translate(-272,-106) scale(1,1)"><path fill="#ffffff" stroke="none" d="M 528 353 C 528 343.6111584 553.0720512 336 584 336 C 614.9279488 336 640 343.6111584 640 353 C 640 362.3888416 614.9279488 370 584 370 C 553.0720512 370 528 362.3888416 528 353 Z"/></g><g transform="translate(-272,-106) scale(1,1)"><path fill="none" stroke="#000000" d="M 528 353 C 528 343.6111584 553.0720512 336 584 336 C 614.9279488 336 640 343.6111584 640 353 C 640 362.3888416 614.9279488 370 584 370 C 553.0720512 370 528 362.3888416 528 353 Z" stroke-miterlimit="10"/></g><g transform="translate(-272,-106) scale(1,1)"><g><path fill="none" stroke="none"/><text fill="#000000" stroke="none" font-family="Arial" font-size="13px" font-style="normal" font-weight="bold" text-decoration="none" x="550.760498046875" y="360">Delete user</text></g></g><g transform="translate(-272,-106) scale(1,1)"><path fill="#C0C0C0" stroke="none" d="M 535 432 C 535 422.6111584 556.9380448 415 584 415 C 611.0619552 415 633 422.6111584 633 432 C 633 441.3888416 611.0619552 449 584 449 C 556.9380448 449 535 441.3888416 535 432 Z" opacity="0.2"/></g><g transform="translate(-272,-106) scale(1,1)"><path fill="#ffffff" stroke="none" d="M 528 425 C 528 415.6111584 549.9380448 408 577 408 C 604.0619552 408 626 415.6111584 626 425 C 626 434.3888416 604.0619552 442 577 442 C 549.9380448 442 528 434.3888416 528 425 Z"/></g><g transform="translate(-272,-106) scale(1,1)"><path fill="none" stroke="#000000" d="M 528 425 C 528 415.6111584 549.9380448 408 577 408 C 604.0619552 408 626 415.6111584 626 425 C 626 434.3888416 604.0619552 442 577 442 C 549.9380448 442 528 434.3888416 528 425 Z" stroke-miterlimit="10"/></g><g transform="translate(-272,-106) scale(1,1)"><g><path fill="none" stroke="none"/><text fill="#000000" stroke="none" font-family="Arial" font-size="13px" font-style="normal" font-weight="bold" text-decoration="none" x="548.578369140625" y="432">View user</text></g></g><g transform="translate(-272,-106) scale(1,1)"><path fill="#ffffff" stroke="none" d="M 350.85661594460225 125.68 C 350.85661594460225 120.886167936 354.74245826954774 117 359.535888671875 117 C 364.32931907420226 117 368.21516139914775 120.886167936 368.21516139914775 125.68 C 368.21516139914775 130.47383206400002 364.32931907420226 134.36 359.535888671875 134.36 C 354.74245826954774 134.36 350.85661594460225 130.47383206400002 350.85661594460225 125.68 Z"/></g><g transform="translate(-272,-106) scale(1,1)"><path fill="none" stroke="#000000" d="M 350.85661594460225 125.68 C 350.85661594460225 120.886167936 354.74245826954774 117 359.535888671875 117 C 364.32931907420226 117 368.21516139914775 120.886167936 368.21516139914775 125.68 C 368.21516139914775 130.47383206400002 364.32931907420226 134.36 359.535888671875 134.36 C 354.74245826954774 134.36 350.85661594460225 130.47383206400002 350.85661594460225 125.68 Z" stroke-miterlimit="10"/></g><g transform="translate(-272,-106) scale(1,1)"><path fill="none" stroke="#000000" d="M 359.535888671875 134.36 L 359.535888671875 151.64" stroke-miterlimit="10"/></g><g transform="translate(-272,-106) scale(1,1)"><path fill="none" stroke="#000000" d="M 350.34607049005683 140.84 L 368.72570685369317 140.84" stroke-miterlimit="10"/></g><g transform="translate(-272,-106) scale(1,1)"><path fill="none" stroke="#000000" d="M 359.535888671875 151.64 L 346.77225230823865 169" stroke-miterlimit="10"/></g><g transform="translate(-272,-106) scale(1,1)"><path fill="none" stroke="#000000" d="M 359.535888671875 151.64 L 372.29952503551135 169" stroke-miterlimit="10"/></g><g transform="translate(-272,-106) scale(1,1)"><g><path fill="none" stroke="none"/><text fill="#000000" stroke="none" font-family="Arial" font-size="13px" font-style="normal" font-weight="bold" text-decoration="none" x="314.7373046875" y="189.5">Centeral Admin</text></g></g><g transform="translate(-272,-106) scale(1,1)"><path fill="#ffffff" stroke="none" d="M 351.14250461647725 261.68 C 351.14250461647725 256.886167936 355.02834694142274 253 359.82177734375 253 C 364.61520774607726 253 368.50105007102275 256.886167936 368.50105007102275 261.68 C 368.50105007102275 266.473832064 364.61520774607726 270.36 359.82177734375 270.36 C 355.02834694142274 270.36 351.14250461647725 266.473832064 351.14250461647725 261.68 Z"/></g><g transform="translate(-272,-106) scale(1,1)"><path fill="none" stroke="#000000" d="M 351.14250461647725 261.68 C 351.14250461647725 256.886167936 355.02834694142274 253 359.82177734375 253 C 364.61520774607726 253 368.50105007102275 256.886167936 368.50105007102275 261.68 C 368.50105007102275 266.473832064 364.61520774607726 270.36 359.82177734375 270.36 C 355.02834694142274 270.36 351.14250461647725 266.473832064 351.14250461647725 261.68 Z" stroke-miterlimit="10"/></g><g transform="translate(-272,-106) scale(1,1)"><path fill="none" stroke="#000000" d="M 359.82177734375 270.36 L 359.82177734375 287.64" stroke-miterlimit="10"/></g><g transform="translate(-272,-106) scale(1,1)"><path fill="none" stroke="#000000" d="M 350.63195916193183 276.84 L 369.01159552556817 276.84" stroke-miterlimit="10"/></g><g transform="translate(-272,-106) scale(1,1)"><path fill="none" stroke="#000000" d="M 359.82177734375 287.64 L 347.05814098011365 305" stroke-miterlimit="10"/></g><g transform="translate(-272,-106) scale(1,1)"><path fill="none" stroke="#000000" d="M 359.82177734375 287.64 L 372.58541370738635 305" stroke-miterlimit="10"/></g><g transform="translate(-272,-106) scale(1,1)"><g><path fill="none" stroke="none"/><text fill="#000000" stroke="none" font-family="Arial" font-size="13px" font-style="normal" font-weight="bold" text-decoration="none" x="293.352294921875" y="325.5">Business Administrator</text></g></g><g transform="translate(-272,-106) scale(1,1)"><path fill="#ffffff" stroke="none" d="M 344.43571750710225 461.68 C 344.43571750710225 456.886167936 348.32155983204774 453 353.114990234375 453 C 357.90842063670226 453 361.79426296164775 456.886167936 361.79426296164775 461.68 C 361.79426296164775 466.473832064 357.90842063670226 470.36 353.114990234375 470.36 C 348.32155983204774 470.36 344.43571750710225 466.473832064 344.43571750710225 461.68 Z"/></g><g transform="translate(-272,-106) scale(1,1)"><path fill="none" stroke="#000000" d="M 344.43571750710225 461.68 C 344.43571750710225 456.886167936 348.32155983204774 453 353.114990234375 453 C 357.90842063670226 453 361.79426296164775 456.886167936 361.79426296164775 461.68 C 361.79426296164775 466.473832064 357.90842063670226 470.36 353.114990234375 470.36 C 348.32155983204774 470.36 344.43571750710225 466.473832064 344.43571750710225 461.68 Z" stroke-miterlimit="10"/></g><g transform="translate(-272,-106) scale(1,1)"><path fill="none" stroke="#000000" d="M 353.114990234375 470.36 L 353.114990234375 487.64" stroke-miterlimit="10"/></g><g transform="translate(-272,-106) scale(1,1)"><path fill="none" stroke="#000000" d="M 343.92517205255683 476.84 L 362.30480841619317 476.84" stroke-miterlimit="10"/></g><g transform="translate(-272,-106) scale(1,1)"><path fill="none" stroke="#000000" d="M 353.114990234375 487.64 L 340.35135387073865 505" stroke-miterlimit="10"/></g><g transform="translate(-272,-106) scale(1,1)"><path fill="none" stroke="#000000" d="M 353.114990234375 487.64 L 365.87862659801135 505" stroke-miterlimit="10"/></g><g transform="translate(-272,-106) scale(1,1)"><g><path fill="none" stroke="none"/><text fill="#000000" stroke="none" font-family="Arial" font-size="13px" font-style="normal" font-weight="bold" text-decoration="none" x="314.825927734375" y="525.5">Administrator</text></g></g><g transform="translate(-272,-106) scale(1,1)"><path fill="#ffffff" stroke="none" d="M 783.1097897727273 156.68 C 783.1097897727273 151.886167936 786.9956320976727 148 791.7890625 148 C 796.5824929023273 148 800.4683352272727 151.886167936 800.4683352272727 156.68 C 800.4683352272727 161.47383206400002 796.5824929023273 165.36 791.7890625 165.36 C 786.9956320976727 165.36 783.1097897727273 161.47383206400002 783.1097897727273 156.68 Z"/></g><g transform="translate(-272,-106) scale(1,1)"><path fill="none" stroke="#000000" d="M 783.1097897727273 156.68 C 783.1097897727273 151.886167936 786.9956320976727 148 791.7890625 148 C 796.5824929023273 148 800.4683352272727 151.886167936 800.4683352272727 156.68 C 800.4683352272727 161.47383206400002 796.5824929023273 165.36 791.7890625 165.36 C 786.9956320976727 165.36 783.1097897727273 161.47383206400002 783.1097897727273 156.68 Z" stroke-miterlimit="10"/></g><g transform="translate(-272,-106) scale(1,1)"><path fill="none" stroke="#000000" d="M 791.7890625 165.36 L 791.7890625 182.64" stroke-miterlimit="10"/></g><g transform="translate(-272,-106) scale(1,1)"><path fill="none" stroke="#000000" d="M 782.5992443181818 171.84 L 800.9788806818182 171.84" stroke-miterlimit="10"/></g><g transform="translate(-272,-106) scale(1,1)"><path fill="none" stroke="#000000" d="M 791.7890625 182.64 L 779.0254261363636 200" stroke-miterlimit="10"/></g><g transform="translate(-272,-106) scale(1,1)"><path fill="none" stroke="#000000" d="M 791.7890625 182.64 L 804.5526988636364 200" stroke-miterlimit="10"/></g><g transform="translate(-272,-106) scale(1,1)"><g><path fill="none" stroke="none"/><text fill="#000000" stroke="none" font-family="Arial" font-size="13px" font-style="normal" font-weight="bold" text-decoration="none" x="744.457763671875" y="220.5">Senior Inspector</text></g></g><g transform="translate(-272,-106) scale(1,1)"><path fill="#ffffff" stroke="none" d="M 780.0770749289773 397.68 C 780.0770749289773 392.886167936 783.9629172539227 389 788.75634765625 389 C 793.5497780585773 389 797.4356203835227 392.886167936 797.4356203835227 397.68 C 797.4356203835227 402.473832064 793.5497780585773 406.36 788.75634765625 406.36 C 783.9629172539227 406.36 780.0770749289773 402.473832064 780.0770749289773 397.68 Z"/></g><g transform="translate(-272,-106) scale(1,1)"><path fill="none" stroke="#000000" d="M 780.0770749289773 397.68 C 780.0770749289773 392.886167936 783.9629172539227 389 788.75634765625 389 C 793.5497780585773 389 797.4356203835227 392.886167936 797.4356203835227 397.68 C 797.4356203835227 402.473832064 793.5497780585773 406.36 788.75634765625 406.36 C 783.9629172539227 406.36 780.0770749289773 402.473832064 780.0770749289773 397.68 Z" stroke-miterlimit="10"/></g><g transform="translate(-272,-106) scale(1,1)"><path fill="none" stroke="#000000" d="M 788.75634765625 406.36 L 788.75634765625 423.64" stroke-miterlimit="10"/></g><g transform="translate(-272,-106) scale(1,1)"><path fill="none" stroke="#000000" d="M 779.5665294744318 412.84 L 797.9461658380682 412.84" stroke-miterlimit="10"/></g><g transform="translate(-272,-106) scale(1,1)"><path fill="none" stroke="#000000" d="M 788.75634765625 423.64 L 775.9927112926136 441" stroke-miterlimit="10"/></g><g transform="translate(-272,-106) scale(1,1)"><path fill="none" stroke="#000000" d="M 788.75634765625 423.64 L 801.5199840198864 441" stroke-miterlimit="10"/></g><g transform="translate(-272,-106) scale(1,1)"><g><path fill="none" stroke="none"/><text fill="#000000" stroke="none" font-family="Arial" font-size="13px" font-style="normal" font-weight="bold" text-decoration="none" x="762.02001953125" y="461.5">Inspector</text></g></g><g transform="translate(-272,-106) scale(1,1)"><path fill="none" stroke="#000000" d="M 413 171 L 527 203" stroke-miterlimit="10"/></g><g transform="translate(-272,-106) scale(1,1)"><path fill="none" stroke="#000000" d="M 516.0778455645227 204.3063470012146 L 527 203 L 518.3531437103657 196.20059735664879" stroke-miterlimit="10"/></g><g transform="translate(-272,-106) scale(1,1)"><path fill="none" stroke="#000000" d="M 406 196 L 564 335" stroke-miterlimit="10"/></g><g transform="translate(-272,-106) scale(1,1)"><path fill="none" stroke="#000000" d="M 553.5893107903275 331.4478808888763 L 564 335 L 559.150258574073 325.1268035519571" stroke-miterlimit="10"/></g><g transform="translate(-272,-106) scale(1,1)"><path fill="none" stroke="#000000" d="M 735 212 L 626 263" stroke-miterlimit="10"/></g><g transform="translate(-272,-106) scale(1,1)"><path fill="none" stroke="#000000" d="M 633.420952177035 254.88030365185006 L 626 263 L 636.988897956195 262.50591325829004" stroke-miterlimit="10"/></g><g transform="translate(-272,-106) scale(1,1)"><path fill="none" stroke="#000000" d="M 754 227 L 593 407" stroke-miterlimit="10"/></g><g transform="translate(-272,-106) scale(1,1)"><path fill="none" stroke="#000000" d="M 596.6376267916897 396.6188790911395 L 593 407 L 602.9127515628024 402.2316295808569" stroke-miterlimit="10"/></g><g transform="translate(-272,-106) scale(1,1)"><path fill="none" stroke="#000000" d="M 754 402 L 612 299" stroke-miterlimit="10"/></g><g transform="translate(-272,-106) scale(1,1)"><path fill="none" stroke="#000000" d="M 622.6980677517486 301.55955980180124 L 612 299 L 617.7547941601484 308.3745583455607" stroke-miterlimit="10"/></g><g transform="translate(-272,-106) scale(1,1)"><path fill="none" stroke="#000000" d="M 754 427 L 627 425" stroke-miterlimit="10"/></g><g transform="translate(-272,-106) scale(1,1)"><path fill="none" stroke="#000000" d="M 637.2276983173224 420.9510264103306 L 627 425 L 637.0951315182094 429.3690181540085" stroke-miterlimit="10"/></g><g transform="translate(-272,-106) scale(1,1)"><path fill="none" stroke="#000000" d="M 439 288 L 527 284" stroke-miterlimit="10"/></g><g transform="translate(-272,-106) scale(1,1)"><path fill="none" stroke="#000000" d="M 517.0389518877435 288.66663910167813 L 527 284 L 516.656663177951 280.25628748624484" stroke-miterlimit="10"/></g><g transform="translate(-272,-106) scale(1,1)"><path fill="none" stroke="#000000" d="M 426 332 L 548 407" stroke-miterlimit="10"/></g><g transform="translate(-272,-106) scale(1,1)"><path fill="none" stroke="#000000" d="M 537.1378806494077 405.26380784085154 L 548 407 L 541.5469949983153 398.0916484999618" stroke-miterlimit="10"/></g><g transform="translate(-272,-106) scale(1,1)"><path fill="none" stroke="#000000" d="M 401 477 L 527 440" stroke-miterlimit="10"/></g><g transform="translate(-272,-106) scale(1,1)"><path fill="none" stroke="#000000" d="M 518.4350974968999 446.9023506946829 L 527 440 L 516.0630003775183 438.8243983421943" stroke-miterlimit="10"/></g><g transform="translate(-272,-106) scale(1,1)"><path fill="none" stroke="#000000" d="M 398 451 L 567 299" stroke-miterlimit="10"/></g><g transform="translate(-272,-106) scale(1,1)"><path fill="none" stroke="#000000" d="M 562.2589160735728 308.92583110890837 L 567 299 L 556.6289249194273 302.6661698914703" stroke-miterlimit="10"/></g><g transform="translate(-272,-106) scale(1,1)"><path fill="none" stroke="#000000" d="M 392 196 L 562 407" stroke-miterlimit="10"/></g><g transform="translate(-272,-106) scale(1,1)"><path fill="none" stroke="#000000" d="M 552.3460544991764 401.72730275218385 L 562 407 L 558.9019896502367 396.44526969208783" stroke-miterlimit="10"/></g></g></svg>