<svg version="1.1" xmlns="http://www.w3.org/2000/svg" xmlns:xlink="http://www.w3.org/1999/xlink" width="659.578125" height="428"><defs/><g><g transform="translate(-6,-46) scale(1,1)"><rect fill="#C0C0C0" stroke="none" x="183" y="63" width="327" height="408" opacity="0.2"/></g><g transform="translate(-6,-46) scale(1,1)"><rect fill="#ffffff" stroke="none" x="176" y="56" width="327" height="408"/></g><g transform="translate(-6,-46) scale(1,1)"><path fill="none" stroke="#000000" d="M 176 56 L 503 56 L 503 464 L 176 464 L 176 56 Z Z" stroke-miterlimit="10"/></g><g transform="translate(-6,-46) scale(1,1)"><g><path fill="none" stroke="none"/><text fill="#000000" stroke="none" font-family="Arial" font-size="13px" font-style="normal" font-weight="bold" text-decoration="none" x="308.06640625" y="75.5">Comapany</text></g></g><g transform="translate(-6,-46) scale(1,1)"><path fill="#ffffff" stroke="none" d="M 91.85661594460227 113.68 C 91.85661594460227 108.886167936 95.74245826954773 105 100.535888671875 105 C 105.32931907420227 105 109.21516139914773 108.886167936 109.21516139914773 113.68 C 109.21516139914773 118.473832064 105.32931907420227 122.36 100.535888671875 122.36 C 95.74245826954773 122.36 91.85661594460227 118.473832064 91.85661594460227 113.68 Z"/></g><g transform="translate(-6,-46) scale(1,1)"><path fill="none" stroke="#000000" d="M 91.85661594460227 113.68 C 91.85661594460227 108.886167936 95.74245826954773 105 100.535888671875 105 C 105.32931907420227 105 109.21516139914773 108.886167936 109.21516139914773 113.68 C 109.21516139914773 118.473832064 105.32931907420227 122.36 100.535888671875 122.36 C 95.74245826954773 122.36 91.85661594460227 118.473832064 91.85661594460227 113.68 Z" stroke-miterlimit="10"/></g><g transform="translate(-6,-46) scale(1,1)"><path fill="none" stroke="#000000" d="M 100.535888671875 122.36 L 100.535888671875 139.64" stroke-miterlimit="10"/></g><g transform="translate(-6,-46) scale(1,1)"><path fill="none" stroke="#000000" d="M 91.34607049005682 128.84 L 109.72570685369318 128.84" stroke-miterlimit="10"/></g><g transform="translate(-6,-46) scale(1,1)"><path fill="none" stroke="#000000" d="M 100.535888671875 139.64 L 87.77225230823863 157" stroke-miterlimit="10"/></g><g transform="translate(-6,-46) scale(1,1)"><path fill="none" stroke="#000000" d="M 100.535888671875 139.64 L 113.29952503551137 157" stroke-miterlimit="10"/></g><g transform="translate(-6,-46) scale(1,1)"><g><path fill="none" stroke="none"/><text fill="#000000" stroke="none" font-family="Arial" font-size="13px" font-style="normal" font-weight="bold" text-decoration="none" x="55.7373046875" y="177.5">Centeral Admin</text></g></g><g transform="translate(-6,-46) scale(1,1)"><path fill="#ffffff" stroke="none" d="M 85.14250461647727 241.68 C 85.14250461647727 236.886167936 89.02834694142273 233 93.82177734375 233 C 98.61520774607727 233 102.50105007102273 236.886167936 102.50105007102273 241.68 C 102.50105007102273 246.47383206400002 98.61520774607727 250.36 93.82177734375 250.36 C 89.02834694142273 250.36 85.14250461647727 246.47383206400002 85.14250461647727 241.68 Z"/></g><g transform="translate(-6,-46) scale(1,1)"><path fill="none" stroke="#000000" d="M 85.14250461647727 241.68 C 85.14250461647727 236.886167936 89.02834694142273 233 93.82177734375 233 C 98.61520774607727 233 102.50105007102273 236.886167936 102.50105007102273 241.68 C 102.50105007102273 246.47383206400002 98.61520774607727 250.36 93.82177734375 250.36 C 89.02834694142273 250.36 85.14250461647727 246.47383206400002 85.14250461647727 241.68 Z" stroke-miterlimit="10"/></g><g transform="translate(-6,-46) scale(1,1)"><path fill="none" stroke="#000000" d="M 93.82177734375 250.36 L 93.82177734375 267.64" stroke-miterlimit="10"/></g><g transform="translate(-6,-46) scale(1,1)"><path fill="none" stroke="#000000" d="M 84.63195916193182 256.84 L 103.01159552556818 256.84" stroke-miterlimit="10"/></g><g transform="translate(-6,-46) scale(1,1)"><path fill="none" stroke="#000000" d="M 93.82177734375 267.64 L 81.05814098011363 285" stroke-miterlimit="10"/></g><g transform="translate(-6,-46) scale(1,1)"><path fill="none" stroke="#000000" d="M 93.82177734375 267.64 L 106.58541370738637 285" stroke-miterlimit="10"/></g><g transform="translate(-6,-46) scale(1,1)"><g><path fill="none" stroke="none"/><text fill="#000000" stroke="none" font-family="Arial" font-size="13px" font-style="normal" font-weight="bold" text-decoration="none" x="27.352294921875" y="305.5">Business Administrator</text></g></g><g transform="translate(-6,-46) scale(1,1)"><path fill="#ffffff" stroke="none" d="M 78.82072727272727 369.68 C 78.82072727272727 364.886167936 82.70656959767273 361 87.5 361 C 92.29343040232727 361 96.17927272727273 364.886167936 96.17927272727273 369.68 C 96.17927272727273 374.473832064 92.29343040232727 378.36 87.5 378.36 C 82.70656959767273 378.36 78.82072727272727 374.473832064 78.82072727272727 369.68 Z"/></g><g transform="translate(-6,-46) scale(1,1)"><path fill="none" stroke="#000000" d="M 78.82072727272727 369.68 C 78.82072727272727 364.886167936 82.70656959767273 361 87.5 361 C 92.29343040232727 361 96.17927272727273 364.886167936 96.17927272727273 369.68 C 96.17927272727273 374.473832064 92.29343040232727 378.36 87.5 378.36 C 82.70656959767273 378.36 78.82072727272727 374.473832064 78.82072727272727 369.68 Z" stroke-miterlimit="10"/></g><g transform="translate(-6,-46) scale(1,1)"><path fill="none" stroke="#000000" d="M 87.5 378.36 L 87.5 395.64" stroke-miterlimit="10"/></g><g transform="translate(-6,-46) scale(1,1)"><path fill="none" stroke="#000000" d="M 78.31018181818182 384.84 L 96.68981818181818 384.84" stroke-miterlimit="10"/></g><g transform="translate(-6,-46) scale(1,1)"><path fill="none" stroke="#000000" d="M 87.5 395.64 L 74.73636363636363 413" stroke-miterlimit="10"/></g><g transform="translate(-6,-46) scale(1,1)"><path fill="none" stroke="#000000" d="M 87.5 395.64 L 100.26363636363637 413" stroke-miterlimit="10"/></g><g transform="translate(-6,-46) scale(1,1)"><g><path fill="none" stroke="none"/><text fill="#000000" stroke="none" font-family="Arial" font-size="13px" font-style="normal" font-weight="bold" text-decoration="none" x="49.2109375" y="433.5">Administrator</text></g></g><g transform="translate(-6,-46) scale(1,1)"><path fill="#ffffff" stroke="none" d="M 591.1097897727273 129.68 C 591.1097897727273 124.886167936 594.9956320976727 121 599.7890625 121 C 604.5824929023273 121 608.4683352272727 124.886167936 608.4683352272727 129.68 C 608.4683352272727 134.47383206400002 604.5824929023273 138.36 599.7890625 138.36 C 594.9956320976727 138.36 591.1097897727273 134.47383206400002 591.1097897727273 129.68 Z"/></g><g transform="translate(-6,-46) scale(1,1)"><path fill="none" stroke="#000000" d="M 591.1097897727273 129.68 C 591.1097897727273 124.886167936 594.9956320976727 121 599.7890625 121 C 604.5824929023273 121 608.4683352272727 124.886167936 608.4683352272727 129.68 C 608.4683352272727 134.47383206400002 604.5824929023273 138.36 599.7890625 138.36 C 594.9956320976727 138.36 591.1097897727273 134.47383206400002 591.1097897727273 129.68 Z" stroke-miterlimit="10"/></g><g transform="translate(-6,-46) scale(1,1)"><path fill="none" stroke="#000000" d="M 599.7890625 138.36 L 599.7890625 155.64" stroke-miterlimit="10"/></g><g transform="translate(-6,-46) scale(1,1)"><path fill="none" stroke="#000000" d="M 590.5992443181818 144.84 L 608.9788806818182 144.84" stroke-miterlimit="10"/></g><g transform="translate(-6,-46) scale(1,1)"><path fill="none" stroke="#000000" d="M 599.7890625 155.64 L 587.0254261363636 173" stroke-miterlimit="10"/></g><g transform="translate(-6,-46) scale(1,1)"><path fill="none" stroke="#000000" d="M 599.7890625 155.64 L 612.5526988636364 173" stroke-miterlimit="10"/></g><g transform="translate(-6,-46) scale(1,1)"><g><path fill="none" stroke="none"/><text fill="#000000" stroke="none" font-family="Arial" font-size="13px" font-style="normal" font-weight="bold" text-decoration="none" x="552.457763671875" y="193.5">Senior Inspector</text></g></g><g transform="translate(-6,-46) scale(1,1)"><path fill="#ffffff" stroke="none" d="M 582.8207272727273 321.68 C 582.8207272727273 316.886167936 586.7065695976727 313 591.5 313 C 596.2934304023273 313 600.1792727272727 316.886167936 600.1792727272727 321.68 C 600.1792727272727 326.473832064 596.2934304023273 330.36 591.5 330.36 C 586.7065695976727 330.36 582.8207272727273 326.473832064 582.8207272727273 321.68 Z"/></g><g transform="translate(-6,-46) scale(1,1)"><path fill="none" stroke="#000000" d="M 582.8207272727273 321.68 C 582.8207272727273 316.886167936 586.7065695976727 313 591.5 313 C 596.2934304023273 313 600.1792727272727 316.886167936 600.1792727272727 321.68 C 600.1792727272727 326.473832064 596.2934304023273 330.36 591.5 330.36 C 586.7065695976727 330.36 582.8207272727273 326.473832064 582.8207272727273 321.68 Z" stroke-miterlimit="10"/></g><g transform="translate(-6,-46) scale(1,1)"><path fill="none" stroke="#000000" d="M 591.5 330.36 L 591.5 347.64" stroke-miterlimit="10"/></g><g transform="translate(-6,-46) scale(1,1)"><path fill="none" stroke="#000000" d="M 582.3101818181818 336.84 L 600.6898181818182 336.84" stroke-miterlimit="10"/></g><g transform="translate(-6,-46) scale(1,1)"><path fill="none" stroke="#000000" d="M 591.5 347.64 L 578.7363636363636 365" stroke-miterlimit="10"/></g><g transform="translate(-6,-46) scale(1,1)"><path fill="none" stroke="#000000" d="M 591.5 347.64 L 604.2636363636364 365" stroke-miterlimit="10"/></g><g transform="translate(-6,-46) scale(1,1)"><g><path fill="none" stroke="none"/><text fill="#000000" stroke="none" font-family="Arial" font-size="13px" font-style="normal" font-weight="bold" text-decoration="none" x="564.763671875" y="385.5">Inspector</text></g></g><g transform="translate(-6,-46) scale(1,1)"><path fill="#C0C0C0" stroke="none" d="M 263 166.5 C 263 153.5213072 299.7126464 143 345 143 C 390.2873536 143 427 153.5213072 427 166.5 C 427 179.4786928 390.2873536 190 345 190 C 299.7126464 190 263 179.4786928 263 166.5 Z" opacity="0.2"/></g><g transform="translate(-6,-46) scale(1,1)"><path fill="#ffffff" stroke="none" d="M 256 159.5 C 256 146.5213072 292.7126464 136 338 136 C 383.2873536 136 420 146.5213072 420 159.5 C 420 172.4786928 383.2873536 183 338 183 C 292.7126464 183 256 172.4786928 256 159.5 Z"/></g><g transform="translate(-6,-46) scale(1,1)"><path fill="none" stroke="#000000" d="M 256 159.5 C 256 146.5213072 292.7126464 136 338 136 C 383.2873536 136 420 146.5213072 420 159.5 C 420 172.4786928 383.2873536 183 338 183 C 292.7126464 183 256 172.4786928 256 159.5 Z" stroke-miterlimit="10"/></g><g transform="translate(-6,-46) scale(1,1)"><g><path fill="none" stroke="none"/><text fill="#000000" stroke="none" font-family="Arial" font-size="13px" font-style="normal" font-weight="bold" text-decoration="none" x="296.81005859375" y="166.5">Add Company</text></g></g><g transform="translate(-6,-46) scale(1,1)"><path fill="#C0C0C0" stroke="none" d="M 263 231 C 263 217.7451648 300.3842192 207 346.5 207 C 392.6157808 207 430 217.7451648 430 231 C 430 244.2548352 392.6157808 255 346.5 255 C 300.3842192 255 263 244.2548352 263 231 Z" opacity="0.2"/></g><g transform="translate(-6,-46) scale(1,1)"><path fill="#ffffff" stroke="none" d="M 256 224 C 256 210.7451648 293.3842192 200 339.5 200 C 385.6157808 200 423 210.7451648 423 224 C 423 237.2548352 385.6157808 248 339.5 248 C 293.3842192 248 256 237.2548352 256 224 Z"/></g><g transform="translate(-6,-46) scale(1,1)"><path fill="none" stroke="#000000" d="M 256 224 C 256 210.7451648 293.3842192 200 339.5 200 C 385.6157808 200 423 210.7451648 423 224 C 423 237.2548352 385.6157808 248 339.5 248 C 293.3842192 248 256 237.2548352 256 224 Z" stroke-miterlimit="10"/></g><g transform="translate(-6,-46) scale(1,1)"><g><path fill="none" stroke="none"/><text fill="#000000" stroke="none" font-family="Arial" font-size="13px" font-style="normal" font-weight="bold" text-decoration="none" x="288.91552734375" y="231">Update Company</text></g></g><g transform="translate(-6,-46) scale(1,1)"><path fill="#C0C0C0" stroke="none" d="M 263 295 C 263 281.7451648 298.81721600000003 271 343 271 C 387.18278399999997 271 423 281.7451648 423 295 C 423 308.2548352 387.18278399999997 319 343 319 C 298.81721600000003 319 263 308.2548352 263 295 Z" opacity="0.2"/></g><g transform="translate(-6,-46) scale(1,1)"><path fill="#ffffff" stroke="none" d="M 256 288 C 256 274.7451648 291.81721600000003 264 336 264 C 380.18278399999997 264 416 274.7451648 416 288 C 416 301.2548352 380.18278399999997 312 336 312 C 291.81721600000003 312 256 301.2548352 256 288 Z"/></g><g transform="translate(-6,-46) scale(1,1)"><path fill="none" stroke="#000000" d="M 256 288 C 256 274.7451648 291.81721600000003 264 336 264 C 380.18278399999997 264 416 274.7451648 416 288 C 416 301.2548352 380.18278399999997 312 336 312 C 291.81721600000003 312 256 301.2548352 256 288 Z" stroke-miterlimit="10"/></g><g transform="translate(-6,-46) scale(1,1)"><g><path fill="none" stroke="none"/><text fill="#000000" stroke="none" font-family="Arial" font-size="13px" font-style="normal" font-weight="bold" text-decoration="none" x="287.58642578125" y="295">Delete Company</text></g></g><g transform="translate(-6,-46) scale(1,1)"><path fill="#C0C0C0" stroke="none" d="M 263 359 C 263 345.7451648 300.6080768 335 347 335 C 393.3919232 335 431 345.7451648 431 359 C 431 372.2548352 393.3919232 383 347 383 C 300.6080768 383 263 372.2548352 263 359 Z" opacity="0.2"/></g><g transform="translate(-6,-46) scale(1,1)"><path fill="#ffffff" stroke="none" d="M 256 352 C 256 338.7451648 293.6080768 328 340 328 C 386.3919232 328 424 338.7451648 424 352 C 424 365.2548352 386.3919232 376 340 376 C 293.6080768 376 256 365.2548352 256 352 Z"/></g><g transform="translate(-6,-46) scale(1,1)"><path fill="none" stroke="#000000" d="M 256 352 C 256 338.7451648 293.6080768 328 340 328 C 386.3919232 328 424 338.7451648 424 352 C 424 365.2548352 386.3919232 376 340 376 C 293.6080768 376 256 365.2548352 256 352 Z" stroke-miterlimit="10"/></g><g transform="translate(-6,-46) scale(1,1)"><g><path fill="none" stroke="none"/><text fill="#000000" stroke="none" font-family="Arial" font-size="13px" font-style="normal" font-weight="bold" text-decoration="none" x="296.404296875" y="359">View Company</text></g></g><g transform="translate(-6,-46) scale(1,1)"><path fill="none" stroke="#000000" d="M 154 147 L 255 153" stroke-miterlimit="10"/></g><g transform="translate(-6,-46) scale(1,1)"><path fill="none" stroke="#000000" d="M 244.60557992329964 156.5994487451676 L 255 153 L 245.10484046102218 148.19522969350498" stroke-miterlimit="10"/></g><g transform="translate(-6,-46) scale(1,1)"><path fill="none" stroke="#000000" d="M 170 312 L 200 328 L 255 337" stroke-miterlimit="10"/></g><g transform="translate(-6,-46) scale(1,1)"><path fill="none" stroke="#000000" d="M 244.2909254939018 339.5131102687382 L 255 337 L 245.65050348361163 331.20457810940036" stroke-miterlimit="10"/></g><g transform="translate(-6,-46) scale(1,1)"><path fill="none" stroke="#000000" d="M 136 390 L 255 368" stroke-miterlimit="10"/></g><g transform="translate(-6,-46) scale(1,1)"><path fill="none" stroke="#000000" d="M 245.77193059695264 373.98688024705194 L 255 368 L 244.24140592700286 365.70813316868737" stroke-miterlimit="10"/></g><g transform="translate(-6,-46) scale(1,1)"><path fill="none" stroke="#000000" d="M 543 173 L 424 203" stroke-miterlimit="10"/></g><g transform="translate(-6,-46) scale(1,1)"><path fill="none" stroke="#000000" d="M 432.8253255581828 196.43390307777247 L 424 203 L 434.8833792080052 204.59751588873476" stroke-miterlimit="10"/></g><g transform="translate(-6,-46) scale(1,1)"><path fill="none" stroke="#000000" d="M 543 351 L 425 352" stroke-miterlimit="10"/></g><g transform="translate(-6,-46) scale(1,1)"><path fill="none" stroke="#000000" d="M 435.1266373452013 347.70451212563995 L 425 352 L 435.1979825418734 356.1232453329442" stroke-miterlimit="10"/></g><g transform="translate(-6,-46) scale(1,1)"><path fill="none" stroke="#000000" d="M 559 200 L 520 240 L 380 327" stroke-miterlimit="10"/></g><g transform="translate(-6,-46) scale(1,1)"><path fill="none" stroke="#000000" d="M 386.40990749758436 318.0605880577964 L 380 327 L 390.85360786247253 325.21137025416823" stroke-miterlimit="10"/></g><g transform="translate(-6,-46) scale(1,1)"><path fill="none" stroke="#000000" d="M 154 176 L 295 263" stroke-miterlimit="10"/></g><g transform="translate(-6,-46) scale(1,1)"><path fill="none" stroke="#000000" d="M 284.1407490927713 261.2459561767585 L 295 263 L 288.5616463268048 254.08105376297993" stroke-miterlimit="10"/></g><g transform="translate(-6,-46) scale(1,1)"><path fill="none" stroke="#000000" d="M 154 161 L 265 199" stroke-miterlimit="10"/></g><g transform="translate(-6,-46) scale(1,1)"><path fill="none" stroke="#000000" d="M 254.0217271257142 199.69103161846664 L 265 199 L 256.7485556614441 191.72582194830827" stroke-miterlimit="10"/></g><g transform="translate(-6,-46) scale(1,1)"><path fill="none" stroke="#000000" d="M 132 184 L 200 272 L 296 327" stroke-miterlimit="10"/></g><g transform="translate(-6,-46) scale(1,1)"><path fill="none" stroke="#000000" d="M 285.08938360746924 325.6005537041245 L 296 327 L 289.2745871276364 318.29547119619644" stroke-miterlimit="10"/></g></g></svg>