<svg version="1.1" xmlns="http://www.w3.org/2000/svg" xmlns:xlink="http://www.w3.org/1999/xlink" width="713.578125" height="424"><defs/><g><g transform="translate(-374,-166) scale(1,1)"><rect fill="#C0C0C0" stroke="none" x="567" y="183" width="351" height="384" opacity="0.2"/></g><g transform="translate(-374,-166) scale(1,1)"><rect fill="#ffffff" stroke="none" x="560" y="176" width="351" height="384"/></g><g transform="translate(-374,-166) scale(1,1)"><path fill="none" stroke="#000000" d="M 560 176 L 911 176 L 911 560 L 560 560 L 560 176 Z Z" stroke-miterlimit="10"/></g><g transform="translate(-374,-166) scale(1,1)"><g><path fill="none" stroke="none"/><text fill="#000000" stroke="none" font-family="Arial" font-size="13px" font-style="normal" font-weight="bold" text-decoration="none" x="713.825927734375" y="195.5">Answer</text></g></g><g transform="translate(-374,-166) scale(1,1)"><path fill="#ffffff" stroke="none" d="M 452.85661594460225 226.68 C 452.85661594460225 221.886167936 456.74245826954774 218 461.535888671875 218 C 466.32931907420226 218 470.21516139914775 221.886167936 470.21516139914775 226.68 C 470.21516139914775 231.47383206400002 466.32931907420226 235.36 461.535888671875 235.36 C 456.74245826954774 235.36 452.85661594460225 231.47383206400002 452.85661594460225 226.68 Z"/></g><g transform="translate(-374,-166) scale(1,1)"><path fill="none" stroke="#000000" d="M 452.85661594460225 226.68 C 452.85661594460225 221.886167936 456.74245826954774 218 461.535888671875 218 C 466.32931907420226 218 470.21516139914775 221.886167936 470.21516139914775 226.68 C 470.21516139914775 231.47383206400002 466.32931907420226 235.36 461.535888671875 235.36 C 456.74245826954774 235.36 452.85661594460225 231.47383206400002 452.85661594460225 226.68 Z" stroke-miterlimit="10"/></g><g transform="translate(-374,-166) scale(1,1)"><path fill="none" stroke="#000000" d="M 461.535888671875 235.36 L 461.535888671875 252.64" stroke-miterlimit="10"/></g><g transform="translate(-374,-166) scale(1,1)"><path fill="none" stroke="#000000" d="M 452.34607049005683 241.84 L 470.72570685369317 241.84" stroke-miterlimit="10"/></g><g transform="translate(-374,-166) scale(1,1)"><path fill="none" stroke="#000000" d="M 461.535888671875 252.64 L 448.77225230823865 270" stroke-miterlimit="10"/></g><g transform="translate(-374,-166) scale(1,1)"><path fill="none" stroke="#000000" d="M 461.535888671875 252.64 L 474.29952503551135 270" stroke-miterlimit="10"/></g><g transform="translate(-374,-166) scale(1,1)"><g><path fill="none" stroke="none"/><text fill="#000000" stroke="none" font-family="Arial" font-size="13px" font-style="normal" font-weight="bold" text-decoration="none" x="416.7373046875" y="290.5">Centeral Admin</text></g></g><g transform="translate(-374,-166) scale(1,1)"><path fill="#ffffff" stroke="none" d="M 453.14250461647725 362.68 C 453.14250461647725 357.886167936 457.02834694142274 354 461.82177734375 354 C 466.61520774607726 354 470.50105007102275 357.886167936 470.50105007102275 362.68 C 470.50105007102275 367.473832064 466.61520774607726 371.36 461.82177734375 371.36 C 457.02834694142274 371.36 453.14250461647725 367.473832064 453.14250461647725 362.68 Z"/></g><g transform="translate(-374,-166) scale(1,1)"><path fill="none" stroke="#000000" d="M 453.14250461647725 362.68 C 453.14250461647725 357.886167936 457.02834694142274 354 461.82177734375 354 C 466.61520774607726 354 470.50105007102275 357.886167936 470.50105007102275 362.68 C 470.50105007102275 367.473832064 466.61520774607726 371.36 461.82177734375 371.36 C 457.02834694142274 371.36 453.14250461647725 367.473832064 453.14250461647725 362.68 Z" stroke-miterlimit="10"/></g><g transform="translate(-374,-166) scale(1,1)"><path fill="none" stroke="#000000" d="M 461.82177734375 371.36 L 461.82177734375 388.64" stroke-miterlimit="10"/></g><g transform="translate(-374,-166) scale(1,1)"><path fill="none" stroke="#000000" d="M 452.63195916193183 377.84 L 471.01159552556817 377.84" stroke-miterlimit="10"/></g><g transform="translate(-374,-166) scale(1,1)"><path fill="none" stroke="#000000" d="M 461.82177734375 388.64 L 449.05814098011365 406" stroke-miterlimit="10"/></g><g transform="translate(-374,-166) scale(1,1)"><path fill="none" stroke="#000000" d="M 461.82177734375 388.64 L 474.58541370738635 406" stroke-miterlimit="10"/></g><g transform="translate(-374,-166) scale(1,1)"><g><path fill="none" stroke="none"/><text fill="#000000" stroke="none" font-family="Arial" font-size="13px" font-style="normal" font-weight="bold" text-decoration="none" x="395.352294921875" y="426.5">Business Administrator</text></g></g><g transform="translate(-374,-166) scale(1,1)"><path fill="#ffffff" stroke="none" d="M 449.43571750710225 510.68 C 449.43571750710225 505.886167936 453.32155983204774 502 458.114990234375 502 C 462.90842063670226 502 466.79426296164775 505.886167936 466.79426296164775 510.68 C 466.79426296164775 515.473832064 462.90842063670226 519.36 458.114990234375 519.36 C 453.32155983204774 519.36 449.43571750710225 515.473832064 449.43571750710225 510.68 Z"/></g><g transform="translate(-374,-166) scale(1,1)"><path fill="none" stroke="#000000" d="M 449.43571750710225 510.68 C 449.43571750710225 505.886167936 453.32155983204774 502 458.114990234375 502 C 462.90842063670226 502 466.79426296164775 505.886167936 466.79426296164775 510.68 C 466.79426296164775 515.473832064 462.90842063670226 519.36 458.114990234375 519.36 C 453.32155983204774 519.36 449.43571750710225 515.473832064 449.43571750710225 510.68 Z" stroke-miterlimit="10"/></g><g transform="translate(-374,-166) scale(1,1)"><path fill="none" stroke="#000000" d="M 458.114990234375 519.36 L 458.114990234375 536.64" stroke-miterlimit="10"/></g><g transform="translate(-374,-166) scale(1,1)"><path fill="none" stroke="#000000" d="M 448.92517205255683 525.84 L 467.30480841619317 525.84" stroke-miterlimit="10"/></g><g transform="translate(-374,-166) scale(1,1)"><path fill="none" stroke="#000000" d="M 458.114990234375 536.64 L 445.35135387073865 554" stroke-miterlimit="10"/></g><g transform="translate(-374,-166) scale(1,1)"><path fill="none" stroke="#000000" d="M 458.114990234375 536.64 L 470.87862659801135 554" stroke-miterlimit="10"/></g><g transform="translate(-374,-166) scale(1,1)"><g><path fill="none" stroke="none"/><text fill="#000000" stroke="none" font-family="Arial" font-size="13px" font-style="normal" font-weight="bold" text-decoration="none" x="419.825927734375" y="574.5">Administrator</text></g></g><g transform="translate(-374,-166) scale(1,1)"><path fill="#ffffff" stroke="none" d="M 1013.1097897727273 265.68 C 1013.1097897727273 260.886167936 1016.9956320976727 257 1021.7890625 257 C 1026.5824929023272 257 1030.4683352272727 260.886167936 1030.4683352272727 265.68 C 1030.4683352272727 270.473832064 1026.5824929023272 274.36 1021.7890625 274.36 C 1016.9956320976727 274.36 1013.1097897727273 270.473832064 1013.1097897727273 265.68 Z"/></g><g transform="translate(-374,-166) scale(1,1)"><path fill="none" stroke="#000000" d="M 1013.1097897727273 265.68 C 1013.1097897727273 260.886167936 1016.9956320976727 257 1021.7890625 257 C 1026.5824929023272 257 1030.4683352272727 260.886167936 1030.4683352272727 265.68 C 1030.4683352272727 270.473832064 1026.5824929023272 274.36 1021.7890625 274.36 C 1016.9956320976727 274.36 1013.1097897727273 270.473832064 1013.1097897727273 265.68 Z" stroke-miterlimit="10"/></g><g transform="translate(-374,-166) scale(1,1)"><path fill="none" stroke="#000000" d="M 1021.7890625 274.36 L 1021.7890625 291.64" stroke-miterlimit="10"/></g><g transform="translate(-374,-166) scale(1,1)"><path fill="none" stroke="#000000" d="M 1012.5992443181818 280.84 L 1030.9788806818183 280.84" stroke-miterlimit="10"/></g><g transform="translate(-374,-166) scale(1,1)"><path fill="none" stroke="#000000" d="M 1021.7890625 291.64 L 1009.0254261363636 309" stroke-miterlimit="10"/></g><g transform="translate(-374,-166) scale(1,1)"><path fill="none" stroke="#000000" d="M 1021.7890625 291.64 L 1034.5526988636364 309" stroke-miterlimit="10"/></g><g transform="translate(-374,-166) scale(1,1)"><g><path fill="none" stroke="none"/><text fill="#000000" stroke="none" font-family="Arial" font-size="13px" font-style="normal" font-weight="bold" text-decoration="none" x="974.457763671875" y="329.5">Senior Inspector</text></g></g><g transform="translate(-374,-166) scale(1,1)"><path fill="#ffffff" stroke="none" d="M 1010.0770749289773 506.68 C 1010.0770749289773 501.886167936 1013.9629172539227 498 1018.75634765625 498 C 1023.5497780585773 498 1027.4356203835227 501.886167936 1027.4356203835227 506.68 C 1027.4356203835227 511.473832064 1023.5497780585773 515.36 1018.75634765625 515.36 C 1013.9629172539227 515.36 1010.0770749289773 511.473832064 1010.0770749289773 506.68 Z"/></g><g transform="translate(-374,-166) scale(1,1)"><path fill="none" stroke="#000000" d="M 1010.0770749289773 506.68 C 1010.0770749289773 501.886167936 1013.9629172539227 498 1018.75634765625 498 C 1023.5497780585773 498 1027.4356203835227 501.886167936 1027.4356203835227 506.68 C 1027.4356203835227 511.473832064 1023.5497780585773 515.36 1018.75634765625 515.36 C 1013.9629172539227 515.36 1010.0770749289773 511.473832064 1010.0770749289773 506.68 Z" stroke-miterlimit="10"/></g><g transform="translate(-374,-166) scale(1,1)"><path fill="none" stroke="#000000" d="M 1018.75634765625 515.36 L 1018.75634765625 532.64" stroke-miterlimit="10"/></g><g transform="translate(-374,-166) scale(1,1)"><path fill="none" stroke="#000000" d="M 1009.5665294744318 521.84 L 1027.9461658380683 521.84" stroke-miterlimit="10"/></g><g transform="translate(-374,-166) scale(1,1)"><path fill="none" stroke="#000000" d="M 1018.75634765625 532.64 L 1005.9927112926136 550" stroke-miterlimit="10"/></g><g transform="translate(-374,-166) scale(1,1)"><path fill="none" stroke="#000000" d="M 1018.75634765625 532.64 L 1031.5199840198864 550" stroke-miterlimit="10"/></g><g transform="translate(-374,-166) scale(1,1)"><g><path fill="none" stroke="none"/><text fill="#000000" stroke="none" font-family="Arial" font-size="13px" font-style="normal" font-weight="bold" text-decoration="none" x="992.02001953125" y="570.5">Inspector</text></g></g><g transform="translate(-374,-166) scale(1,1)"><path fill="#C0C0C0" stroke="none" d="M 679 256 C 679 246.6111584 705.862912 239 739 239 C 772.137088 239 799 246.6111584 799 256 C 799 265.3888416 772.137088 273 739 273 C 705.862912 273 679 265.3888416 679 256 Z" opacity="0.2"/></g><g transform="translate(-374,-166) scale(1,1)"><path fill="#ffffff" stroke="none" d="M 672 249 C 672 239.6111584 698.862912 232 732 232 C 765.137088 232 792 239.6111584 792 249 C 792 258.3888416 765.137088 266 732 266 C 698.862912 266 672 258.3888416 672 249 Z"/></g><g transform="translate(-374,-166) scale(1,1)"><path fill="none" stroke="#000000" d="M 672 249 C 672 239.6111584 698.862912 232 732 232 C 765.137088 232 792 239.6111584 792 249 C 792 258.3888416 765.137088 266 732 266 C 698.862912 266 672 258.3888416 672 249 Z" stroke-miterlimit="10"/></g><g transform="translate(-374,-166) scale(1,1)"><g><path fill="none" stroke="none"/><text fill="#000000" stroke="none" font-family="Arial" font-size="13px" font-style="normal" font-weight="bold" text-decoration="none" x="696.95458984375" y="256">Add Answer</text></g></g><g transform="translate(-374,-166) scale(1,1)"><path fill="#C0C0C0" stroke="none" d="M 663 328 C 663 318.6111584 695.6832096 311 736 311 C 776.3167904 311 809 318.6111584 809 328 C 809 337.3888416 776.3167904 345 736 345 C 695.6832096 345 663 337.3888416 663 328 Z" opacity="0.2"/></g><g transform="translate(-374,-166) scale(1,1)"><path fill="#ffffff" stroke="none" d="M 656 321 C 656 311.6111584 688.6832096 304 729 304 C 769.3167904 304 802 311.6111584 802 321 C 802 330.3888416 769.3167904 338 729 338 C 688.6832096 338 656 330.3888416 656 321 Z"/></g><g transform="translate(-374,-166) scale(1,1)"><path fill="none" stroke="#000000" d="M 656 321 C 656 311.6111584 688.6832096 304 729 304 C 769.3167904 304 802 311.6111584 802 321 C 802 330.3888416 769.3167904 338 729 338 C 688.6832096 338 656 330.3888416 656 321 Z" stroke-miterlimit="10"/></g><g transform="translate(-374,-166) scale(1,1)"><g><path fill="none" stroke="none"/><text fill="#000000" stroke="none" font-family="Arial" font-size="13px" font-style="normal" font-weight="bold" text-decoration="none" x="684.56005859375" y="328">Update Answer</text></g></g><g transform="translate(-374,-166) scale(1,1)"><path fill="#C0C0C0" stroke="none" d="M 663 400 C 663 390.6111584 694.1162064 383 732.5 383 C 770.8837936 383 802 390.6111584 802 400 C 802 409.3888416 770.8837936 417 732.5 417 C 694.1162064 417 663 409.3888416 663 400 Z" opacity="0.2"/></g><g transform="translate(-374,-166) scale(1,1)"><path fill="#ffffff" stroke="none" d="M 656 393 C 656 383.6111584 687.1162064 376 725.5 376 C 763.8837936 376 795 383.6111584 795 393 C 795 402.3888416 763.8837936 410 725.5 410 C 687.1162064 410 656 402.3888416 656 393 Z"/></g><g transform="translate(-374,-166) scale(1,1)"><path fill="none" stroke="#000000" d="M 656 393 C 656 383.6111584 687.1162064 376 725.5 376 C 763.8837936 376 795 383.6111584 795 393 C 795 402.3888416 763.8837936 410 725.5 410 C 687.1162064 410 656 402.3888416 656 393 Z" stroke-miterlimit="10"/></g><g transform="translate(-374,-166) scale(1,1)"><g><path fill="none" stroke="none"/><text fill="#000000" stroke="none" font-family="Arial" font-size="13px" font-style="normal" font-weight="bold" text-decoration="none" x="683.23095703125" y="400">Delete Answer</text></g></g><g transform="translate(-374,-166) scale(1,1)"><path fill="#C0C0C0" stroke="none" d="M 671 488 C 671 478.6111584 699.2060576 471 734 471 C 768.7939424 471 797 478.6111584 797 488 C 797 497.3888416 768.7939424 505 734 505 C 699.2060576 505 671 497.3888416 671 488 Z" opacity="0.2"/></g><g transform="translate(-374,-166) scale(1,1)"><path fill="#ffffff" stroke="none" d="M 664 481 C 664 471.6111584 692.2060576 464 727 464 C 761.7939424 464 790 471.6111584 790 481 C 790 490.3888416 761.7939424 498 727 498 C 692.2060576 498 664 490.3888416 664 481 Z"/></g><g transform="translate(-374,-166) scale(1,1)"><path fill="none" stroke="#000000" d="M 664 481 C 664 471.6111584 692.2060576 464 727 464 C 761.7939424 464 790 471.6111584 790 481 C 790 490.3888416 761.7939424 498 727 498 C 692.2060576 498 664 490.3888416 664 481 Z" stroke-miterlimit="10"/></g><g transform="translate(-374,-166) scale(1,1)"><g><path fill="none" stroke="none"/><text fill="#000000" stroke="none" font-family="Arial" font-size="13px" font-style="normal" font-weight="bold" text-decoration="none" x="689.548828125" y="488">View Answer</text></g></g><g transform="translate(-374,-166) scale(1,1)"><path fill="none" stroke="#000000" d="M 515 255 L 671 251" stroke-miterlimit="10"/></g><g transform="translate(-374,-166) scale(1,1)"><path fill="none" stroke="#000000" d="M 660.9485651713802 255.46863042620535 L 671 251 L 660.732763395042 247.05236114901462" stroke-miterlimit="10"/></g><g transform="translate(-374,-166) scale(1,1)"><path fill="none" stroke="#000000" d="M 515 269 L 655 303" stroke-miterlimit="10"/></g><g transform="translate(-374,-166) scale(1,1)"><path fill="none" stroke="#000000" d="M 644.1309481221106 304.69225035847165 L 655 303 L 646.1178180081354 296.51102141601666" stroke-miterlimit="10"/></g><g transform="translate(-374,-166) scale(1,1)"><path fill="none" stroke="#000000" d="M 515 284 L 690 375" stroke-miterlimit="10"/></g><g transform="translate(-374,-166) scale(1,1)"><path fill="none" stroke="#000000" d="M 679.0414315841505 374.0461770210651 L 690 375 L 682.9255766575125 366.5766672645996" stroke-miterlimit="10"/></g><g transform="translate(-374,-166) scale(1,1)"><path fill="none" stroke="#000000" d="M 509 297 L 706 463" stroke-miterlimit="10"/></g><g transform="translate(-374,-166) scale(1,1)"><path fill="none" stroke="#000000" d="M 695.5159954623364 459.6704881958087 L 706 463 L 700.9410096722119 453.2323689226432" stroke-miterlimit="10"/></g><g transform="translate(-374,-166) scale(1,1)"><path fill="none" stroke="#000000" d="M 541 419 L 673 463" stroke-miterlimit="10"/></g><g transform="translate(-374,-166) scale(1,1)"><path fill="none" stroke="#000000" d="M 662.0276737030609 463.77977922099745 L 673 463 L 664.6900064950472 455.7927808450386" stroke-miterlimit="10"/></g><g transform="translate(-374,-166) scale(1,1)"><path fill="none" stroke="#000000" d="M 506 529 L 663 495" stroke-miterlimit="10"/></g><g transform="translate(-374,-166) scale(1,1)"><path fill="none" stroke="#000000" d="M 653.958526845586 501.2651227600113 L 663 495 L 652.1766022320276 493.0368238091679" stroke-miterlimit="10"/></g><g transform="translate(-374,-166) scale(1,1)"><path fill="none" stroke="#000000" d="M 965 330 L 755 463" stroke-miterlimit="10"/></g><g transform="translate(-374,-166) scale(1,1)"><path fill="none" stroke="#000000" d="M 761.3333103422374 454.00615876786185 L 755 463 L 765.837932814515 461.1187205661949" stroke-miterlimit="10"/></g><g transform="translate(-374,-166) scale(1,1)"><path fill="none" stroke="#000000" d="M 984 530 L 791 493" stroke-miterlimit="10"/></g><g transform="translate(-374,-166) scale(1,1)"><path fill="none" stroke="#000000" d="M 801.773489989638 490.77920882495255 L 791 493 L 800.1883443281937 499.04767132924314" stroke-miterlimit="10"/></g></g></svg>