<svg version="1.1" xmlns="http://www.w3.org/2000/svg" xmlns:xlink="http://www.w3.org/1999/xlink" width="771.578125" height="523"><defs/><g><g transform="translate(-46,-78) scale(1,1)"><rect fill="#C0C0C0" stroke="none" x="295" y="95" width="327" height="503" opacity="0.2"/></g><g transform="translate(-46,-78) scale(1,1)"><rect fill="#ffffff" stroke="none" x="288" y="88" width="327" height="503"/></g><g transform="translate(-46,-78) scale(1,1)"><path fill="none" stroke="#000000" d="M 288 88 L 615 88 L 615 591 L 288 591 L 288 88 Z Z" stroke-miterlimit="10"/></g><g transform="translate(-46,-78) scale(1,1)"><g><path fill="none" stroke="none"/><text fill="#000000" stroke="none" font-family="Arial" font-size="13px" font-style="normal" font-weight="bold" text-decoration="none" x="422.595947265625" y="107.5">Employee</text></g></g><g transform="translate(-46,-78) scale(1,1)"><path fill="#C0C0C0" stroke="none" d="M 380 238 C 380 228.6111584 411.340064 221 450 221 C 488.659936 221 520 228.6111584 520 238 C 520 247.3888416 488.659936 255 450 255 C 411.340064 255 380 247.3888416 380 238 Z" opacity="0.2"/></g><g transform="translate(-46,-78) scale(1,1)"><path fill="#ffffff" stroke="none" d="M 373 231 C 373 221.6111584 404.340064 214 443 214 C 481.659936 214 513 221.6111584 513 231 C 513 240.3888416 481.659936 248 443 248 C 404.340064 248 373 240.3888416 373 231 Z"/></g><g transform="translate(-46,-78) scale(1,1)"><path fill="none" stroke="#000000" d="M 373 231 C 373 221.6111584 404.340064 214 443 214 C 481.659936 214 513 221.6111584 513 231 C 513 240.3888416 481.659936 248 443 248 C 404.340064 248 373 240.3888416 373 231 Z" stroke-miterlimit="10"/></g><g transform="translate(-46,-78) scale(1,1)"><g><path fill="none" stroke="none"/><text fill="#000000" stroke="none" font-family="Arial" font-size="13px" font-style="normal" font-weight="bold" text-decoration="none" x="400.724609375" y="238">Add Employee</text></g></g><g transform="translate(-46,-78) scale(1,1)"><path fill="#C0C0C0" stroke="none" d="M 367 312 C 367 302.6111584 404.3842192 295 450.5 295 C 496.6157808 295 534 302.6111584 534 312 C 534 321.3888416 496.6157808 329 450.5 329 C 404.3842192 329 367 321.3888416 367 312 Z" opacity="0.2"/></g><g transform="translate(-46,-78) scale(1,1)"><path fill="#ffffff" stroke="none" d="M 360 305 C 360 295.6111584 397.3842192 288 443.5 288 C 489.6157808 288 527 295.6111584 527 305 C 527 314.3888416 489.6157808 322 443.5 322 C 397.3842192 322 360 314.3888416 360 305 Z"/></g><g transform="translate(-46,-78) scale(1,1)"><path fill="none" stroke="#000000" d="M 360 305 C 360 295.6111584 397.3842192 288 443.5 288 C 489.6157808 288 527 295.6111584 527 305 C 527 314.3888416 489.6157808 322 443.5 322 C 397.3842192 322 360 314.3888416 360 305 Z" stroke-miterlimit="10"/></g><g transform="translate(-46,-78) scale(1,1)"><g><path fill="none" stroke="none"/><text fill="#000000" stroke="none" font-family="Arial" font-size="13px" font-style="normal" font-weight="bold" text-decoration="none" x="391.830078125" y="312">Update Employee</text></g></g><g transform="translate(-46,-78) scale(1,1)"><path fill="#C0C0C0" stroke="none" d="M 375 384 C 375 374.6111584 410.81721600000003 367 455 367 C 499.18278399999997 367 535 374.6111584 535 384 C 535 393.3888416 499.18278399999997 401 455 401 C 410.81721600000003 401 375 393.3888416 375 384 Z" opacity="0.2"/></g><g transform="translate(-46,-78) scale(1,1)"><path fill="#ffffff" stroke="none" d="M 368 377 C 368 367.6111584 403.81721600000003 360 448 360 C 492.18278399999997 360 528 367.6111584 528 377 C 528 386.3888416 492.18278399999997 394 448 394 C 403.81721600000003 394 368 386.3888416 368 377 Z"/></g><g transform="translate(-46,-78) scale(1,1)"><path fill="none" stroke="#000000" d="M 368 377 C 368 367.6111584 403.81721600000003 360 448 360 C 492.18278399999997 360 528 367.6111584 528 377 C 528 386.3888416 492.18278399999997 394 448 394 C 403.81721600000003 394 368 386.3888416 368 377 Z" stroke-miterlimit="10"/></g><g transform="translate(-46,-78) scale(1,1)"><g><path fill="none" stroke="none"/><text fill="#000000" stroke="none" font-family="Arial" font-size="13px" font-style="normal" font-weight="bold" text-decoration="none" x="398.5009765625" y="384">Delete Employee</text></g></g><g transform="translate(-46,-78) scale(1,1)"><path fill="#C0C0C0" stroke="none" d="M 375 464 C 375 454.6111584 407.6832096 447 448 447 C 488.3167904 447 521 454.6111584 521 464 C 521 473.3888416 488.3167904 481 448 481 C 407.6832096 481 375 473.3888416 375 464 Z" opacity="0.2"/></g><g transform="translate(-46,-78) scale(1,1)"><path fill="#ffffff" stroke="none" d="M 368 457 C 368 447.6111584 400.6832096 440 441 440 C 481.3167904 440 514 447.6111584 514 457 C 514 466.3888416 481.3167904 474 441 474 C 400.6832096 474 368 466.3888416 368 457 Z"/></g><g transform="translate(-46,-78) scale(1,1)"><path fill="none" stroke="#000000" d="M 368 457 C 368 447.6111584 400.6832096 440 441 440 C 481.3167904 440 514 447.6111584 514 457 C 514 466.3888416 481.3167904 474 441 474 C 400.6832096 474 368 466.3888416 368 457 Z" stroke-miterlimit="10"/></g><g transform="translate(-46,-78) scale(1,1)"><g><path fill="none" stroke="none"/><text fill="#000000" stroke="none" font-family="Arial" font-size="13px" font-style="normal" font-weight="bold" text-decoration="none" x="396.31884765625" y="464">View Employee</text></g></g><g transform="translate(-46,-78) scale(1,1)"><path fill="#ffffff" stroke="none" d="M 124.85661594460228 97.68 C 124.85661594460228 92.886167936 128.74245826954774 89 133.535888671875 89 C 138.32931907420226 89 142.21516139914772 92.886167936 142.21516139914772 97.68 C 142.21516139914772 102.473832064 138.32931907420226 106.36 133.535888671875 106.36 C 128.74245826954774 106.36 124.85661594460228 102.473832064 124.85661594460228 97.68 Z"/></g><g transform="translate(-46,-78) scale(1,1)"><path fill="none" stroke="#000000" d="M 124.85661594460228 97.68 C 124.85661594460228 92.886167936 128.74245826954774 89 133.535888671875 89 C 138.32931907420226 89 142.21516139914772 92.886167936 142.21516139914772 97.68 C 142.21516139914772 102.473832064 138.32931907420226 106.36 133.535888671875 106.36 C 128.74245826954774 106.36 124.85661594460228 102.473832064 124.85661594460228 97.68 Z" stroke-miterlimit="10"/></g><g transform="translate(-46,-78) scale(1,1)"><path fill="none" stroke="#000000" d="M 133.535888671875 106.36 L 133.535888671875 123.64" stroke-miterlimit="10"/></g><g transform="translate(-46,-78) scale(1,1)"><path fill="none" stroke="#000000" d="M 124.34607049005683 112.84 L 142.72570685369317 112.84" stroke-miterlimit="10"/></g><g transform="translate(-46,-78) scale(1,1)"><path fill="none" stroke="#000000" d="M 133.535888671875 123.64 L 120.77225230823865 141" stroke-miterlimit="10"/></g><g transform="translate(-46,-78) scale(1,1)"><path fill="none" stroke="#000000" d="M 133.535888671875 123.64 L 146.29952503551135 141" stroke-miterlimit="10"/></g><g transform="translate(-46,-78) scale(1,1)"><g><path fill="none" stroke="none"/><text fill="#000000" stroke="none" font-family="Arial" font-size="13px" font-style="normal" font-weight="bold" text-decoration="none" x="88.7373046875" y="161.5">Centeral Admin</text></g></g><g transform="translate(-46,-78) scale(1,1)"><path fill="#ffffff" stroke="none" d="M 125.14250461647728 233.68 C 125.14250461647728 228.886167936 129.02834694142274 225 133.82177734375 225 C 138.61520774607726 225 142.50105007102272 228.886167936 142.50105007102272 233.68 C 142.50105007102272 238.47383206400002 138.61520774607726 242.36 133.82177734375 242.36 C 129.02834694142274 242.36 125.14250461647728 238.47383206400002 125.14250461647728 233.68 Z"/></g><g transform="translate(-46,-78) scale(1,1)"><path fill="none" stroke="#000000" d="M 125.14250461647728 233.68 C 125.14250461647728 228.886167936 129.02834694142274 225 133.82177734375 225 C 138.61520774607726 225 142.50105007102272 228.886167936 142.50105007102272 233.68 C 142.50105007102272 238.47383206400002 138.61520774607726 242.36 133.82177734375 242.36 C 129.02834694142274 242.36 125.14250461647728 238.47383206400002 125.14250461647728 233.68 Z" stroke-miterlimit="10"/></g><g transform="translate(-46,-78) scale(1,1)"><path fill="none" stroke="#000000" d="M 133.82177734375 242.36 L 133.82177734375 259.64" stroke-miterlimit="10"/></g><g transform="translate(-46,-78) scale(1,1)"><path fill="none" stroke="#000000" d="M 124.63195916193183 248.84 L 143.01159552556817 248.84" stroke-miterlimit="10"/></g><g transform="translate(-46,-78) scale(1,1)"><path fill="none" stroke="#000000" d="M 133.82177734375 259.64 L 121.05814098011365 277" stroke-miterlimit="10"/></g><g transform="translate(-46,-78) scale(1,1)"><path fill="none" stroke="#000000" d="M 133.82177734375 259.64 L 146.58541370738635 277" stroke-miterlimit="10"/></g><g transform="translate(-46,-78) scale(1,1)"><g><path fill="none" stroke="none"/><text fill="#000000" stroke="none" font-family="Arial" font-size="13px" font-style="normal" font-weight="bold" text-decoration="none" x="67.352294921875" y="297.5">Business Administrator</text></g></g><g transform="translate(-46,-78) scale(1,1)"><path fill="#ffffff" stroke="none" d="M 118.43571750710228 433.68 C 118.43571750710228 428.886167936 122.32155983204774 425 127.114990234375 425 C 131.90842063670226 425 135.79426296164772 428.886167936 135.79426296164772 433.68 C 135.79426296164772 438.473832064 131.90842063670226 442.36 127.114990234375 442.36 C 122.32155983204774 442.36 118.43571750710228 438.473832064 118.43571750710228 433.68 Z"/></g><g transform="translate(-46,-78) scale(1,1)"><path fill="none" stroke="#000000" d="M 118.43571750710228 433.68 C 118.43571750710228 428.886167936 122.32155983204774 425 127.114990234375 425 C 131.90842063670226 425 135.79426296164772 428.886167936 135.79426296164772 433.68 C 135.79426296164772 438.473832064 131.90842063670226 442.36 127.114990234375 442.36 C 122.32155983204774 442.36 118.43571750710228 438.473832064 118.43571750710228 433.68 Z" stroke-miterlimit="10"/></g><g transform="translate(-46,-78) scale(1,1)"><path fill="none" stroke="#000000" d="M 127.114990234375 442.36 L 127.114990234375 459.64" stroke-miterlimit="10"/></g><g transform="translate(-46,-78) scale(1,1)"><path fill="none" stroke="#000000" d="M 117.92517205255683 448.84 L 136.30480841619317 448.84" stroke-miterlimit="10"/></g><g transform="translate(-46,-78) scale(1,1)"><path fill="none" stroke="#000000" d="M 127.114990234375 459.64 L 114.35135387073865 477" stroke-miterlimit="10"/></g><g transform="translate(-46,-78) scale(1,1)"><path fill="none" stroke="#000000" d="M 127.114990234375 459.64 L 139.87862659801135 477" stroke-miterlimit="10"/></g><g transform="translate(-46,-78) scale(1,1)"><g><path fill="none" stroke="none"/><text fill="#000000" stroke="none" font-family="Arial" font-size="13px" font-style="normal" font-weight="bold" text-decoration="none" x="88.825927734375" y="497.5">Administrator</text></g></g><g transform="translate(-46,-78) scale(1,1)"><path fill="#ffffff" stroke="none" d="M 743.1097897727273 165.68 C 743.1097897727273 160.886167936 746.9956320976727 157 751.7890625 157 C 756.5824929023273 157 760.4683352272727 160.886167936 760.4683352272727 165.68 C 760.4683352272727 170.47383206400002 756.5824929023273 174.36 751.7890625 174.36 C 746.9956320976727 174.36 743.1097897727273 170.47383206400002 743.1097897727273 165.68 Z"/></g><g transform="translate(-46,-78) scale(1,1)"><path fill="none" stroke="#000000" d="M 743.1097897727273 165.68 C 743.1097897727273 160.886167936 746.9956320976727 157 751.7890625 157 C 756.5824929023273 157 760.4683352272727 160.886167936 760.4683352272727 165.68 C 760.4683352272727 170.47383206400002 756.5824929023273 174.36 751.7890625 174.36 C 746.9956320976727 174.36 743.1097897727273 170.47383206400002 743.1097897727273 165.68 Z" stroke-miterlimit="10"/></g><g transform="translate(-46,-78) scale(1,1)"><path fill="none" stroke="#000000" d="M 751.7890625 174.36 L 751.7890625 191.64" stroke-miterlimit="10"/></g><g transform="translate(-46,-78) scale(1,1)"><path fill="none" stroke="#000000" d="M 742.5992443181818 180.84 L 760.9788806818182 180.84" stroke-miterlimit="10"/></g><g transform="translate(-46,-78) scale(1,1)"><path fill="none" stroke="#000000" d="M 751.7890625 191.64 L 739.0254261363636 209" stroke-miterlimit="10"/></g><g transform="translate(-46,-78) scale(1,1)"><path fill="none" stroke="#000000" d="M 751.7890625 191.64 L 764.5526988636364 209" stroke-miterlimit="10"/></g><g transform="translate(-46,-78) scale(1,1)"><g><path fill="none" stroke="none"/><text fill="#000000" stroke="none" font-family="Arial" font-size="13px" font-style="normal" font-weight="bold" text-decoration="none" x="704.457763671875" y="229.5">Senior Inspector</text></g></g><g transform="translate(-46,-78) scale(1,1)"><path fill="#ffffff" stroke="none" d="M 740.0770749289773 406.68 C 740.0770749289773 401.886167936 743.9629172539227 398 748.75634765625 398 C 753.5497780585773 398 757.4356203835227 401.886167936 757.4356203835227 406.68 C 757.4356203835227 411.473832064 753.5497780585773 415.36 748.75634765625 415.36 C 743.9629172539227 415.36 740.0770749289773 411.473832064 740.0770749289773 406.68 Z"/></g><g transform="translate(-46,-78) scale(1,1)"><path fill="none" stroke="#000000" d="M 740.0770749289773 406.68 C 740.0770749289773 401.886167936 743.9629172539227 398 748.75634765625 398 C 753.5497780585773 398 757.4356203835227 401.886167936 757.4356203835227 406.68 C 757.4356203835227 411.473832064 753.5497780585773 415.36 748.75634765625 415.36 C 743.9629172539227 415.36 740.0770749289773 411.473832064 740.0770749289773 406.68 Z" stroke-miterlimit="10"/></g><g transform="translate(-46,-78) scale(1,1)"><path fill="none" stroke="#000000" d="M 748.75634765625 415.36 L 748.75634765625 432.64" stroke-miterlimit="10"/></g><g transform="translate(-46,-78) scale(1,1)"><path fill="none" stroke="#000000" d="M 739.5665294744318 421.84 L 757.9461658380682 421.84" stroke-miterlimit="10"/></g><g transform="translate(-46,-78) scale(1,1)"><path fill="none" stroke="#000000" d="M 748.75634765625 432.64 L 735.9927112926136 450" stroke-miterlimit="10"/></g><g transform="translate(-46,-78) scale(1,1)"><path fill="none" stroke="#000000" d="M 748.75634765625 432.64 L 761.5199840198864 450" stroke-miterlimit="10"/></g><g transform="translate(-46,-78) scale(1,1)"><g><path fill="none" stroke="none"/><text fill="#000000" stroke="none" font-family="Arial" font-size="13px" font-style="normal" font-weight="bold" text-decoration="none" x="722.02001953125" y="470.5">Inspector</text></g></g><g transform="translate(-46,-78) scale(1,1)"><path fill="none" stroke="#000000" d="M 187 145 L 389 213" stroke-miterlimit="10"/></g><g transform="translate(-46,-78) scale(1,1)"><path fill="none" stroke="#000000" d="M 378.02540813487224 213.74721709955767 L 389 213 L 380.71142939329764 205.76815394952922" stroke-miterlimit="10"/></g><g transform="translate(-46,-78) scale(1,1)"><path fill="none" stroke="#000000" d="M 175 462 L 367 458" stroke-miterlimit="10"/></g><g transform="translate(-46,-78) scale(1,1)"><path fill="none" stroke="#000000" d="M 356.92720912734103 462.42028099057944 L 367 458 L 356.75185060528014 454.0030719316576" stroke-miterlimit="10"/></g><g transform="translate(-46,-78) scale(1,1)"><path fill="none" stroke="#000000" d="M 695 215 L 493 287" stroke-miterlimit="10"/></g><g transform="translate(-46,-78) scale(1,1)"><path fill="none" stroke="#000000" d="M 501.1594325470105 279.6227606443341 L 493 287 L 503.986086059453 287.5530941097977" stroke-miterlimit="10"/></g><g transform="translate(-46,-78) scale(1,1)"><path fill="none" stroke="#000000" d="M 714 438 L 515 452" stroke-miterlimit="10"/></g><g transform="translate(-46,-78) scale(1,1)"><path fill="none" stroke="#000000" d="M 524.8422015941271 447.08766167893936 L 515 452 L 525.4330352273169 455.4859397507078" stroke-miterlimit="10"/></g><g transform="translate(-46,-78) scale(1,1)"><path fill="none" stroke="#000000" d="M 702 236 L 462 439" stroke-miterlimit="10"/></g><g transform="translate(-46,-78) scale(1,1)"><path fill="none" stroke="#000000" d="M 467.04076782343725 429.2229524011489 L 462 439 L 472.4777777674707 435.6509444532082" stroke-miterlimit="10"/></g><g transform="translate(-46,-78) scale(1,1)"><path fill="none" stroke="#000000" d="M 198 304 L 412 439" stroke-miterlimit="10"/></g><g transform="translate(-46,-78) scale(1,1)"><path fill="none" stroke="#000000" d="M 401.1587342943591 437.13802312052655 L 412 439 L 405.6506839807844 430.01745102500786" stroke-miterlimit="10"/></g><g transform="translate(-46,-78) scale(1,1)"><path fill="none" stroke="#000000" d="M 174 168 L 328 320 L 410 359" stroke-miterlimit="10"/></g><g transform="translate(-46,-78) scale(1,1)"><path fill="none" stroke="#000000" d="M 399.01444104066366 358.43653362926864 L 410 359 L 402.63046765644333 350.83360587301394" stroke-miterlimit="10"/></g><g transform="translate(-46,-78) scale(1,1)"><path fill="none" stroke="#000000" d="M 164 168 L 280 320 L 420 439" stroke-miterlimit="10"/></g><g transform="translate(-46,-78) scale(1,1)"><path fill="none" stroke="#000000" d="M 409.5303709283228 435.6255567716302 L 420 439 L 414.98294597641853 429.2107625973999" stroke-miterlimit="10"/></g><g transform="translate(-46,-78) scale(1,1)"><path fill="none" stroke="#000000" d="M 187 158 L 412 287" stroke-miterlimit="10"/></g><g transform="translate(-46,-78) scale(1,1)"><path fill="none" stroke="#000000" d="M 401.08982307132146 285.597131729302 L 412 287 L 405.27731757710836 278.2933622424644" stroke-miterlimit="10"/></g></g></svg>