<svg version="1.1" xmlns="http://www.w3.org/2000/svg" xmlns:xlink="http://www.w3.org/1999/xlink" width="643" height="107"><defs/><g><g transform="translate(-134,-126) scale(1,1)"><rect fill="#C0C0C0" stroke="none" x="151" y="151" width="135" height="79" opacity="0.2"/></g><g transform="translate(-134,-126) scale(1,1)"><rect fill="#ffffff" stroke="none" x="144" y="144" width="135" height="79"/></g><g transform="translate(-134,-126) scale(1,1)"><path fill="none" stroke="#000000" d="M 144 144 L 279 144 L 279 223 L 144 223 L 144 144 Z Z" stroke-miterlimit="10"/></g><g transform="translate(-134,-126) scale(1,1)"><g><path fill="none" stroke="none"/><text fill="#000000" stroke="none" font-family="Arial" font-size="13px" font-style="normal" font-weight="normal" text-decoration="none" x="211.5" y="161.5"></text></g></g><g transform="translate(-134,-126) scale(1,1)"><g><path fill="none" stroke="none"/><text fill="#000000" stroke="none" font-family="Arial" font-size="13px" font-style="normal" font-weight="normal" text-decoration="none" x="211.5" y="161.5"></text></g></g><g transform="translate(-134,-126) scale(1,1)"><g><path fill="none" stroke="none"/><text fill="#000000" stroke="none" font-family="Arial" font-size="13px" font-style="normal" font-weight="normal" text-decoration="none" x="211.5" y="161.5"></text></g></g><g transform="translate(-134,-126) scale(1,1)"><g><path fill="none" stroke="none"/><text fill="#000000" stroke="none" font-family="Arial" font-size="13px" font-style="normal" font-weight="normal" text-decoration="none" x="211.5" y="161.5"></text></g></g><g transform="translate(-134,-126) scale(1,1)"><g><path fill="none" stroke="none"/><text fill="#000000" stroke="none" font-family="Arial" font-size="13px" font-style="normal" font-weight="normal" text-decoration="none" x="211.5" y="161.5"></text></g></g><g transform="translate(-134,-126) scale(1,1)"><g><path fill="none" stroke="none"/><text fill="#000000" stroke="none" font-family="Arial" font-size="13px" font-style="normal" font-weight="normal" text-decoration="none" x="211.5" y="161.5"></text></g></g><g transform="translate(-134,-126) scale(1,1)"><g><path fill="none" stroke="none"/><text fill="#000000" stroke="none" font-family="Arial" font-size="13px" font-style="normal" font-weight="normal" text-decoration="none" x="168.1455078125" y="166.5">Company Data</text><text fill="#000000" stroke="none" font-family="Arial" font-size="13px" font-style="normal" font-weight="normal" text-decoration="none" x="185.496826171875" y="179.5">(Service)</text></g></g><g transform="translate(-134,-126) scale(1,1)"><g><path fill="none" stroke="none"/><text fill="#000000" stroke="none" font-family="Arial" font-size="13px" font-style="normal" font-weight="normal" text-decoration="none" x="-0.5" y="12.5"></text></g></g><g transform="translate(-134,-126) scale(1,1)"><path fill="#C0C0C0" stroke="none" d="M 393 143 L 484 143 Q 494 143 494 153 L 494 212 Q 494 222 484 222 L 393 222 Q 383 222 383 212 L 383 153 Q 383 143 393 143 Z" opacity="0.2"/></g><g transform="translate(-134,-126) scale(1,1)"><path fill="#ffffff" stroke="none" d="M 386 136 L 477 136 Q 487 136 487 146 L 487 205 Q 487 215 477 215 L 386 215 Q 376 215 376 205 L 376 146 Q 376 136 386 136 Z"/></g><g transform="translate(-134,-126) scale(1,1)"><path fill="none" stroke="#000000" d="M 386 136 L 477 136 Q 487 136 487 146 L 487 205 Q 487 215 477 215 L 386 215 Q 376 215 376 205 L 376 146 Q 376 136 386 136 Z" stroke-miterlimit="10"/></g><g transform="translate(-134,-126) scale(1,1)"><path fill="none" stroke="#000000" d="M 376 159 L 487 159" stroke-miterlimit="10"/></g><g transform="translate(-134,-126) scale(1,1)"><g><path fill="none" stroke="none"/><text fill="#000000" stroke="none" font-family="Arial" font-size="13px" font-style="normal" font-weight="normal" text-decoration="none" x="391.75732421875" y="180.5">Get new Data</text></g></g><g transform="translate(-134,-126) scale(1,1)"><g><path fill="none" stroke="none"/><text fill="#000000" stroke="none" font-family="Arial" font-size="13px" font-style="normal" font-weight="normal" text-decoration="none" x="431.5" y="153.5"></text></g></g><g transform="translate(-134,-126) scale(1,1)"><rect fill="#C0C0C0" stroke="none" x="599" y="143" width="175" height="79" opacity="0.2"/></g><g transform="translate(-134,-126) scale(1,1)"><rect fill="#ffffff" stroke="none" x="592" y="136" width="175" height="79"/></g><g transform="translate(-134,-126) scale(1,1)"><path fill="none" stroke="#000000" d="M 592 136 L 592 215" stroke-miterlimit="10"/></g><g transform="translate(-134,-126) scale(1,1)"><path fill="none" stroke="#000000" d="M 592 136 L 767 136" stroke-miterlimit="10"/></g><g transform="translate(-134,-126) scale(1,1)"><path fill="none" stroke="#000000" d="M 592 215 L 767 215" stroke-miterlimit="10"/></g><g transform="translate(-134,-126) scale(1,1)"><path fill="none" stroke="#000000" d="M 602 136 L 602 215" stroke-miterlimit="10"/></g><g transform="translate(-134,-126) scale(1,1)"><g><path fill="none" stroke="none"/><text fill="#000000" stroke="none" font-family="Arial" font-size="13px" font-style="normal" font-weight="normal" text-decoration="none" x="619.830078125" y="158.5">Companies Data store</text></g></g><g transform="translate(-134,-126) scale(1,1)"><g><path fill="none" stroke="none"/><text fill="#000000" stroke="none" font-family="Arial" font-size="13px" font-style="normal" font-weight="normal" text-decoration="none" x="596.5" y="158.5"></text></g></g><g transform="translate(-134,-126) scale(1,1)"><path fill="none" stroke="#000000" d="M 279 183 L 376 183" stroke-miterlimit="10"/></g><g transform="translate(-134,-126) scale(1,1)"><path fill="#000000" stroke="none" d="M 365.83732514237585 187.209517756016 L 376 183 L 365.83732514237585 178.790482243984"/></g><g transform="translate(-134,-126) scale(1,1)"><path fill="none" stroke="#000000" d="M 365.83732514237585 187.209517756016 L 376 183 L 365.83732514237585 178.790482243984 L 365.83732514237585 187.209517756016" stroke-miterlimit="10"/></g><g transform="translate(-134,-126) scale(1,1)"><g><path fill="none" stroke="none"/><text fill="#000000" stroke="none" font-family="Arial" font-size="13px" font-style="normal" font-weight="normal" text-decoration="none" x="295.5" y="174.5">Fetch Data</text></g></g><g transform="translate(-134,-126) scale(1,1)"><path fill="none" stroke="#000000" d="M 487 181 L 592 181" stroke-miterlimit="10"/></g><g transform="translate(-134,-126) scale(1,1)"><path fill="#000000" stroke="none" d="M 581.8373251423759 185.209517756016 L 592 181 L 581.8373251423758 176.790482243984"/></g><g transform="translate(-134,-126) scale(1,1)"><path fill="none" stroke="#000000" d="M 581.8373251423759 185.209517756016 L 592 181 L 581.8373251423758 176.790482243984 L 581.8373251423759 185.209517756016" stroke-miterlimit="10"/></g><g transform="translate(-134,-126) scale(1,1)"><g><path fill="none" stroke="none"/><text fill="#000000" stroke="none" font-family="Arial" font-size="13px" font-style="normal" font-weight="normal" text-decoration="none" x="509.5" y="172.5">Store data</text></g></g></g></svg>