<svg version="1.1" xmlns="http://www.w3.org/2000/svg" xmlns:xlink="http://www.w3.org/1999/xlink" width="713.578125" height="400"><defs/><g><g transform="translate(-299,-170) scale(1,1)"><rect fill="#C0C0C0" stroke="none" x="535" y="215" width="288" height="352" opacity="0.2"/></g><g transform="translate(-299,-170) scale(1,1)"><rect fill="#ffffff" stroke="none" x="528" y="208" width="288" height="352"/></g><g transform="translate(-299,-170) scale(1,1)"><path fill="none" stroke="#000000" d="M 528 208 L 816 208 L 816 560 L 528 560 L 528 208 Z Z" stroke-miterlimit="10"/></g><g transform="translate(-299,-170) scale(1,1)"><g><path fill="none" stroke="none"/><text fill="#000000" stroke="none" font-family="Arial" font-size="13px" font-style="normal" font-weight="bold" text-decoration="none" x="628.27734375" y="227.5">Inspection type</text></g></g><g transform="translate(-299,-170) scale(1,1)"><path fill="#C0C0C0" stroke="none" d="M 583 280 C 583 270.6111584 625.0852288 263 677 263 C 728.9147712 263 771 270.6111584 771 280 C 771 289.3888416 728.9147712 297 677 297 C 625.0852288 297 583 289.3888416 583 280 Z" opacity="0.2"/></g><g transform="translate(-299,-170) scale(1,1)"><path fill="#ffffff" stroke="none" d="M 576 273 C 576 263.6111584 618.0852288 256 670 256 C 721.9147712 256 764 263.6111584 764 273 C 764 282.3888416 721.9147712 290 670 290 C 618.0852288 290 576 282.3888416 576 273 Z"/></g><g transform="translate(-299,-170) scale(1,1)"><path fill="none" stroke="#000000" d="M 576 273 C 576 263.6111584 618.0852288 256 670 256 C 721.9147712 256 764 263.6111584 764 273 C 764 282.3888416 721.9147712 290 670 290 C 618.0852288 290 576 282.3888416 576 273 Z" stroke-miterlimit="10"/></g><g transform="translate(-299,-170) scale(1,1)"><g><path fill="none" stroke="none"/><text fill="#000000" stroke="none" font-family="Arial" font-size="13px" font-style="normal" font-weight="bold" text-decoration="none" x="612.906005859375" y="280">Add Inspection type</text></g></g><g transform="translate(-299,-170) scale(1,1)"><path fill="#C0C0C0" stroke="none" d="M 567 352 C 567 342.6111584 615.129384 335 674.5 335 C 733.870616 335 782 342.6111584 782 352 C 782 361.3888416 733.870616 369 674.5 369 C 615.129384 369 567 361.3888416 567 352 Z" opacity="0.2"/></g><g transform="translate(-299,-170) scale(1,1)"><path fill="#ffffff" stroke="none" d="M 560 345 C 560 335.6111584 608.129384 328 667.5 328 C 726.870616 328 775 335.6111584 775 345 C 775 354.3888416 726.870616 362 667.5 362 C 608.129384 362 560 354.3888416 560 345 Z"/></g><g transform="translate(-299,-170) scale(1,1)"><path fill="none" stroke="#000000" d="M 560 345 C 560 335.6111584 608.129384 328 667.5 328 C 726.870616 328 775 335.6111584 775 345 C 775 354.3888416 726.870616 362 667.5 362 C 608.129384 362 560 354.3888416 560 345 Z" stroke-miterlimit="10"/></g><g transform="translate(-299,-170) scale(1,1)"><g><path fill="none" stroke="none"/><text fill="#000000" stroke="none" font-family="Arial" font-size="13px" font-style="normal" font-weight="bold" text-decoration="none" x="601.011474609375" y="352">Update Inspection type</text></g></g><g transform="translate(-299,-170) scale(1,1)"><path fill="#C0C0C0" stroke="none" d="M 575 424 C 575 414.6111584 621.5623808 407 679 407 C 736.4376192 407 783 414.6111584 783 424 C 783 433.3888416 736.4376192 441 679 441 C 621.5623808 441 575 433.3888416 575 424 Z" opacity="0.2"/></g><g transform="translate(-299,-170) scale(1,1)"><path fill="#ffffff" stroke="none" d="M 568 417 C 568 407.6111584 614.5623808 400 672 400 C 729.4376192 400 776 407.6111584 776 417 C 776 426.3888416 729.4376192 434 672 434 C 614.5623808 434 568 426.3888416 568 417 Z"/></g><g transform="translate(-299,-170) scale(1,1)"><path fill="none" stroke="#000000" d="M 568 417 C 568 407.6111584 614.5623808 400 672 400 C 729.4376192 400 776 407.6111584 776 417 C 776 426.3888416 729.4376192 434 672 434 C 614.5623808 434 568 426.3888416 568 417 Z" stroke-miterlimit="10"/></g><g transform="translate(-299,-170) scale(1,1)"><g><path fill="none" stroke="none"/><text fill="#000000" stroke="none" font-family="Arial" font-size="13px" font-style="normal" font-weight="bold" text-decoration="none" x="607.682373046875" y="424">Delete Inspection type</text></g></g><g transform="translate(-299,-170) scale(1,1)"><path fill="#C0C0C0" stroke="none" d="M 583 496 C 583 486.6111584 626.4283743999999 479 680 479 C 733.5716256000001 479 777 486.6111584 777 496 C 777 505.3888416 733.5716256000001 513 680 513 C 626.4283743999999 513 583 505.3888416 583 496 Z" opacity="0.2"/></g><g transform="translate(-299,-170) scale(1,1)"><path fill="#ffffff" stroke="none" d="M 576 489 C 576 479.6111584 619.4283743999999 472 673 472 C 726.5716256000001 472 770 479.6111584 770 489 C 770 498.3888416 726.5716256000001 506 673 506 C 619.4283743999999 506 576 498.3888416 576 489 Z"/></g><g transform="translate(-299,-170) scale(1,1)"><path fill="none" stroke="#000000" d="M 576 489 C 576 479.6111584 619.4283743999999 472 673 472 C 726.5716256000001 472 770 479.6111584 770 489 C 770 498.3888416 726.5716256000001 506 673 506 C 619.4283743999999 506 576 498.3888416 576 489 Z" stroke-miterlimit="10"/></g><g transform="translate(-299,-170) scale(1,1)"><g><path fill="none" stroke="none"/><text fill="#000000" stroke="none" font-family="Arial" font-size="13px" font-style="normal" font-weight="bold" text-decoration="none" x="613.500244140625" y="496">View Inspection type</text></g></g><g transform="translate(-299,-170) scale(1,1)"><path fill="#ffffff" stroke="none" d="M 938.1097897727273 228.68 C 938.1097897727273 223.886167936 941.9956320976727 220 946.7890625 220 C 951.5824929023273 220 955.4683352272727 223.886167936 955.4683352272727 228.68 C 955.4683352272727 233.47383206400002 951.5824929023273 237.36 946.7890625 237.36 C 941.9956320976727 237.36 938.1097897727273 233.47383206400002 938.1097897727273 228.68 Z"/></g><g transform="translate(-299,-170) scale(1,1)"><path fill="none" stroke="#000000" d="M 938.1097897727273 228.68 C 938.1097897727273 223.886167936 941.9956320976727 220 946.7890625 220 C 951.5824929023273 220 955.4683352272727 223.886167936 955.4683352272727 228.68 C 955.4683352272727 233.47383206400002 951.5824929023273 237.36 946.7890625 237.36 C 941.9956320976727 237.36 938.1097897727273 233.47383206400002 938.1097897727273 228.68 Z" stroke-miterlimit="10"/></g><g transform="translate(-299,-170) scale(1,1)"><path fill="none" stroke="#000000" d="M 946.7890625 237.36 L 946.7890625 254.64" stroke-miterlimit="10"/></g><g transform="translate(-299,-170) scale(1,1)"><path fill="none" stroke="#000000" d="M 937.5992443181818 243.84 L 955.9788806818182 243.84" stroke-miterlimit="10"/></g><g transform="translate(-299,-170) scale(1,1)"><path fill="none" stroke="#000000" d="M 946.7890625 254.64 L 934.0254261363636 272" stroke-miterlimit="10"/></g><g transform="translate(-299,-170) scale(1,1)"><path fill="none" stroke="#000000" d="M 946.7890625 254.64 L 959.5526988636364 272" stroke-miterlimit="10"/></g><g transform="translate(-299,-170) scale(1,1)"><g><path fill="none" stroke="none"/><text fill="#000000" stroke="none" font-family="Arial" font-size="13px" font-style="normal" font-weight="bold" text-decoration="none" x="899.457763671875" y="292.5">Senior Inspector</text></g></g><g transform="translate(-299,-170) scale(1,1)"><path fill="#ffffff" stroke="none" d="M 935.0770749289773 469.68 C 935.0770749289773 464.886167936 938.9629172539227 461 943.75634765625 461 C 948.5497780585773 461 952.4356203835227 464.886167936 952.4356203835227 469.68 C 952.4356203835227 474.473832064 948.5497780585773 478.36 943.75634765625 478.36 C 938.9629172539227 478.36 935.0770749289773 474.473832064 935.0770749289773 469.68 Z"/></g><g transform="translate(-299,-170) scale(1,1)"><path fill="none" stroke="#000000" d="M 935.0770749289773 469.68 C 935.0770749289773 464.886167936 938.9629172539227 461 943.75634765625 461 C 948.5497780585773 461 952.4356203835227 464.886167936 952.4356203835227 469.68 C 952.4356203835227 474.473832064 948.5497780585773 478.36 943.75634765625 478.36 C 938.9629172539227 478.36 935.0770749289773 474.473832064 935.0770749289773 469.68 Z" stroke-miterlimit="10"/></g><g transform="translate(-299,-170) scale(1,1)"><path fill="none" stroke="#000000" d="M 943.75634765625 478.36 L 943.75634765625 495.64" stroke-miterlimit="10"/></g><g transform="translate(-299,-170) scale(1,1)"><path fill="none" stroke="#000000" d="M 934.5665294744318 484.84 L 952.9461658380682 484.84" stroke-miterlimit="10"/></g><g transform="translate(-299,-170) scale(1,1)"><path fill="none" stroke="#000000" d="M 943.75634765625 495.64 L 930.9927112926136 513" stroke-miterlimit="10"/></g><g transform="translate(-299,-170) scale(1,1)"><path fill="none" stroke="#000000" d="M 943.75634765625 495.64 L 956.5199840198864 513" stroke-miterlimit="10"/></g><g transform="translate(-299,-170) scale(1,1)"><g><path fill="none" stroke="none"/><text fill="#000000" stroke="none" font-family="Arial" font-size="13px" font-style="normal" font-weight="bold" text-decoration="none" x="917.02001953125" y="533.5">Inspector</text></g></g><g transform="translate(-299,-170) scale(1,1)"><path fill="#ffffff" stroke="none" d="M 374.43571750710225 473.68 C 374.43571750710225 468.886167936 378.32155983204774 465 383.114990234375 465 C 387.90842063670226 465 391.79426296164775 468.886167936 391.79426296164775 473.68 C 391.79426296164775 478.473832064 387.90842063670226 482.36 383.114990234375 482.36 C 378.32155983204774 482.36 374.43571750710225 478.473832064 374.43571750710225 473.68 Z"/></g><g transform="translate(-299,-170) scale(1,1)"><path fill="none" stroke="#000000" d="M 374.43571750710225 473.68 C 374.43571750710225 468.886167936 378.32155983204774 465 383.114990234375 465 C 387.90842063670226 465 391.79426296164775 468.886167936 391.79426296164775 473.68 C 391.79426296164775 478.473832064 387.90842063670226 482.36 383.114990234375 482.36 C 378.32155983204774 482.36 374.43571750710225 478.473832064 374.43571750710225 473.68 Z" stroke-miterlimit="10"/></g><g transform="translate(-299,-170) scale(1,1)"><path fill="none" stroke="#000000" d="M 383.114990234375 482.36 L 383.114990234375 499.64" stroke-miterlimit="10"/></g><g transform="translate(-299,-170) scale(1,1)"><path fill="none" stroke="#000000" d="M 373.92517205255683 488.84 L 392.30480841619317 488.84" stroke-miterlimit="10"/></g><g transform="translate(-299,-170) scale(1,1)"><path fill="none" stroke="#000000" d="M 383.114990234375 499.64 L 370.35135387073865 517" stroke-miterlimit="10"/></g><g transform="translate(-299,-170) scale(1,1)"><path fill="none" stroke="#000000" d="M 383.114990234375 499.64 L 395.87862659801135 517" stroke-miterlimit="10"/></g><g transform="translate(-299,-170) scale(1,1)"><g><path fill="none" stroke="none"/><text fill="#000000" stroke="none" font-family="Arial" font-size="13px" font-style="normal" font-weight="bold" text-decoration="none" x="344.825927734375" y="537.5">Administrator</text></g></g><g transform="translate(-299,-170) scale(1,1)"><path fill="#ffffff" stroke="none" d="M 378.14250461647725 325.68 C 378.14250461647725 320.886167936 382.02834694142274 317 386.82177734375 317 C 391.61520774607726 317 395.50105007102275 320.886167936 395.50105007102275 325.68 C 395.50105007102275 330.473832064 391.61520774607726 334.36 386.82177734375 334.36 C 382.02834694142274 334.36 378.14250461647725 330.473832064 378.14250461647725 325.68 Z"/></g><g transform="translate(-299,-170) scale(1,1)"><path fill="none" stroke="#000000" d="M 378.14250461647725 325.68 C 378.14250461647725 320.886167936 382.02834694142274 317 386.82177734375 317 C 391.61520774607726 317 395.50105007102275 320.886167936 395.50105007102275 325.68 C 395.50105007102275 330.473832064 391.61520774607726 334.36 386.82177734375 334.36 C 382.02834694142274 334.36 378.14250461647725 330.473832064 378.14250461647725 325.68 Z" stroke-miterlimit="10"/></g><g transform="translate(-299,-170) scale(1,1)"><path fill="none" stroke="#000000" d="M 386.82177734375 334.36 L 386.82177734375 351.64" stroke-miterlimit="10"/></g><g transform="translate(-299,-170) scale(1,1)"><path fill="none" stroke="#000000" d="M 377.63195916193183 340.84 L 396.01159552556817 340.84" stroke-miterlimit="10"/></g><g transform="translate(-299,-170) scale(1,1)"><path fill="none" stroke="#000000" d="M 386.82177734375 351.64 L 374.05814098011365 369" stroke-miterlimit="10"/></g><g transform="translate(-299,-170) scale(1,1)"><path fill="none" stroke="#000000" d="M 386.82177734375 351.64 L 399.58541370738635 369" stroke-miterlimit="10"/></g><g transform="translate(-299,-170) scale(1,1)"><g><path fill="none" stroke="none"/><text fill="#000000" stroke="none" font-family="Arial" font-size="13px" font-style="normal" font-weight="bold" text-decoration="none" x="320.352294921875" y="389.5">Business Administrator</text></g></g><g transform="translate(-299,-170) scale(1,1)"><path fill="#ffffff" stroke="none" d="M 379.85661594460225 189.68 C 379.85661594460225 184.886167936 383.74245826954774 181 388.535888671875 181 C 393.32931907420226 181 397.21516139914775 184.886167936 397.21516139914775 189.68 C 397.21516139914775 194.47383206400002 393.32931907420226 198.36 388.535888671875 198.36 C 383.74245826954774 198.36 379.85661594460225 194.47383206400002 379.85661594460225 189.68 Z"/></g><g transform="translate(-299,-170) scale(1,1)"><path fill="none" stroke="#000000" d="M 379.85661594460225 189.68 C 379.85661594460225 184.886167936 383.74245826954774 181 388.535888671875 181 C 393.32931907420226 181 397.21516139914775 184.886167936 397.21516139914775 189.68 C 397.21516139914775 194.47383206400002 393.32931907420226 198.36 388.535888671875 198.36 C 383.74245826954774 198.36 379.85661594460225 194.47383206400002 379.85661594460225 189.68 Z" stroke-miterlimit="10"/></g><g transform="translate(-299,-170) scale(1,1)"><path fill="none" stroke="#000000" d="M 388.535888671875 198.36 L 388.535888671875 215.64" stroke-miterlimit="10"/></g><g transform="translate(-299,-170) scale(1,1)"><path fill="none" stroke="#000000" d="M 379.34607049005683 204.84 L 397.72570685369317 204.84" stroke-miterlimit="10"/></g><g transform="translate(-299,-170) scale(1,1)"><path fill="none" stroke="#000000" d="M 388.535888671875 215.64 L 375.77225230823865 233" stroke-miterlimit="10"/></g><g transform="translate(-299,-170) scale(1,1)"><path fill="none" stroke="#000000" d="M 388.535888671875 215.64 L 401.29952503551135 233" stroke-miterlimit="10"/></g><g transform="translate(-299,-170) scale(1,1)"><g><path fill="none" stroke="none"/><text fill="#000000" stroke="none" font-family="Arial" font-size="13px" font-style="normal" font-weight="bold" text-decoration="none" x="343.7373046875" y="253.5">Centeral Admin</text></g></g><g transform="translate(-299,-170) scale(1,1)"><path fill="none" stroke="#000000" d="M 442 229 L 576 255" stroke-miterlimit="10"/></g><g transform="translate(-299,-170) scale(1,1)"><path fill="none" stroke="#000000" d="M 565.2215695020603 257.19668750647077 L 576 255 L 566.8252060723858 248.93179133633222" stroke-miterlimit="10"/></g><g transform="translate(-299,-170) scale(1,1)"><path fill="none" stroke="#000000" d="M 435 260 L 568 376 L 626 399" stroke-miterlimit="10"/></g><g transform="translate(-299,-170) scale(1,1)"><path fill="none" stroke="#000000" d="M 615.0012654988438 399.166851350242 L 626 399 L 618.1047385285558 391.34070197096827" stroke-miterlimit="10"/></g><g transform="translate(-299,-170) scale(1,1)"><path fill="none" stroke="#000000" d="M 452 396 L 536 448 L 613 471" stroke-miterlimit="10"/></g><g transform="translate(-299,-170) scale(1,1)"><path fill="none" stroke="#000000" d="M 602.0576597448132 472.12480653435136 L 613 471 L 604.4672386755441 464.0579553314697" stroke-miterlimit="10"/></g><g transform="translate(-299,-170) scale(1,1)"><path fill="none" stroke="#000000" d="M 431 501 L 575 494" stroke-miterlimit="10"/></g><g transform="translate(-299,-170) scale(1,1)"><path fill="none" stroke="#000000" d="M 565.0536992972822 498.6979891795441 L 575 494 L 564.644923318591 490.2888833321843" stroke-miterlimit="10"/></g><g transform="translate(-299,-170) scale(1,1)"><path fill="none" stroke="#000000" d="M 909 498 L 771 493" stroke-miterlimit="10"/></g><g transform="translate(-299,-170) scale(1,1)"><path fill="none" stroke="#000000" d="M 781.3084296434924 489.1612139568393 L 771 493 L 781.0035921469412 497.5747288616547" stroke-miterlimit="10"/></g><g transform="translate(-299,-170) scale(1,1)"><path fill="none" stroke="#000000" d="M 898 299 L 694 471" stroke-miterlimit="10"/></g><g transform="translate(-299,-170) scale(1,1)"><path fill="none" stroke="#000000" d="M 699.0561482077345 461.2308974157591 L 694 471 L 704.4830353677971 467.6674380009495" stroke-miterlimit="10"/></g><g transform="translate(-299,-170) scale(1,1)"><path fill="none" stroke="#000000" d="M 442 243 L 627 327" stroke-miterlimit="10"/></g><g transform="translate(-299,-170) scale(1,1)"><path fill="none" stroke="#000000" d="M 616.0061795665522 326.6313371769405 L 627 327 L 619.4868790025185 318.96551103820514" stroke-miterlimit="10"/></g><g transform="translate(-299,-170) scale(1,1)"><path fill="none" stroke="#000000" d="M 426 260 L 504 344 L 552 416 L 643 471" stroke-miterlimit="10"/></g><g transform="translate(-299,-170) scale(1,1)"><path fill="none" stroke="#000000" d="M 632.1250784161521 469.3458898025949 L 643 471 L 636.4799017406042 462.14063666577425" stroke-miterlimit="10"/></g></g></svg>