<svg version="1.1" xmlns="http://www.w3.org/2000/svg" xmlns:xlink="http://www.w3.org/1999/xlink" width="739.578125" height="435"><defs/><g><g transform="translate(-72,-112) scale(1,1)"><rect fill="#C0C0C0" stroke="none" x="319" y="151" width="304" height="383" opacity="0.2"/></g><g transform="translate(-72,-112) scale(1,1)"><rect fill="#ffffff" stroke="none" x="312" y="144" width="304" height="383"/></g><g transform="translate(-72,-112) scale(1,1)"><path fill="none" stroke="#000000" d="M 312 144 L 616 144 L 616 527 L 312 527 L 312 144 Z Z" stroke-miterlimit="10"/></g><g transform="translate(-72,-112) scale(1,1)"><g><path fill="none" stroke="none"/><text fill="#000000" stroke="none" font-family="Arial" font-size="13px" font-style="normal" font-weight="bold" text-decoration="none" x="413.069580078125" y="163.5">Economic Activity</text></g></g><g transform="translate(-72,-112) scale(1,1)"><path fill="#ffffff" stroke="none" d="M 150.85661594460228 131.68 C 150.85661594460228 126.886167936 154.74245826954774 123 159.535888671875 123 C 164.32931907420226 123 168.21516139914772 126.886167936 168.21516139914772 131.68 C 168.21516139914772 136.47383206400002 164.32931907420226 140.36 159.535888671875 140.36 C 154.74245826954774 140.36 150.85661594460228 136.47383206400002 150.85661594460228 131.68 Z"/></g><g transform="translate(-72,-112) scale(1,1)"><path fill="none" stroke="#000000" d="M 150.85661594460228 131.68 C 150.85661594460228 126.886167936 154.74245826954774 123 159.535888671875 123 C 164.32931907420226 123 168.21516139914772 126.886167936 168.21516139914772 131.68 C 168.21516139914772 136.47383206400002 164.32931907420226 140.36 159.535888671875 140.36 C 154.74245826954774 140.36 150.85661594460228 136.47383206400002 150.85661594460228 131.68 Z" stroke-miterlimit="10"/></g><g transform="translate(-72,-112) scale(1,1)"><path fill="none" stroke="#000000" d="M 159.535888671875 140.36 L 159.535888671875 157.64" stroke-miterlimit="10"/></g><g transform="translate(-72,-112) scale(1,1)"><path fill="none" stroke="#000000" d="M 150.34607049005683 146.84 L 168.72570685369317 146.84" stroke-miterlimit="10"/></g><g transform="translate(-72,-112) scale(1,1)"><path fill="none" stroke="#000000" d="M 159.535888671875 157.64 L 146.77225230823865 175" stroke-miterlimit="10"/></g><g transform="translate(-72,-112) scale(1,1)"><path fill="none" stroke="#000000" d="M 159.535888671875 157.64 L 172.29952503551135 175" stroke-miterlimit="10"/></g><g transform="translate(-72,-112) scale(1,1)"><g><path fill="none" stroke="none"/><text fill="#000000" stroke="none" font-family="Arial" font-size="13px" font-style="normal" font-weight="bold" text-decoration="none" x="114.7373046875" y="195.5">Centeral Admin</text></g></g><g transform="translate(-72,-112) scale(1,1)"><path fill="#ffffff" stroke="none" d="M 151.14250461647728 267.68 C 151.14250461647728 262.886167936 155.02834694142274 259 159.82177734375 259 C 164.61520774607726 259 168.50105007102272 262.886167936 168.50105007102272 267.68 C 168.50105007102272 272.473832064 164.61520774607726 276.36 159.82177734375 276.36 C 155.02834694142274 276.36 151.14250461647728 272.473832064 151.14250461647728 267.68 Z"/></g><g transform="translate(-72,-112) scale(1,1)"><path fill="none" stroke="#000000" d="M 151.14250461647728 267.68 C 151.14250461647728 262.886167936 155.02834694142274 259 159.82177734375 259 C 164.61520774607726 259 168.50105007102272 262.886167936 168.50105007102272 267.68 C 168.50105007102272 272.473832064 164.61520774607726 276.36 159.82177734375 276.36 C 155.02834694142274 276.36 151.14250461647728 272.473832064 151.14250461647728 267.68 Z" stroke-miterlimit="10"/></g><g transform="translate(-72,-112) scale(1,1)"><path fill="none" stroke="#000000" d="M 159.82177734375 276.36 L 159.82177734375 293.64" stroke-miterlimit="10"/></g><g transform="translate(-72,-112) scale(1,1)"><path fill="none" stroke="#000000" d="M 150.63195916193183 282.84 L 169.01159552556817 282.84" stroke-miterlimit="10"/></g><g transform="translate(-72,-112) scale(1,1)"><path fill="none" stroke="#000000" d="M 159.82177734375 293.64 L 147.05814098011365 311" stroke-miterlimit="10"/></g><g transform="translate(-72,-112) scale(1,1)"><path fill="none" stroke="#000000" d="M 159.82177734375 293.64 L 172.58541370738635 311" stroke-miterlimit="10"/></g><g transform="translate(-72,-112) scale(1,1)"><g><path fill="none" stroke="none"/><text fill="#000000" stroke="none" font-family="Arial" font-size="13px" font-style="normal" font-weight="bold" text-decoration="none" x="93.352294921875" y="331.5">Business Administrator</text></g></g><g transform="translate(-72,-112) scale(1,1)"><path fill="#ffffff" stroke="none" d="M 144.43571750710228 467.68 C 144.43571750710228 462.886167936 148.32155983204774 459 153.114990234375 459 C 157.90842063670226 459 161.79426296164772 462.886167936 161.79426296164772 467.68 C 161.79426296164772 472.473832064 157.90842063670226 476.36 153.114990234375 476.36 C 148.32155983204774 476.36 144.43571750710228 472.473832064 144.43571750710228 467.68 Z"/></g><g transform="translate(-72,-112) scale(1,1)"><path fill="none" stroke="#000000" d="M 144.43571750710228 467.68 C 144.43571750710228 462.886167936 148.32155983204774 459 153.114990234375 459 C 157.90842063670226 459 161.79426296164772 462.886167936 161.79426296164772 467.68 C 161.79426296164772 472.473832064 157.90842063670226 476.36 153.114990234375 476.36 C 148.32155983204774 476.36 144.43571750710228 472.473832064 144.43571750710228 467.68 Z" stroke-miterlimit="10"/></g><g transform="translate(-72,-112) scale(1,1)"><path fill="none" stroke="#000000" d="M 153.114990234375 476.36 L 153.114990234375 493.64" stroke-miterlimit="10"/></g><g transform="translate(-72,-112) scale(1,1)"><path fill="none" stroke="#000000" d="M 143.92517205255683 482.84 L 162.30480841619317 482.84" stroke-miterlimit="10"/></g><g transform="translate(-72,-112) scale(1,1)"><path fill="none" stroke="#000000" d="M 153.114990234375 493.64 L 140.35135387073865 511" stroke-miterlimit="10"/></g><g transform="translate(-72,-112) scale(1,1)"><path fill="none" stroke="#000000" d="M 153.114990234375 493.64 L 165.87862659801135 511" stroke-miterlimit="10"/></g><g transform="translate(-72,-112) scale(1,1)"><g><path fill="none" stroke="none"/><text fill="#000000" stroke="none" font-family="Arial" font-size="13px" font-style="normal" font-weight="bold" text-decoration="none" x="114.825927734375" y="531.5">Administrator</text></g></g><g transform="translate(-72,-112) scale(1,1)"><path fill="#ffffff" stroke="none" d="M 737.1097897727273 186.68 C 737.1097897727273 181.886167936 740.9956320976727 178 745.7890625 178 C 750.5824929023273 178 754.4683352272727 181.886167936 754.4683352272727 186.68 C 754.4683352272727 191.47383206400002 750.5824929023273 195.36 745.7890625 195.36 C 740.9956320976727 195.36 737.1097897727273 191.47383206400002 737.1097897727273 186.68 Z"/></g><g transform="translate(-72,-112) scale(1,1)"><path fill="none" stroke="#000000" d="M 737.1097897727273 186.68 C 737.1097897727273 181.886167936 740.9956320976727 178 745.7890625 178 C 750.5824929023273 178 754.4683352272727 181.886167936 754.4683352272727 186.68 C 754.4683352272727 191.47383206400002 750.5824929023273 195.36 745.7890625 195.36 C 740.9956320976727 195.36 737.1097897727273 191.47383206400002 737.1097897727273 186.68 Z" stroke-miterlimit="10"/></g><g transform="translate(-72,-112) scale(1,1)"><path fill="none" stroke="#000000" d="M 745.7890625 195.36 L 745.7890625 212.64" stroke-miterlimit="10"/></g><g transform="translate(-72,-112) scale(1,1)"><path fill="none" stroke="#000000" d="M 736.5992443181818 201.84 L 754.9788806818182 201.84" stroke-miterlimit="10"/></g><g transform="translate(-72,-112) scale(1,1)"><path fill="none" stroke="#000000" d="M 745.7890625 212.64 L 733.0254261363636 230" stroke-miterlimit="10"/></g><g transform="translate(-72,-112) scale(1,1)"><path fill="none" stroke="#000000" d="M 745.7890625 212.64 L 758.5526988636364 230" stroke-miterlimit="10"/></g><g transform="translate(-72,-112) scale(1,1)"><g><path fill="none" stroke="none"/><text fill="#000000" stroke="none" font-family="Arial" font-size="13px" font-style="normal" font-weight="bold" text-decoration="none" x="698.457763671875" y="250.5">Senior Inspector</text></g></g><g transform="translate(-72,-112) scale(1,1)"><path fill="#ffffff" stroke="none" d="M 734.0770749289773 427.68 C 734.0770749289773 422.886167936 737.9629172539227 419 742.75634765625 419 C 747.5497780585773 419 751.4356203835227 422.886167936 751.4356203835227 427.68 C 751.4356203835227 432.473832064 747.5497780585773 436.36 742.75634765625 436.36 C 737.9629172539227 436.36 734.0770749289773 432.473832064 734.0770749289773 427.68 Z"/></g><g transform="translate(-72,-112) scale(1,1)"><path fill="none" stroke="#000000" d="M 734.0770749289773 427.68 C 734.0770749289773 422.886167936 737.9629172539227 419 742.75634765625 419 C 747.5497780585773 419 751.4356203835227 422.886167936 751.4356203835227 427.68 C 751.4356203835227 432.473832064 747.5497780585773 436.36 742.75634765625 436.36 C 737.9629172539227 436.36 734.0770749289773 432.473832064 734.0770749289773 427.68 Z" stroke-miterlimit="10"/></g><g transform="translate(-72,-112) scale(1,1)"><path fill="none" stroke="#000000" d="M 742.75634765625 436.36 L 742.75634765625 453.64" stroke-miterlimit="10"/></g><g transform="translate(-72,-112) scale(1,1)"><path fill="none" stroke="#000000" d="M 733.5665294744318 442.84 L 751.9461658380682 442.84" stroke-miterlimit="10"/></g><g transform="translate(-72,-112) scale(1,1)"><path fill="none" stroke="#000000" d="M 742.75634765625 453.64 L 729.9927112926136 471" stroke-miterlimit="10"/></g><g transform="translate(-72,-112) scale(1,1)"><path fill="none" stroke="#000000" d="M 742.75634765625 453.64 L 755.5199840198864 471" stroke-miterlimit="10"/></g><g transform="translate(-72,-112) scale(1,1)"><g><path fill="none" stroke="none"/><text fill="#000000" stroke="none" font-family="Arial" font-size="13px" font-style="normal" font-weight="bold" text-decoration="none" x="716.02001953125" y="491.5">Inspector</text></g></g><g transform="translate(-72,-112) scale(1,1)"><path fill="#C0C0C0" stroke="none" d="M 359 216 C 359 206.6111584 406.6816688 199 465.5 199 C 524.3183312 199 572 206.6111584 572 216 C 572 225.3888416 524.3183312 233 465.5 233 C 406.6816688 233 359 225.3888416 359 216 Z" opacity="0.2"/></g><g transform="translate(-72,-112) scale(1,1)"><path fill="#ffffff" stroke="none" d="M 352 209 C 352 199.6111584 399.6816688 192 458.5 192 C 517.3183312 192 565 199.6111584 565 209 C 565 218.3888416 517.3183312 226 458.5 226 C 399.6816688 226 352 218.3888416 352 209 Z"/></g><g transform="translate(-72,-112) scale(1,1)"><path fill="none" stroke="#000000" d="M 352 209 C 352 199.6111584 399.6816688 192 458.5 192 C 517.3183312 192 565 199.6111584 565 209 C 565 218.3888416 517.3183312 226 458.5 226 C 399.6816688 226 352 218.3888416 352 209 Z" stroke-miterlimit="10"/></g><g transform="translate(-72,-112) scale(1,1)"><g><path fill="none" stroke="none"/><text fill="#000000" stroke="none" font-family="Arial" font-size="13px" font-style="normal" font-weight="bold" text-decoration="none" x="394.1982421875" y="216">Add Economic Activity</text></g></g><g transform="translate(-72,-112) scale(1,1)"><path fill="#C0C0C0" stroke="none" d="M 351 280 C 351 270.6111584 404.5019664 263 470.5 263 C 536.4980336 263 590 270.6111584 590 280 C 590 289.3888416 536.4980336 297 470.5 297 C 404.5019664 297 351 289.3888416 351 280 Z" opacity="0.2"/></g><g transform="translate(-72,-112) scale(1,1)"><path fill="#ffffff" stroke="none" d="M 344 273 C 344 263.6111584 397.5019664 256 463.5 256 C 529.4980336 256 583 263.6111584 583 273 C 583 282.3888416 529.4980336 290 463.5 290 C 397.5019664 290 344 282.3888416 344 273 Z"/></g><g transform="translate(-72,-112) scale(1,1)"><path fill="none" stroke="#000000" d="M 344 273 C 344 263.6111584 397.5019664 256 463.5 256 C 529.4980336 256 583 263.6111584 583 273 C 583 282.3888416 529.4980336 290 463.5 290 C 397.5019664 290 344 282.3888416 344 273 Z" stroke-miterlimit="10"/></g><g transform="translate(-72,-112) scale(1,1)"><g><path fill="none" stroke="none"/><text fill="#000000" stroke="none" font-family="Arial" font-size="13px" font-style="normal" font-weight="bold" text-decoration="none" x="389.8037109375" y="280">Update Economic Activity</text></g></g><g transform="translate(-72,-112) scale(1,1)"><path fill="#C0C0C0" stroke="none" d="M 351 352 C 351 342.6111584 402.93496319999997 335 467 335 C 531.0650368 335 583 342.6111584 583 352 C 583 361.3888416 531.0650368 369 467 369 C 402.93496319999997 369 351 361.3888416 351 352 Z" opacity="0.2"/></g><g transform="translate(-72,-112) scale(1,1)"><path fill="#ffffff" stroke="none" d="M 344 345 C 344 335.6111584 395.93496319999997 328 460 328 C 524.0650368 328 576 335.6111584 576 345 C 576 354.3888416 524.0650368 362 460 362 C 395.93496319999997 362 344 354.3888416 344 345 Z"/></g><g transform="translate(-72,-112) scale(1,1)"><path fill="none" stroke="#000000" d="M 344 345 C 344 335.6111584 395.93496319999997 328 460 328 C 524.0650368 328 576 335.6111584 576 345 C 576 354.3888416 524.0650368 362 460 362 C 395.93496319999997 362 344 354.3888416 344 345 Z" stroke-miterlimit="10"/></g><g transform="translate(-72,-112) scale(1,1)"><g><path fill="none" stroke="none"/><text fill="#000000" stroke="none" font-family="Arial" font-size="13px" font-style="normal" font-weight="bold" text-decoration="none" x="388.474609375" y="352">Delete Economic Activity</text></g></g><g transform="translate(-72,-112) scale(1,1)"><path fill="#C0C0C0" stroke="none" d="M 359 432 C 359 422.6111584 408.02481439999997 415 468.5 415 C 528.9751856 415 578 422.6111584 578 432 C 578 441.3888416 528.9751856 449 468.5 449 C 408.02481439999997 449 359 441.3888416 359 432 Z" opacity="0.2"/></g><g transform="translate(-72,-112) scale(1,1)"><path fill="#ffffff" stroke="none" d="M 352 425 C 352 415.6111584 401.02481439999997 408 461.5 408 C 521.9751856 408 571 415.6111584 571 425 C 571 434.3888416 521.9751856 442 461.5 442 C 401.02481439999997 442 352 434.3888416 352 425 Z"/></g><g transform="translate(-72,-112) scale(1,1)"><path fill="none" stroke="#000000" d="M 352 425 C 352 415.6111584 401.02481439999997 408 461.5 408 C 521.9751856 408 571 415.6111584 571 425 C 571 434.3888416 521.9751856 442 461.5 442 C 401.02481439999997 442 352 434.3888416 352 425 Z" stroke-miterlimit="10"/></g><g transform="translate(-72,-112) scale(1,1)"><g><path fill="none" stroke="none"/><text fill="#000000" stroke="none" font-family="Arial" font-size="13px" font-style="normal" font-weight="bold" text-decoration="none" x="394.79248046875" y="432">View Economic Activity</text></g></g><g transform="translate(-72,-112) scale(1,1)"><path fill="none" stroke="#000000" d="M 213 170 L 351 192" stroke-miterlimit="10"/></g><g transform="translate(-72,-112) scale(1,1)"><path fill="none" stroke="#000000" d="M 340.30134188817556 194.55709104380207 L 351 192 L 341.62676988234864 186.24304271671627" stroke-miterlimit="10"/></g><g transform="translate(-72,-112) scale(1,1)"><path fill="none" stroke="#000000" d="M 213 194 L 431 327" stroke-miterlimit="10"/></g><g transform="translate(-72,-112) scale(1,1)"><path fill="none" stroke="#000000" d="M 420.1320562759429 325.3006474142406 L 431 327 L 424.5168270321828 318.11357955814805" stroke-miterlimit="10"/></g><g transform="translate(-72,-112) scale(1,1)"><path fill="none" stroke="#000000" d="M 689 227 L 552 255" stroke-miterlimit="10"/></g><g transform="translate(-72,-112) scale(1,1)"><path fill="none" stroke="#000000" d="M 561.1139336815578 248.84076199127145 L 552 255 L 562.7997632724279 257.0892853466001" stroke-miterlimit="10"/></g><g transform="translate(-72,-112) scale(1,1)"><path fill="none" stroke="#000000" d="M 708 453 L 572 438" stroke-miterlimit="10"/></g><g transform="translate(-72,-112) scale(1,1)"><path fill="none" stroke="#000000" d="M 582.562906333713 434.92998211972554 L 572 438 L 581.6399331591128 443.29827223610084" stroke-miterlimit="10"/></g><g transform="translate(-72,-112) scale(1,1)"><path fill="none" stroke="#000000" d="M 689 257 L 485 407" stroke-miterlimit="10"/></g><g transform="translate(-72,-112) scale(1,1)"><path fill="none" stroke="#000000" d="M 490.69389117049235 397.58832622013546 L 485 407 L 495.6812474100512 404.3711307059355" stroke-miterlimit="10"/></g><g transform="translate(-72,-112) scale(1,1)"><path fill="none" stroke="#000000" d="M 201 486 L 384 443" stroke-miterlimit="10"/></g><g transform="translate(-72,-112) scale(1,1)"><path fill="none" stroke="#000000" d="M 375.0696662403674 449.4225492556746 L 384 443 L 373.1438723091125 441.2267285714968" stroke-miterlimit="10"/></g><g transform="translate(-72,-112) scale(1,1)"><path fill="none" stroke="#000000" d="M 186 202 L 280 344 L 421 407" stroke-miterlimit="10"/></g><g transform="translate(-72,-112) scale(1,1)"><path fill="none" stroke="#000000" d="M 410.0041583966534 406.6975641652981 L 421 407 L 413.43862026701197 399.0109114078289" stroke-miterlimit="10"/></g><g transform="translate(-72,-112) scale(1,1)"><path fill="none" stroke="#000000" d="M 213 181 L 414 255" stroke-miterlimit="10"/></g><g transform="translate(-72,-112) scale(1,1)"><path fill="none" stroke="#000000" d="M 403.00877213204325 255.43921515758294 L 414 255 L 405.9174562246744 247.53860025732803" stroke-miterlimit="10"/></g></g></svg>