<svg version="1.1" xmlns="http://www.w3.org/2000/svg" xmlns:xlink="http://www.w3.org/1999/xlink" width="747" height="331"><defs/><g><g transform="translate(-158,-166) scale(1,1)"><rect fill="#C0C0C0" stroke="none" x="175" y="183" width="76.80000000000001" height="15" opacity="0.2"/></g><g transform="translate(-158,-166) scale(1,1)"><rect fill="#C0C0C0" stroke="none" x="175" y="197" width="192" height="290" opacity="0.2"/></g><g transform="translate(-158,-166) scale(1,1)"><rect fill="#ffffff" stroke="none" x="168" y="191" width="192" height="289"/></g><g transform="translate(-158,-166) scale(1,1)"><path fill="none" stroke="#000000" d="M 168 191 L 360 191 L 360 480 L 168 480 L 168 191 Z Z" stroke-miterlimit="10"/></g><g transform="translate(-158,-166) scale(1,1)"><rect fill="#ffffff" stroke="none" x="168" y="176" width="76.80000000000001" height="15"/></g><g transform="translate(-158,-166) scale(1,1)"><path fill="none" stroke="#000000" d="M 168 176 L 244.8 176 L 244.8 191 L 168 191 L 168 176 Z Z" stroke-miterlimit="10"/></g><g transform="translate(-158,-166) scale(1,1)"><rect fill="#ffffff" stroke="none" x="168" y="190" width="192" height="290"/></g><g transform="translate(-158,-166) scale(1,1)"><path fill="none" stroke="#000000" d="M 168 190 L 360 190 L 360 480 L 168 480 L 168 190 Z Z" stroke-miterlimit="10"/></g><g transform="translate(-158,-166) scale(1,1)"><g><path fill="none" stroke="none"/><text fill="#000000" stroke="none" font-family="Arial" font-size="13px" font-style="normal" font-weight="bold" text-decoration="none" x="215.224609375" y="210.5">Database Server</text></g></g><g transform="translate(-158,-166) scale(1,1)"><rect fill="#C0C0C0" stroke="none" x="207" y="247" width="51.19999999999999" height="15" opacity="0.2"/></g><g transform="translate(-158,-166) scale(1,1)"><rect fill="#C0C0C0" stroke="none" x="207" y="261" width="128" height="58" opacity="0.2"/></g><g transform="translate(-158,-166) scale(1,1)"><rect fill="#ffffff" stroke="none" x="200" y="255" width="128" height="57"/></g><g transform="translate(-158,-166) scale(1,1)"><path fill="none" stroke="#000000" d="M 200 255 L 328 255 L 328 312 L 200 312 L 200 255 Z Z" stroke-miterlimit="10"/></g><g transform="translate(-158,-166) scale(1,1)"><rect fill="#ffffff" stroke="none" x="200" y="240" width="51.19999999999999" height="15"/></g><g transform="translate(-158,-166) scale(1,1)"><path fill="none" stroke="#000000" d="M 200 240 L 251.2 240 L 251.2 255 L 200 255 L 200 240 Z Z" stroke-miterlimit="10"/></g><g transform="translate(-158,-166) scale(1,1)"><rect fill="#ffffff" stroke="none" x="200" y="254" width="128" height="58"/></g><g transform="translate(-158,-166) scale(1,1)"><path fill="none" stroke="#000000" d="M 200 254 L 328 254 L 328 312 L 200 312 L 200 254 Z Z" stroke-miterlimit="10"/></g><g transform="translate(-158,-166) scale(1,1)"><path fill="none" stroke="#000000" d="M 243.2 243 L 243.2 247" stroke-miterlimit="10"/></g><g transform="translate(-158,-166) scale(1,1)"><path fill="none" stroke="#000000" d="M 240.2 251 L 240.2 247 L 246.2 247" stroke-miterlimit="10"/></g><g transform="translate(-158,-166) scale(1,1)"><path fill="none" stroke="#000000" d="M 246.2 251 L 246.2 247 L 240.2 247" stroke-miterlimit="10"/></g><g transform="translate(-158,-166) scale(1,1)"><g><path fill="none" stroke="none"/><text fill="#000000" stroke="none" font-family="Arial" font-size="13px" font-style="normal" font-weight="bold" text-decoration="none" x="218.128662109375" y="274.5">MS-SQL Server</text></g></g><g transform="translate(-158,-166) scale(1,1)"><rect fill="#C0C0C0" stroke="none" x="207" y="375" width="51.19999999999999" height="15" opacity="0.2"/></g><g transform="translate(-158,-166) scale(1,1)"><rect fill="#C0C0C0" stroke="none" x="207" y="389" width="128" height="42" opacity="0.2"/></g><g transform="translate(-158,-166) scale(1,1)"><rect fill="#ffffff" stroke="none" x="200" y="383" width="128" height="41"/></g><g transform="translate(-158,-166) scale(1,1)"><path fill="none" stroke="#000000" d="M 200 383 L 328 383 L 328 424 L 200 424 L 200 383 Z Z" stroke-miterlimit="10"/></g><g transform="translate(-158,-166) scale(1,1)"><rect fill="#ffffff" stroke="none" x="200" y="368" width="51.19999999999999" height="15"/></g><g transform="translate(-158,-166) scale(1,1)"><path fill="none" stroke="#000000" d="M 200 368 L 251.2 368 L 251.2 383 L 200 383 L 200 368 Z Z" stroke-miterlimit="10"/></g><g transform="translate(-158,-166) scale(1,1)"><rect fill="#ffffff" stroke="none" x="200" y="382" width="128" height="42"/></g><g transform="translate(-158,-166) scale(1,1)"><path fill="none" stroke="#000000" d="M 200 382 L 328 382 L 328 424 L 200 424 L 200 382 Z Z" stroke-miterlimit="10"/></g><g transform="translate(-158,-166) scale(1,1)"><path fill="none" stroke="#000000" d="M 243.2 371 L 243.2 375" stroke-miterlimit="10"/></g><g transform="translate(-158,-166) scale(1,1)"><path fill="none" stroke="#000000" d="M 240.2 379 L 240.2 375 L 246.2 375" stroke-miterlimit="10"/></g><g transform="translate(-158,-166) scale(1,1)"><path fill="none" stroke="#000000" d="M 246.2 379 L 246.2 375 L 240.2 375" stroke-miterlimit="10"/></g><g transform="translate(-158,-166) scale(1,1)"><g><path fill="none" stroke="none"/><text fill="#000000" stroke="none" font-family="Arial" font-size="13px" font-style="normal" font-weight="bold" text-decoration="none" x="237.99365234375" y="402.5">LIMS DB</text></g></g><g transform="translate(-158,-166) scale(1,1)"><rect fill="#C0C0C0" stroke="none" x="479" y="183" width="73.20000000000005" height="15" opacity="0.2"/></g><g transform="translate(-158,-166) scale(1,1)"><rect fill="#C0C0C0" stroke="none" x="479" y="197" width="183" height="297" opacity="0.2"/></g><g transform="translate(-158,-166) scale(1,1)"><rect fill="#ffffff" stroke="none" x="472" y="191" width="183" height="296"/></g><g transform="translate(-158,-166) scale(1,1)"><path fill="none" stroke="#000000" d="M 472 191 L 655 191 L 655 487 L 472 487 L 472 191 Z Z" stroke-miterlimit="10"/></g><g transform="translate(-158,-166) scale(1,1)"><rect fill="#ffffff" stroke="none" x="472" y="176" width="73.20000000000005" height="15"/></g><g transform="translate(-158,-166) scale(1,1)"><path fill="none" stroke="#000000" d="M 472 176 L 545.2 176 L 545.2 191 L 472 191 L 472 176 Z Z" stroke-miterlimit="10"/></g><g transform="translate(-158,-166) scale(1,1)"><rect fill="#ffffff" stroke="none" x="472" y="190" width="183" height="297"/></g><g transform="translate(-158,-166) scale(1,1)"><path fill="none" stroke="#000000" d="M 472 190 L 655 190 L 655 487 L 472 487 L 472 190 Z Z" stroke-miterlimit="10"/></g><g transform="translate(-158,-166) scale(1,1)"><g><path fill="none" stroke="none"/><text fill="#000000" stroke="none" font-family="Arial" font-size="13px" font-style="normal" font-weight="bold" text-decoration="none" x="534.602294921875" y="210.5">IIS Server</text></g></g><g transform="translate(-158,-166) scale(1,1)"><rect fill="#C0C0C0" stroke="none" x="519" y="239" width="38" height="15" opacity="0.2"/></g><g transform="translate(-158,-166) scale(1,1)"><rect fill="#C0C0C0" stroke="none" x="519" y="253" width="95" height="42" opacity="0.2"/></g><g transform="translate(-158,-166) scale(1,1)"><rect fill="#ffffff" stroke="none" x="512" y="247" width="95" height="41"/></g><g transform="translate(-158,-166) scale(1,1)"><path fill="none" stroke="#000000" d="M 512 247 L 607 247 L 607 288 L 512 288 L 512 247 Z Z" stroke-miterlimit="10"/></g><g transform="translate(-158,-166) scale(1,1)"><rect fill="#ffffff" stroke="none" x="512" y="232" width="38" height="15"/></g><g transform="translate(-158,-166) scale(1,1)"><path fill="none" stroke="#000000" d="M 512 232 L 550 232 L 550 247 L 512 247 L 512 232 Z Z" stroke-miterlimit="10"/></g><g transform="translate(-158,-166) scale(1,1)"><rect fill="#ffffff" stroke="none" x="512" y="246" width="95" height="42"/></g><g transform="translate(-158,-166) scale(1,1)"><path fill="none" stroke="#000000" d="M 512 246 L 607 246 L 607 288 L 512 288 L 512 246 Z Z" stroke-miterlimit="10"/></g><g transform="translate(-158,-166) scale(1,1)"><path fill="none" stroke="#000000" d="M 542 235 L 542 239" stroke-miterlimit="10"/></g><g transform="translate(-158,-166) scale(1,1)"><path fill="none" stroke="#000000" d="M 539 243 L 539 239 L 545 239" stroke-miterlimit="10"/></g><g transform="translate(-158,-166) scale(1,1)"><path fill="none" stroke="#000000" d="M 545 243 L 545 239 L 539 239" stroke-miterlimit="10"/></g><g transform="translate(-158,-166) scale(1,1)"><g><path fill="none" stroke="none"/><text fill="#000000" stroke="none" font-family="Arial" font-size="13px" font-style="normal" font-weight="bold" text-decoration="none" x="519.75732421875" y="266.5">Domain Logic</text></g></g><g transform="translate(-158,-166) scale(1,1)"><rect fill="#C0C0C0" stroke="none" x="519" y="359" width="38" height="15" opacity="0.2"/></g><g transform="translate(-158,-166) scale(1,1)"><rect fill="#C0C0C0" stroke="none" x="519" y="373" width="95" height="41" opacity="0.2"/></g><g transform="translate(-158,-166) scale(1,1)"><rect fill="#ffffff" stroke="none" x="512" y="367" width="95" height="40"/></g><g transform="translate(-158,-166) scale(1,1)"><path fill="none" stroke="#000000" d="M 512 367 L 607 367 L 607 407 L 512 407 L 512 367 Z Z" stroke-miterlimit="10"/></g><g transform="translate(-158,-166) scale(1,1)"><rect fill="#ffffff" stroke="none" x="512" y="352" width="38" height="15"/></g><g transform="translate(-158,-166) scale(1,1)"><path fill="none" stroke="#000000" d="M 512 352 L 550 352 L 550 367 L 512 367 L 512 352 Z Z" stroke-miterlimit="10"/></g><g transform="translate(-158,-166) scale(1,1)"><rect fill="#ffffff" stroke="none" x="512" y="366" width="95" height="41"/></g><g transform="translate(-158,-166) scale(1,1)"><path fill="none" stroke="#000000" d="M 512 366 L 607 366 L 607 407 L 512 407 L 512 366 Z Z" stroke-miterlimit="10"/></g><g transform="translate(-158,-166) scale(1,1)"><path fill="none" stroke="#000000" d="M 542 355 L 542 359" stroke-miterlimit="10"/></g><g transform="translate(-158,-166) scale(1,1)"><path fill="none" stroke="#000000" d="M 539 363 L 539 359 L 545 359" stroke-miterlimit="10"/></g><g transform="translate(-158,-166) scale(1,1)"><path fill="none" stroke="#000000" d="M 545 363 L 545 359 L 539 359" stroke-miterlimit="10"/></g><g transform="translate(-158,-166) scale(1,1)"><g><path fill="none" stroke="none"/><text fill="#000000" stroke="none" font-family="Arial" font-size="13px" font-style="normal" font-weight="bold" text-decoration="none" x="532.049560546875" y="386.5">DB Proxy</text></g></g><g transform="translate(-158,-166) scale(1,1)"><path fill="none" stroke="#000000" d="M 559 289 L 559 351" stroke-miterlimit="10" stroke-dasharray="3"/></g><g transform="translate(-158,-166) scale(1,1)"><path fill="none" stroke="#000000" d="M 554.790482243984 340.83732514237585 L 559 351 L 563.209517756016 340.83732514237585" stroke-miterlimit="10"/></g><g transform="translate(-158,-166) scale(1,1)"><path fill="none" stroke="#000000" d="M 511 362 L 329 299" stroke-miterlimit="10" stroke-dasharray="3"/></g><g transform="translate(-158,-166) scale(1,1)"><path fill="none" stroke="#000000" d="M 339.9805639362029 298.34638264790414 L 329 299 L 337.2266084825097 306.3022539585733" stroke-miterlimit="10"/></g><g transform="translate(-158,-166) scale(1,1)"><path fill="none" stroke="#000000" d="M 264 313 L 264 367" stroke-miterlimit="10" stroke-dasharray="3"/></g><g transform="translate(-158,-166) scale(1,1)"><path fill="none" stroke="#000000" d="M 259.790482243984 356.83732514237585 L 264 367 L 268.209517756016 356.83732514237585" stroke-miterlimit="10"/></g><g transform="translate(-158,-166) scale(1,1)"><rect fill="#C0C0C0" stroke="none" x="767" y="207" width="51.200000000000045" height="15" opacity="0.2"/></g><g transform="translate(-158,-166) scale(1,1)"><rect fill="#C0C0C0" stroke="none" x="767" y="221" width="128" height="106" opacity="0.2"/></g><g transform="translate(-158,-166) scale(1,1)"><rect fill="#ffffff" stroke="none" x="760" y="215" width="128" height="105"/></g><g transform="translate(-158,-166) scale(1,1)"><path fill="none" stroke="#000000" d="M 760 215 L 888 215 L 888 320 L 760 320 L 760 215 Z Z" stroke-miterlimit="10"/></g><g transform="translate(-158,-166) scale(1,1)"><rect fill="#ffffff" stroke="none" x="760" y="200" width="51.200000000000045" height="15"/></g><g transform="translate(-158,-166) scale(1,1)"><path fill="none" stroke="#000000" d="M 760 200 L 811.2 200 L 811.2 215 L 760 215 L 760 200 Z Z" stroke-miterlimit="10"/></g><g transform="translate(-158,-166) scale(1,1)"><rect fill="#ffffff" stroke="none" x="760" y="214" width="128" height="106"/></g><g transform="translate(-158,-166) scale(1,1)"><path fill="none" stroke="#000000" d="M 760 214 L 888 214 L 888 320 L 760 320 L 760 214 Z Z" stroke-miterlimit="10"/></g><g transform="translate(-158,-166) scale(1,1)"><g><path fill="none" stroke="none"/><text fill="#000000" stroke="none" font-family="Arial" font-size="13px" font-style="normal" font-weight="bold" text-decoration="none" x="800.161376953125" y="234.5">Browser</text></g></g><g transform="translate(-158,-166) scale(1,1)"><rect fill="#C0C0C0" stroke="none" x="783" y="247" width="38" height="15" opacity="0.2"/></g><g transform="translate(-158,-166) scale(1,1)"><rect fill="#C0C0C0" stroke="none" x="783" y="261" width="95" height="41" opacity="0.2"/></g><g transform="translate(-158,-166) scale(1,1)"><rect fill="#ffffff" stroke="none" x="776" y="255" width="95" height="40"/></g><g transform="translate(-158,-166) scale(1,1)"><path fill="none" stroke="#000000" d="M 776 255 L 871 255 L 871 295 L 776 295 L 776 255 Z Z" stroke-miterlimit="10"/></g><g transform="translate(-158,-166) scale(1,1)"><rect fill="#ffffff" stroke="none" x="776" y="240" width="38" height="15"/></g><g transform="translate(-158,-166) scale(1,1)"><path fill="none" stroke="#000000" d="M 776 240 L 814 240 L 814 255 L 776 255 L 776 240 Z Z" stroke-miterlimit="10"/></g><g transform="translate(-158,-166) scale(1,1)"><rect fill="#ffffff" stroke="none" x="776" y="254" width="95" height="41"/></g><g transform="translate(-158,-166) scale(1,1)"><path fill="none" stroke="#000000" d="M 776 254 L 871 254 L 871 295 L 776 295 L 776 254 Z Z" stroke-miterlimit="10"/></g><g transform="translate(-158,-166) scale(1,1)"><path fill="none" stroke="#000000" d="M 806 243 L 806 247" stroke-miterlimit="10"/></g><g transform="translate(-158,-166) scale(1,1)"><path fill="none" stroke="#000000" d="M 803 251 L 803 247 L 809 247" stroke-miterlimit="10"/></g><g transform="translate(-158,-166) scale(1,1)"><path fill="none" stroke="#000000" d="M 809 251 L 809 247 L 803 247" stroke-miterlimit="10"/></g><g transform="translate(-158,-166) scale(1,1)"><g><path fill="none" stroke="none"/><text fill="#000000" stroke="none" font-family="Arial" font-size="13px" font-style="normal" font-weight="bold" text-decoration="none" x="811.944091796875" y="274.5">GUI</text></g></g><g transform="translate(-158,-166) scale(1,1)"><rect fill="#C0C0C0" stroke="none" x="759" y="375" width="57.200000000000045" height="15" opacity="0.2"/></g><g transform="translate(-158,-166) scale(1,1)"><rect fill="#C0C0C0" stroke="none" x="759" y="389" width="143" height="97" opacity="0.2"/></g><g transform="translate(-158,-166) scale(1,1)"><rect fill="#ffffff" stroke="none" x="752" y="383" width="143" height="96"/></g><g transform="translate(-158,-166) scale(1,1)"><path fill="none" stroke="#000000" d="M 752 383 L 895 383 L 895 479 L 752 479 L 752 383 Z Z" stroke-miterlimit="10"/></g><g transform="translate(-158,-166) scale(1,1)"><rect fill="#ffffff" stroke="none" x="752" y="368" width="57.200000000000045" height="15"/></g><g transform="translate(-158,-166) scale(1,1)"><path fill="none" stroke="#000000" d="M 752 368 L 809.2 368 L 809.2 383 L 752 383 L 752 368 Z Z" stroke-miterlimit="10"/></g><g transform="translate(-158,-166) scale(1,1)"><rect fill="#ffffff" stroke="none" x="752" y="382" width="143" height="97"/></g><g transform="translate(-158,-166) scale(1,1)"><path fill="none" stroke="#000000" d="M 752 382 L 895 382 L 895 479 L 752 479 L 752 382 Z Z" stroke-miterlimit="10"/></g><g transform="translate(-158,-166) scale(1,1)"><g><path fill="none" stroke="none"/><text fill="#000000" stroke="none" font-family="Arial" font-size="13px" font-style="normal" font-weight="bold" text-decoration="none" x="801.095947265625" y="402.5">Android</text></g></g><g transform="translate(-158,-166) scale(1,1)"><rect fill="#C0C0C0" stroke="none" x="791" y="423" width="34.236328125" height="15" opacity="0.2"/></g><g transform="translate(-158,-166) scale(1,1)"><rect fill="#C0C0C0" stroke="none" x="791" y="437" width="85.5908203125" height="25" opacity="0.2"/></g><g transform="translate(-158,-166) scale(1,1)"><rect fill="#ffffff" stroke="none" x="784" y="431" width="85.5908203125" height="24"/></g><g transform="translate(-158,-166) scale(1,1)"><path fill="none" stroke="#000000" d="M 784 431 L 869.5908203125 431 L 869.5908203125 455 L 784 455 L 784 431 Z Z" stroke-miterlimit="10"/></g><g transform="translate(-158,-166) scale(1,1)"><rect fill="#ffffff" stroke="none" x="784" y="416" width="34.236328125" height="15"/></g><g transform="translate(-158,-166) scale(1,1)"><path fill="none" stroke="#000000" d="M 784 416 L 818.236328125 416 L 818.236328125 431 L 784 431 L 784 416 Z Z" stroke-miterlimit="10"/></g><g transform="translate(-158,-166) scale(1,1)"><rect fill="#ffffff" stroke="none" x="784" y="430" width="85.5908203125" height="25"/></g><g transform="translate(-158,-166) scale(1,1)"><path fill="none" stroke="#000000" d="M 784 430 L 869.5908203125 430 L 869.5908203125 455 L 784 455 L 784 430 Z Z" stroke-miterlimit="10"/></g><g transform="translate(-158,-166) scale(1,1)"><path fill="none" stroke="#000000" d="M 810.236328125 419 L 810.236328125 423" stroke-miterlimit="10"/></g><g transform="translate(-158,-166) scale(1,1)"><path fill="none" stroke="#000000" d="M 807.236328125 427 L 807.236328125 423 L 813.236328125 423" stroke-miterlimit="10"/></g><g transform="translate(-158,-166) scale(1,1)"><path fill="none" stroke="#000000" d="M 813.236328125 427 L 813.236328125 423 L 807.236328125 423" stroke-miterlimit="10"/></g><g transform="translate(-158,-166) scale(1,1)"><g><path fill="none" stroke="none"/><text fill="#000000" stroke="none" font-family="Arial" font-size="13px" font-style="normal" font-weight="bold" text-decoration="none" x="796.812255859375" y="450.5">LIMS APP</text></g></g><g transform="translate(-158,-166) scale(1,1)"><path fill="none" stroke="#000000" d="M 751 379 L 606 289" stroke-miterlimit="10" stroke-dasharray="3"/></g><g transform="translate(-158,-166) scale(1,1)"><path fill="none" stroke="#000000" d="M 616.8545600855678 290.78284193040207 L 606 289 L 612.4146734245307 297.9359926620728" stroke-miterlimit="10"/></g><g transform="translate(-158,-166) scale(1,1)"><path fill="none" stroke="#000000" d="M 775 266 L 608 261" stroke-miterlimit="10" stroke-dasharray="3"/></g><g transform="translate(-158,-166) scale(1,1)"><path fill="none" stroke="#000000" d="M 618.2840999668953 257.09650312272396 L 608 261 L 618.0321459372544 265.51176771272964" stroke-miterlimit="10"/></g></g></svg>