<svg version="1.1" xmlns="http://www.w3.org/2000/svg" xmlns:xlink="http://www.w3.org/1999/xlink" width="713.578125" height="383"><defs/><g><g transform="translate(-293,-156) scale(1,1)"><rect fill="#C0C0C0" stroke="none" x="511" y="175" width="223" height="343" opacity="0.2"/></g><g transform="translate(-293,-156) scale(1,1)"><rect fill="#ffffff" stroke="none" x="504" y="168" width="223" height="343"/></g><g transform="translate(-293,-156) scale(1,1)"><path fill="none" stroke="#000000" d="M 504 168 L 727 168 L 727 511 L 504 511 L 504 168 Z Z" stroke-miterlimit="10"/></g><g transform="translate(-293,-156) scale(1,1)"><g><path fill="none" stroke="none"/><text fill="#000000" stroke="none" font-family="Arial" font-size="13px" font-style="normal" font-weight="bold" text-decoration="none" x="584.431396484375" y="187.5">Law article</text></g></g><g transform="translate(-293,-156) scale(1,1)"><path fill="#C0C0C0" stroke="none" d="M 551 248 C 551 238.6111584 584.3547824 231 625.5 231 C 666.6452176 231 700 238.6111584 700 248 C 700 257.3888416 666.6452176 265 625.5 265 C 584.3547824 265 551 257.3888416 551 248 Z" opacity="0.2"/></g><g transform="translate(-293,-156) scale(1,1)"><path fill="#ffffff" stroke="none" d="M 544 241 C 544 231.6111584 577.3547824 224 618.5 224 C 659.6452176 224 693 231.6111584 693 241 C 693 250.3888416 659.6452176 258 618.5 258 C 577.3547824 258 544 250.3888416 544 241 Z"/></g><g transform="translate(-293,-156) scale(1,1)"><path fill="none" stroke="#000000" d="M 544 241 C 544 231.6111584 577.3547824 224 618.5 224 C 659.6452176 224 693 231.6111584 693 241 C 693 250.3888416 659.6452176 258 618.5 258 C 577.3547824 258 544 250.3888416 544 241 Z" stroke-miterlimit="10"/></g><g transform="translate(-293,-156) scale(1,1)"><g><path fill="none" stroke="none"/><text fill="#000000" stroke="none" font-family="Arial" font-size="13px" font-style="normal" font-weight="bold" text-decoration="none" x="574.06005859375" y="248">Add Law article</text></g></g><g transform="translate(-293,-156) scale(1,1)"><path fill="#C0C0C0" stroke="none" d="M 543 312 C 543 302.6111584 582.8466528 295 632 295 C 681.1533472 295 721 302.6111584 721 312 C 721 321.3888416 681.1533472 329 632 329 C 582.8466528 329 543 321.3888416 543 312 Z" opacity="0.2"/></g><g transform="translate(-293,-156) scale(1,1)"><path fill="#ffffff" stroke="none" d="M 536 305 C 536 295.6111584 575.8466528 288 625 288 C 674.1533472 288 714 295.6111584 714 305 C 714 314.3888416 674.1533472 322 625 322 C 575.8466528 322 536 314.3888416 536 305 Z"/></g><g transform="translate(-293,-156) scale(1,1)"><path fill="none" stroke="#000000" d="M 536 305 C 536 295.6111584 575.8466528 288 625 288 C 674.1533472 288 714 295.6111584 714 305 C 714 314.3888416 674.1533472 322 625 322 C 575.8466528 322 536 314.3888416 536 305 Z" stroke-miterlimit="10"/></g><g transform="translate(-293,-156) scale(1,1)"><g><path fill="none" stroke="none"/><text fill="#000000" stroke="none" font-family="Arial" font-size="13px" font-style="normal" font-weight="bold" text-decoration="none" x="570.445068359375" y="312">Update Law Article</text></g></g><g transform="translate(-293,-156) scale(1,1)"><path fill="#C0C0C0" stroke="none" d="M 543 390.5 C 543 377.5213072 579.2649312 367 624 367 C 668.7350688 367 705 377.5213072 705 390.5 C 705 403.4786928 668.7350688 414 624 414 C 579.2649312 414 543 403.4786928 543 390.5 Z" opacity="0.2"/></g><g transform="translate(-293,-156) scale(1,1)"><path fill="#ffffff" stroke="none" d="M 536 383.5 C 536 370.5213072 572.2649312 360 617 360 C 661.7350688 360 698 370.5213072 698 383.5 C 698 396.4786928 661.7350688 407 617 407 C 572.2649312 407 536 396.4786928 536 383.5 Z"/></g><g transform="translate(-293,-156) scale(1,1)"><path fill="none" stroke="#000000" d="M 536 383.5 C 536 370.5213072 572.2649312 360 617 360 C 661.7350688 360 698 370.5213072 698 383.5 C 698 396.4786928 661.7350688 407 617 407 C 572.2649312 407 536 396.4786928 536 383.5 Z" stroke-miterlimit="10"/></g><g transform="translate(-293,-156) scale(1,1)"><g><path fill="none" stroke="none"/><text fill="#000000" stroke="none" font-family="Arial" font-size="13px" font-style="normal" font-weight="bold" text-decoration="none" x="567.50732421875" y="390.5">Delete law article</text></g></g><g transform="translate(-293,-156) scale(1,1)"><path fill="#C0C0C0" stroke="none" d="M 551 464 C 551 454.6111584 584.1309248 447 625 447 C 665.8690752 447 699 454.6111584 699 464 C 699 473.3888416 665.8690752 481 625 481 C 584.1309248 481 551 473.3888416 551 464 Z" opacity="0.2"/></g><g transform="translate(-293,-156) scale(1,1)"><path fill="#ffffff" stroke="none" d="M 544 457 C 544 447.6111584 577.1309248 440 618 440 C 658.8690752 440 692 447.6111584 692 457 C 692 466.3888416 658.8690752 474 618 474 C 577.1309248 474 544 466.3888416 544 457 Z"/></g><g transform="translate(-293,-156) scale(1,1)"><path fill="none" stroke="#000000" d="M 544 457 C 544 447.6111584 577.1309248 440 618 440 C 658.8690752 440 692 447.6111584 692 457 C 692 466.3888416 658.8690752 474 618 474 C 577.1309248 474 544 466.3888416 544 457 Z" stroke-miterlimit="10"/></g><g transform="translate(-293,-156) scale(1,1)"><g><path fill="none" stroke="none"/><text fill="#000000" stroke="none" font-family="Arial" font-size="13px" font-style="normal" font-weight="bold" text-decoration="none" x="573.3251953125" y="464">View law article</text></g></g><g transform="translate(-293,-156) scale(1,1)"><path fill="#ffffff" stroke="none" d="M 365.85661594460225 175.68 C 365.85661594460225 170.886167936 369.74245826954774 167 374.535888671875 167 C 379.32931907420226 167 383.21516139914775 170.886167936 383.21516139914775 175.68 C 383.21516139914775 180.47383206400002 379.32931907420226 184.36 374.535888671875 184.36 C 369.74245826954774 184.36 365.85661594460225 180.47383206400002 365.85661594460225 175.68 Z"/></g><g transform="translate(-293,-156) scale(1,1)"><path fill="none" stroke="#000000" d="M 365.85661594460225 175.68 C 365.85661594460225 170.886167936 369.74245826954774 167 374.535888671875 167 C 379.32931907420226 167 383.21516139914775 170.886167936 383.21516139914775 175.68 C 383.21516139914775 180.47383206400002 379.32931907420226 184.36 374.535888671875 184.36 C 369.74245826954774 184.36 365.85661594460225 180.47383206400002 365.85661594460225 175.68 Z" stroke-miterlimit="10"/></g><g transform="translate(-293,-156) scale(1,1)"><path fill="none" stroke="#000000" d="M 374.535888671875 184.36 L 374.535888671875 201.64" stroke-miterlimit="10"/></g><g transform="translate(-293,-156) scale(1,1)"><path fill="none" stroke="#000000" d="M 365.34607049005683 190.84 L 383.72570685369317 190.84" stroke-miterlimit="10"/></g><g transform="translate(-293,-156) scale(1,1)"><path fill="none" stroke="#000000" d="M 374.535888671875 201.64 L 361.77225230823865 219" stroke-miterlimit="10"/></g><g transform="translate(-293,-156) scale(1,1)"><path fill="none" stroke="#000000" d="M 374.535888671875 201.64 L 387.29952503551135 219" stroke-miterlimit="10"/></g><g transform="translate(-293,-156) scale(1,1)"><g><path fill="none" stroke="none"/><text fill="#000000" stroke="none" font-family="Arial" font-size="13px" font-style="normal" font-weight="bold" text-decoration="none" x="329.7373046875" y="239.5">Centeral Admin</text></g></g><g transform="translate(-293,-156) scale(1,1)"><path fill="#ffffff" stroke="none" d="M 372.14250461647725 311.68 C 372.14250461647725 306.886167936 376.02834694142274 303 380.82177734375 303 C 385.61520774607726 303 389.50105007102275 306.886167936 389.50105007102275 311.68 C 389.50105007102275 316.473832064 385.61520774607726 320.36 380.82177734375 320.36 C 376.02834694142274 320.36 372.14250461647725 316.473832064 372.14250461647725 311.68 Z"/></g><g transform="translate(-293,-156) scale(1,1)"><path fill="none" stroke="#000000" d="M 372.14250461647725 311.68 C 372.14250461647725 306.886167936 376.02834694142274 303 380.82177734375 303 C 385.61520774607726 303 389.50105007102275 306.886167936 389.50105007102275 311.68 C 389.50105007102275 316.473832064 385.61520774607726 320.36 380.82177734375 320.36 C 376.02834694142274 320.36 372.14250461647725 316.473832064 372.14250461647725 311.68 Z" stroke-miterlimit="10"/></g><g transform="translate(-293,-156) scale(1,1)"><path fill="none" stroke="#000000" d="M 380.82177734375 320.36 L 380.82177734375 337.64" stroke-miterlimit="10"/></g><g transform="translate(-293,-156) scale(1,1)"><path fill="none" stroke="#000000" d="M 371.63195916193183 326.84 L 390.01159552556817 326.84" stroke-miterlimit="10"/></g><g transform="translate(-293,-156) scale(1,1)"><path fill="none" stroke="#000000" d="M 380.82177734375 337.64 L 368.05814098011365 355" stroke-miterlimit="10"/></g><g transform="translate(-293,-156) scale(1,1)"><path fill="none" stroke="#000000" d="M 380.82177734375 337.64 L 393.58541370738635 355" stroke-miterlimit="10"/></g><g transform="translate(-293,-156) scale(1,1)"><g><path fill="none" stroke="none"/><text fill="#000000" stroke="none" font-family="Arial" font-size="13px" font-style="normal" font-weight="bold" text-decoration="none" x="314.352294921875" y="375.5">Business Administrator</text></g></g><g transform="translate(-293,-156) scale(1,1)"><path fill="#ffffff" stroke="none" d="M 368.43571750710225 459.68 C 368.43571750710225 454.886167936 372.32155983204774 451 377.114990234375 451 C 381.90842063670226 451 385.79426296164775 454.886167936 385.79426296164775 459.68 C 385.79426296164775 464.473832064 381.90842063670226 468.36 377.114990234375 468.36 C 372.32155983204774 468.36 368.43571750710225 464.473832064 368.43571750710225 459.68 Z"/></g><g transform="translate(-293,-156) scale(1,1)"><path fill="none" stroke="#000000" d="M 368.43571750710225 459.68 C 368.43571750710225 454.886167936 372.32155983204774 451 377.114990234375 451 C 381.90842063670226 451 385.79426296164775 454.886167936 385.79426296164775 459.68 C 385.79426296164775 464.473832064 381.90842063670226 468.36 377.114990234375 468.36 C 372.32155983204774 468.36 368.43571750710225 464.473832064 368.43571750710225 459.68 Z" stroke-miterlimit="10"/></g><g transform="translate(-293,-156) scale(1,1)"><path fill="none" stroke="#000000" d="M 377.114990234375 468.36 L 377.114990234375 485.64" stroke-miterlimit="10"/></g><g transform="translate(-293,-156) scale(1,1)"><path fill="none" stroke="#000000" d="M 367.92517205255683 474.84 L 386.30480841619317 474.84" stroke-miterlimit="10"/></g><g transform="translate(-293,-156) scale(1,1)"><path fill="none" stroke="#000000" d="M 377.114990234375 485.64 L 364.35135387073865 503" stroke-miterlimit="10"/></g><g transform="translate(-293,-156) scale(1,1)"><path fill="none" stroke="#000000" d="M 377.114990234375 485.64 L 389.87862659801135 503" stroke-miterlimit="10"/></g><g transform="translate(-293,-156) scale(1,1)"><g><path fill="none" stroke="none"/><text fill="#000000" stroke="none" font-family="Arial" font-size="13px" font-style="normal" font-weight="bold" text-decoration="none" x="338.825927734375" y="523.5">Administrator</text></g></g><g transform="translate(-293,-156) scale(1,1)"><path fill="#ffffff" stroke="none" d="M 929.0770749289773 455.68 C 929.0770749289773 450.886167936 932.9629172539227 447 937.75634765625 447 C 942.5497780585773 447 946.4356203835227 450.886167936 946.4356203835227 455.68 C 946.4356203835227 460.473832064 942.5497780585773 464.36 937.75634765625 464.36 C 932.9629172539227 464.36 929.0770749289773 460.473832064 929.0770749289773 455.68 Z"/></g><g transform="translate(-293,-156) scale(1,1)"><path fill="none" stroke="#000000" d="M 929.0770749289773 455.68 C 929.0770749289773 450.886167936 932.9629172539227 447 937.75634765625 447 C 942.5497780585773 447 946.4356203835227 450.886167936 946.4356203835227 455.68 C 946.4356203835227 460.473832064 942.5497780585773 464.36 937.75634765625 464.36 C 932.9629172539227 464.36 929.0770749289773 460.473832064 929.0770749289773 455.68 Z" stroke-miterlimit="10"/></g><g transform="translate(-293,-156) scale(1,1)"><path fill="none" stroke="#000000" d="M 937.75634765625 464.36 L 937.75634765625 481.64" stroke-miterlimit="10"/></g><g transform="translate(-293,-156) scale(1,1)"><path fill="none" stroke="#000000" d="M 928.5665294744318 470.84 L 946.9461658380682 470.84" stroke-miterlimit="10"/></g><g transform="translate(-293,-156) scale(1,1)"><path fill="none" stroke="#000000" d="M 937.75634765625 481.64 L 924.9927112926136 499" stroke-miterlimit="10"/></g><g transform="translate(-293,-156) scale(1,1)"><path fill="none" stroke="#000000" d="M 937.75634765625 481.64 L 950.5199840198864 499" stroke-miterlimit="10"/></g><g transform="translate(-293,-156) scale(1,1)"><g><path fill="none" stroke="none"/><text fill="#000000" stroke="none" font-family="Arial" font-size="13px" font-style="normal" font-weight="bold" text-decoration="none" x="911.02001953125" y="519.5">Inspector</text></g></g><g transform="translate(-293,-156) scale(1,1)"><path fill="#ffffff" stroke="none" d="M 932.1097897727273 214.68 C 932.1097897727273 209.886167936 935.9956320976727 206 940.7890625 206 C 945.5824929023273 206 949.4683352272727 209.886167936 949.4683352272727 214.68 C 949.4683352272727 219.47383206400002 945.5824929023273 223.36 940.7890625 223.36 C 935.9956320976727 223.36 932.1097897727273 219.47383206400002 932.1097897727273 214.68 Z"/></g><g transform="translate(-293,-156) scale(1,1)"><path fill="none" stroke="#000000" d="M 932.1097897727273 214.68 C 932.1097897727273 209.886167936 935.9956320976727 206 940.7890625 206 C 945.5824929023273 206 949.4683352272727 209.886167936 949.4683352272727 214.68 C 949.4683352272727 219.47383206400002 945.5824929023273 223.36 940.7890625 223.36 C 935.9956320976727 223.36 932.1097897727273 219.47383206400002 932.1097897727273 214.68 Z" stroke-miterlimit="10"/></g><g transform="translate(-293,-156) scale(1,1)"><path fill="none" stroke="#000000" d="M 940.7890625 223.36 L 940.7890625 240.64" stroke-miterlimit="10"/></g><g transform="translate(-293,-156) scale(1,1)"><path fill="none" stroke="#000000" d="M 931.5992443181818 229.84 L 949.9788806818182 229.84" stroke-miterlimit="10"/></g><g transform="translate(-293,-156) scale(1,1)"><path fill="none" stroke="#000000" d="M 940.7890625 240.64 L 928.0254261363636 258" stroke-miterlimit="10"/></g><g transform="translate(-293,-156) scale(1,1)"><path fill="none" stroke="#000000" d="M 940.7890625 240.64 L 953.5526988636364 258" stroke-miterlimit="10"/></g><g transform="translate(-293,-156) scale(1,1)"><g><path fill="none" stroke="none"/><text fill="#000000" stroke="none" font-family="Arial" font-size="13px" font-style="normal" font-weight="bold" text-decoration="none" x="893.457763671875" y="278.5">Senior Inspector</text></g></g><g transform="translate(-293,-156) scale(1,1)"><path fill="none" stroke="#000000" d="M 428 213 L 543 230" stroke-miterlimit="10"/></g><g transform="translate(-293,-156) scale(1,1)"><path fill="none" stroke="#000000" d="M 532.3309911527269 232.67810571427054 L 543 230 L 533.5621647842588 224.3495782068491" stroke-miterlimit="10"/></g><g transform="translate(-293,-156) scale(1,1)"><path fill="none" stroke="#000000" d="M 428 227 L 580 287" stroke-miterlimit="10"/></g><g transform="translate(-293,-156) scale(1,1)"><path fill="none" stroke="#000000" d="M 569.0015408711021 287.1841108089222 L 580 287 L 572.0927289658746 279.35310096883177" stroke-miterlimit="10"/></g><g transform="translate(-293,-156) scale(1,1)"><path fill="none" stroke="#000000" d="M 428 245 L 584 359" stroke-miterlimit="10"/></g><g transform="translate(-293,-156) scale(1,1)"><path fill="none" stroke="#000000" d="M 573.3110612323802 356.40258050710406 L 584 359 L 578.2784318507412 349.60512597671544" stroke-miterlimit="10"/></g><g transform="translate(-293,-156) scale(1,1)"><path fill="none" stroke="#000000" d="M 405 246 L 496 368 L 593 439" stroke-miterlimit="10"/></g><g transform="translate(-293,-156) scale(1,1)"><path fill="none" stroke="#000000" d="M 582.3130774250749 436.3942974311032 L 593 439 L 587.285714533477 429.6006946210327" stroke-miterlimit="10"/></g><g transform="translate(-293,-156) scale(1,1)"><path fill="none" stroke="#000000" d="M 441 382 L 504 424 L 556 439" stroke-miterlimit="10"/></g><g transform="translate(-293,-156) scale(1,1)"><path fill="none" stroke="#000000" d="M 545.0687495643683 440.2279103849636 L 556 439 L 547.4021749302193 432.13870245001357" stroke-miterlimit="10"/></g><g transform="translate(-293,-156) scale(1,1)"><path fill="none" stroke="#000000" d="M 425 483 L 543 467" stroke-miterlimit="10"/></g><g transform="translate(-293,-156) scale(1,1)"><path fill="none" stroke="#000000" d="M 533.4950856489845 472.5368405413069 L 543 467 L 532.3638731146929 464.1941481009063" stroke-miterlimit="10"/></g><g transform="translate(-293,-156) scale(1,1)"><path fill="none" stroke="#000000" d="M 884 281 L 645 439" stroke-miterlimit="10"/></g><g transform="translate(-293,-156) scale(1,1)"><path fill="none" stroke="#000000" d="M 651.1561812928321 429.88400132241213 L 645 439 L 655.7990620205853 436.9070930561654" stroke-miterlimit="10"/></g><g transform="translate(-293,-156) scale(1,1)"><path fill="none" stroke="#000000" d="M 903 482 L 693 464" stroke-miterlimit="10"/></g><g transform="translate(-293,-156) scale(1,1)"><path fill="none" stroke="#000000" d="M 703.4850446605765 460.67376512168556 L 693 464 L 702.7660494188128 469.0620429422621" stroke-miterlimit="10"/></g></g></svg>