<svg version="1.1" xmlns="http://www.w3.org/2000/svg" xmlns:xlink="http://www.w3.org/1999/xlink" width="713.578125" height="595"><defs/><g><g transform="translate(-283,-126) scale(1,1)"><rect fill="#C0C0C0" stroke="none" x="479" y="143" width="351" height="575" opacity="0.2"/></g><g transform="translate(-283,-126) scale(1,1)"><rect fill="#ffffff" stroke="none" x="472" y="136" width="351" height="575"/></g><g transform="translate(-283,-126) scale(1,1)"><path fill="none" stroke="#000000" d="M 472 136 L 823 136 L 823 711 L 472 711 L 472 136 Z Z" stroke-miterlimit="10"/></g><g transform="translate(-283,-126) scale(1,1)"><g><path fill="none" stroke="none"/><text fill="#000000" stroke="none" font-family="Arial" font-size="13px" font-style="normal" font-weight="bold" text-decoration="none" x="634.135009765625" y="155.5">Task</text></g></g><g transform="translate(-283,-126) scale(1,1)"><path fill="#ffffff" stroke="none" d="M 355.85661594460225 231.68 C 355.85661594460225 226.886167936 359.74245826954774 223 364.535888671875 223 C 369.32931907420226 223 373.21516139914775 226.886167936 373.21516139914775 231.68 C 373.21516139914775 236.47383206400002 369.32931907420226 240.36 364.535888671875 240.36 C 359.74245826954774 240.36 355.85661594460225 236.47383206400002 355.85661594460225 231.68 Z"/></g><g transform="translate(-283,-126) scale(1,1)"><path fill="none" stroke="#000000" d="M 355.85661594460225 231.68 C 355.85661594460225 226.886167936 359.74245826954774 223 364.535888671875 223 C 369.32931907420226 223 373.21516139914775 226.886167936 373.21516139914775 231.68 C 373.21516139914775 236.47383206400002 369.32931907420226 240.36 364.535888671875 240.36 C 359.74245826954774 240.36 355.85661594460225 236.47383206400002 355.85661594460225 231.68 Z" stroke-miterlimit="10"/></g><g transform="translate(-283,-126) scale(1,1)"><path fill="none" stroke="#000000" d="M 364.535888671875 240.36 L 364.535888671875 257.64" stroke-miterlimit="10"/></g><g transform="translate(-283,-126) scale(1,1)"><path fill="none" stroke="#000000" d="M 355.34607049005683 246.84 L 373.72570685369317 246.84" stroke-miterlimit="10"/></g><g transform="translate(-283,-126) scale(1,1)"><path fill="none" stroke="#000000" d="M 364.535888671875 257.64 L 351.77225230823865 275" stroke-miterlimit="10"/></g><g transform="translate(-283,-126) scale(1,1)"><path fill="none" stroke="#000000" d="M 364.535888671875 257.64 L 377.29952503551135 275" stroke-miterlimit="10"/></g><g transform="translate(-283,-126) scale(1,1)"><g><path fill="none" stroke="none"/><text fill="#000000" stroke="none" font-family="Arial" font-size="13px" font-style="normal" font-weight="bold" text-decoration="none" x="319.7373046875" y="295.5">Centeral Admin</text></g></g><g transform="translate(-283,-126) scale(1,1)"><path fill="#ffffff" stroke="none" d="M 362.14250461647725 367.68 C 362.14250461647725 362.886167936 366.02834694142274 359 370.82177734375 359 C 375.61520774607726 359 379.50105007102275 362.886167936 379.50105007102275 367.68 C 379.50105007102275 372.473832064 375.61520774607726 376.36 370.82177734375 376.36 C 366.02834694142274 376.36 362.14250461647725 372.473832064 362.14250461647725 367.68 Z"/></g><g transform="translate(-283,-126) scale(1,1)"><path fill="none" stroke="#000000" d="M 362.14250461647725 367.68 C 362.14250461647725 362.886167936 366.02834694142274 359 370.82177734375 359 C 375.61520774607726 359 379.50105007102275 362.886167936 379.50105007102275 367.68 C 379.50105007102275 372.473832064 375.61520774607726 376.36 370.82177734375 376.36 C 366.02834694142274 376.36 362.14250461647725 372.473832064 362.14250461647725 367.68 Z" stroke-miterlimit="10"/></g><g transform="translate(-283,-126) scale(1,1)"><path fill="none" stroke="#000000" d="M 370.82177734375 376.36 L 370.82177734375 393.64" stroke-miterlimit="10"/></g><g transform="translate(-283,-126) scale(1,1)"><path fill="none" stroke="#000000" d="M 361.63195916193183 382.84 L 380.01159552556817 382.84" stroke-miterlimit="10"/></g><g transform="translate(-283,-126) scale(1,1)"><path fill="none" stroke="#000000" d="M 370.82177734375 393.64 L 358.05814098011365 411" stroke-miterlimit="10"/></g><g transform="translate(-283,-126) scale(1,1)"><path fill="none" stroke="#000000" d="M 370.82177734375 393.64 L 383.58541370738635 411" stroke-miterlimit="10"/></g><g transform="translate(-283,-126) scale(1,1)"><g><path fill="none" stroke="none"/><text fill="#000000" stroke="none" font-family="Arial" font-size="13px" font-style="normal" font-weight="bold" text-decoration="none" x="304.352294921875" y="431.5">Business Administrator</text></g></g><g transform="translate(-283,-126) scale(1,1)"><path fill="#ffffff" stroke="none" d="M 358.43571750710225 515.6800000000001 C 358.43571750710225 510.88616793600005 362.32155983204774 507 367.114990234375 507 C 371.90842063670226 507 375.79426296164775 510.88616793600005 375.79426296164775 515.6800000000001 C 375.79426296164775 520.473832064 371.90842063670226 524.36 367.114990234375 524.36 C 362.32155983204774 524.36 358.43571750710225 520.473832064 358.43571750710225 515.6800000000001 Z"/></g><g transform="translate(-283,-126) scale(1,1)"><path fill="none" stroke="#000000" d="M 358.43571750710225 515.6800000000001 C 358.43571750710225 510.88616793600005 362.32155983204774 507 367.114990234375 507 C 371.90842063670226 507 375.79426296164775 510.88616793600005 375.79426296164775 515.6800000000001 C 375.79426296164775 520.473832064 371.90842063670226 524.36 367.114990234375 524.36 C 362.32155983204774 524.36 358.43571750710225 520.473832064 358.43571750710225 515.6800000000001 Z" stroke-miterlimit="10"/></g><g transform="translate(-283,-126) scale(1,1)"><path fill="none" stroke="#000000" d="M 367.114990234375 524.36 L 367.114990234375 541.64" stroke-miterlimit="10"/></g><g transform="translate(-283,-126) scale(1,1)"><path fill="none" stroke="#000000" d="M 357.92517205255683 530.84 L 376.30480841619317 530.84" stroke-miterlimit="10"/></g><g transform="translate(-283,-126) scale(1,1)"><path fill="none" stroke="#000000" d="M 367.114990234375 541.64 L 354.35135387073865 559" stroke-miterlimit="10"/></g><g transform="translate(-283,-126) scale(1,1)"><path fill="none" stroke="#000000" d="M 367.114990234375 541.64 L 379.87862659801135 559" stroke-miterlimit="10"/></g><g transform="translate(-283,-126) scale(1,1)"><g><path fill="none" stroke="none"/><text fill="#000000" stroke="none" font-family="Arial" font-size="13px" font-style="normal" font-weight="bold" text-decoration="none" x="328.825927734375" y="579.5">Administrator</text></g></g><g transform="translate(-283,-126) scale(1,1)"><path fill="#ffffff" stroke="none" d="M 919.0770749289773 511.68 C 919.0770749289773 506.886167936 922.9629172539227 503 927.75634765625 503 C 932.5497780585773 503 936.4356203835227 506.886167936 936.4356203835227 511.68 C 936.4356203835227 516.473832064 932.5497780585773 520.36 927.75634765625 520.36 C 922.9629172539227 520.36 919.0770749289773 516.473832064 919.0770749289773 511.68 Z"/></g><g transform="translate(-283,-126) scale(1,1)"><path fill="none" stroke="#000000" d="M 919.0770749289773 511.68 C 919.0770749289773 506.886167936 922.9629172539227 503 927.75634765625 503 C 932.5497780585773 503 936.4356203835227 506.886167936 936.4356203835227 511.68 C 936.4356203835227 516.473832064 932.5497780585773 520.36 927.75634765625 520.36 C 922.9629172539227 520.36 919.0770749289773 516.473832064 919.0770749289773 511.68 Z" stroke-miterlimit="10"/></g><g transform="translate(-283,-126) scale(1,1)"><path fill="none" stroke="#000000" d="M 927.75634765625 520.36 L 927.75634765625 537.64" stroke-miterlimit="10"/></g><g transform="translate(-283,-126) scale(1,1)"><path fill="none" stroke="#000000" d="M 918.5665294744318 526.84 L 936.9461658380682 526.84" stroke-miterlimit="10"/></g><g transform="translate(-283,-126) scale(1,1)"><path fill="none" stroke="#000000" d="M 927.75634765625 537.64 L 914.9927112926136 555" stroke-miterlimit="10"/></g><g transform="translate(-283,-126) scale(1,1)"><path fill="none" stroke="#000000" d="M 927.75634765625 537.64 L 940.5199840198864 555" stroke-miterlimit="10"/></g><g transform="translate(-283,-126) scale(1,1)"><g><path fill="none" stroke="none"/><text fill="#000000" stroke="none" font-family="Arial" font-size="13px" font-style="normal" font-weight="bold" text-decoration="none" x="901.02001953125" y="575.5">Inspector</text></g></g><g transform="translate(-283,-126) scale(1,1)"><path fill="#ffffff" stroke="none" d="M 922.1097897727273 270.68 C 922.1097897727273 265.886167936 925.9956320976727 262 930.7890625 262 C 935.5824929023273 262 939.4683352272727 265.886167936 939.4683352272727 270.68 C 939.4683352272727 275.473832064 935.5824929023273 279.36 930.7890625 279.36 C 925.9956320976727 279.36 922.1097897727273 275.473832064 922.1097897727273 270.68 Z"/></g><g transform="translate(-283,-126) scale(1,1)"><path fill="none" stroke="#000000" d="M 922.1097897727273 270.68 C 922.1097897727273 265.886167936 925.9956320976727 262 930.7890625 262 C 935.5824929023273 262 939.4683352272727 265.886167936 939.4683352272727 270.68 C 939.4683352272727 275.473832064 935.5824929023273 279.36 930.7890625 279.36 C 925.9956320976727 279.36 922.1097897727273 275.473832064 922.1097897727273 270.68 Z" stroke-miterlimit="10"/></g><g transform="translate(-283,-126) scale(1,1)"><path fill="none" stroke="#000000" d="M 930.7890625 279.36 L 930.7890625 296.64" stroke-miterlimit="10"/></g><g transform="translate(-283,-126) scale(1,1)"><path fill="none" stroke="#000000" d="M 921.5992443181818 285.84 L 939.9788806818182 285.84" stroke-miterlimit="10"/></g><g transform="translate(-283,-126) scale(1,1)"><path fill="none" stroke="#000000" d="M 930.7890625 296.64 L 918.0254261363636 314" stroke-miterlimit="10"/></g><g transform="translate(-283,-126) scale(1,1)"><path fill="none" stroke="#000000" d="M 930.7890625 296.64 L 943.5526988636364 314" stroke-miterlimit="10"/></g><g transform="translate(-283,-126) scale(1,1)"><g><path fill="none" stroke="none"/><text fill="#000000" stroke="none" font-family="Arial" font-size="13px" font-style="normal" font-weight="bold" text-decoration="none" x="883.457763671875" y="334.5">Senior Inspector</text></g></g><g transform="translate(-283,-126) scale(1,1)"><path fill="#C0C0C0" stroke="none" d="M 615 200 C 615 190.6111584 637.6096176 183 665.5 183 C 693.3903824 183 716 190.6111584 716 200 C 716 209.3888416 693.3903824 217 665.5 217 C 637.6096176 217 615 209.3888416 615 200 Z" opacity="0.2"/></g><g transform="translate(-283,-126) scale(1,1)"><path fill="#ffffff" stroke="none" d="M 608 193 C 608 183.6111584 630.6096176 176 658.5 176 C 686.3903824 176 709 183.6111584 709 193 C 709 202.3888416 686.3903824 210 658.5 210 C 630.6096176 210 608 202.3888416 608 193 Z"/></g><g transform="translate(-283,-126) scale(1,1)"><path fill="none" stroke="#000000" d="M 608 193 C 608 183.6111584 630.6096176 176 658.5 176 C 686.3903824 176 709 183.6111584 709 193 C 709 202.3888416 686.3903824 210 658.5 210 C 630.6096176 210 608 202.3888416 608 193 Z" stroke-miterlimit="10"/></g><g transform="translate(-283,-126) scale(1,1)"><g><path fill="none" stroke="none"/><text fill="#000000" stroke="none" font-family="Arial" font-size="13px" font-style="normal" font-weight="bold" text-decoration="none" x="631.763671875" y="200">Add Task</text></g></g><g transform="translate(-283,-126) scale(1,1)"><path fill="#C0C0C0" stroke="none" d="M 615 256 C 615 246.6111584 640.2959088 239 671.5 239 C 702.7040912 239 728 246.6111584 728 256 C 728 265.3888416 702.7040912 273 671.5 273 C 640.2959088 273 615 265.3888416 615 256 Z" opacity="0.2"/></g><g transform="translate(-283,-126) scale(1,1)"><path fill="#ffffff" stroke="none" d="M 608 249 C 608 239.6111584 633.2959088 232 664.5 232 C 695.7040912 232 721 239.6111584 721 249 C 721 258.3888416 695.7040912 266 664.5 266 C 633.2959088 266 608 258.3888416 608 249 Z"/></g><g transform="translate(-283,-126) scale(1,1)"><path fill="none" stroke="#000000" d="M 608 249 C 608 239.6111584 633.2959088 232 664.5 232 C 695.7040912 232 721 239.6111584 721 249 C 721 258.3888416 695.7040912 266 664.5 266 C 633.2959088 266 608 258.3888416 608 249 Z" stroke-miterlimit="10"/></g><g transform="translate(-283,-126) scale(1,1)"><g><path fill="none" stroke="none"/><text fill="#000000" stroke="none" font-family="Arial" font-size="13px" font-style="normal" font-weight="bold" text-decoration="none" x="630.5400390625" y="256">Delete Task</text></g></g><g transform="translate(-283,-126) scale(1,1)"><path fill="#C0C0C0" stroke="none" d="M 607 312 C 607 302.6111584 634.0867696 295 667.5 295 C 700.9132304 295 728 302.6111584 728 312 C 728 321.3888416 700.9132304 329 667.5 329 C 634.0867696 329 607 321.3888416 607 312 Z" opacity="0.2"/></g><g transform="translate(-283,-126) scale(1,1)"><path fill="#ffffff" stroke="none" d="M 600 305 C 600 295.6111584 627.0867696 288 660.5 288 C 693.9132304 288 721 295.6111584 721 305 C 721 314.3888416 693.9132304 322 660.5 322 C 627.0867696 322 600 314.3888416 600 305 Z"/></g><g transform="translate(-283,-126) scale(1,1)"><path fill="none" stroke="#000000" d="M 600 305 C 600 295.6111584 627.0867696 288 660.5 288 C 693.9132304 288 721 295.6111584 721 305 C 721 314.3888416 693.9132304 322 660.5 322 C 627.0867696 322 600 314.3888416 600 305 Z" stroke-miterlimit="10"/></g><g transform="translate(-283,-126) scale(1,1)"><g><path fill="none" stroke="none"/><text fill="#000000" stroke="none" font-family="Arial" font-size="13px" font-style="normal" font-weight="bold" text-decoration="none" x="624.369140625" y="312">Update Task</text></g></g><g transform="translate(-283,-126) scale(1,1)"><path fill="#C0C0C0" stroke="none" d="M 615 368 C 615 358.6111584 637.6096176 351 665.5 351 C 693.3903824 351 716 358.6111584 716 368 C 716 377.3888416 693.3903824 385 665.5 385 C 637.6096176 385 615 377.3888416 615 368 Z" opacity="0.2"/></g><g transform="translate(-283,-126) scale(1,1)"><path fill="#ffffff" stroke="none" d="M 608 361 C 608 351.6111584 630.6096176 344 658.5 344 C 686.3903824 344 709 351.6111584 709 361 C 709 370.3888416 686.3903824 378 658.5 378 C 630.6096176 378 608 370.3888416 608 361 Z"/></g><g transform="translate(-283,-126) scale(1,1)"><path fill="none" stroke="#000000" d="M 608 361 C 608 351.6111584 630.6096176 344 658.5 344 C 686.3903824 344 709 351.6111584 709 361 C 709 370.3888416 686.3903824 378 658.5 378 C 630.6096176 378 608 370.3888416 608 361 Z" stroke-miterlimit="10"/></g><g transform="translate(-283,-126) scale(1,1)"><g><path fill="none" stroke="none"/><text fill="#000000" stroke="none" font-family="Arial" font-size="13px" font-style="normal" font-weight="bold" text-decoration="none" x="629.35791015625" y="368">View Task</text></g></g><g transform="translate(-283,-126) scale(1,1)"><path fill="#C0C0C0" stroke="none" d="M 607 432 C 607 422.6111584 633.862912 415 667 415 C 700.137088 415 727 422.6111584 727 432 C 727 441.3888416 700.137088 449 667 449 C 633.862912 449 607 441.3888416 607 432 Z" opacity="0.2"/></g><g transform="translate(-283,-126) scale(1,1)"><path fill="#ffffff" stroke="none" d="M 600 425 C 600 415.6111584 626.862912 408 660 408 C 693.137088 408 720 415.6111584 720 425 C 720 434.3888416 693.137088 442 660 442 C 626.862912 442 600 434.3888416 600 425 Z"/></g><g transform="translate(-283,-126) scale(1,1)"><path fill="none" stroke="#000000" d="M 600 425 C 600 415.6111584 626.862912 408 660 408 C 693.137088 408 720 415.6111584 720 425 C 720 434.3888416 693.137088 442 660 442 C 626.862912 442 600 434.3888416 600 425 Z" stroke-miterlimit="10"/></g><g transform="translate(-283,-126) scale(1,1)"><g><path fill="none" stroke="none"/><text fill="#000000" stroke="none" font-family="Arial" font-size="13px" font-style="normal" font-weight="bold" text-decoration="none" x="624.957763671875" y="432">Accept Task</text></g></g><g transform="translate(-283,-126) scale(1,1)"><path fill="#C0C0C0" stroke="none" d="M 615 496 C 615 486.6111584 640.2959088 479 671.5 479 C 702.7040912 479 728 486.6111584 728 496 C 728 505.3888416 702.7040912 513 671.5 513 C 640.2959088 513 615 505.3888416 615 496 Z" opacity="0.2"/></g><g transform="translate(-283,-126) scale(1,1)"><path fill="#ffffff" stroke="none" d="M 608 489 C 608 479.6111584 633.2959088 472 664.5 472 C 695.7040912 472 721 479.6111584 721 489 C 721 498.3888416 695.7040912 506 664.5 506 C 633.2959088 506 608 498.3888416 608 489 Z"/></g><g transform="translate(-283,-126) scale(1,1)"><path fill="none" stroke="#000000" d="M 608 489 C 608 479.6111584 633.2959088 472 664.5 472 C 695.7040912 472 721 479.6111584 721 489 C 721 498.3888416 695.7040912 506 664.5 506 C 633.2959088 506 608 498.3888416 608 489 Z" stroke-miterlimit="10"/></g><g transform="translate(-283,-126) scale(1,1)"><g><path fill="none" stroke="none"/><text fill="#000000" stroke="none" font-family="Arial" font-size="13px" font-style="normal" font-weight="bold" text-decoration="none" x="630.905029296875" y="496">Reject Task</text></g></g><g transform="translate(-283,-126) scale(1,1)"><path fill="#C0C0C0" stroke="none" d="M 615 552 C 615 542.6111584 637.6096176 535 665.5 535 C 693.3903824 535 716 542.6111584 716 552 C 716 561.3888416 693.3903824 569 665.5 569 C 637.6096176 569 615 561.3888416 615 552 Z" opacity="0.2"/></g><g transform="translate(-283,-126) scale(1,1)"><path fill="#ffffff" stroke="none" d="M 608 545 C 608 535.6111584 630.6096176 528 658.5 528 C 686.3903824 528 709 535.6111584 709 545 C 709 554.3888416 686.3903824 562 658.5 562 C 630.6096176 562 608 554.3888416 608 545 Z"/></g><g transform="translate(-283,-126) scale(1,1)"><path fill="none" stroke="#000000" d="M 608 545 C 608 535.6111584 630.6096176 528 658.5 528 C 686.3903824 528 709 535.6111584 709 545 C 709 554.3888416 686.3903824 562 658.5 562 C 630.6096176 562 608 554.3888416 608 545 Z" stroke-miterlimit="10"/></g><g transform="translate(-283,-126) scale(1,1)"><g><path fill="none" stroke="none"/><text fill="#000000" stroke="none" font-family="Arial" font-size="13px" font-style="normal" font-weight="bold" text-decoration="none" x="629.602294921875" y="552">Start Task</text></g></g><g transform="translate(-283,-126) scale(1,1)"><path fill="#C0C0C0" stroke="none" d="M 607 616 C 607 606.6111584 629.6096176 599 657.5 599 C 685.3903824 599 708 606.6111584 708 616 C 708 625.3888416 685.3903824 633 657.5 633 C 629.6096176 633 607 625.3888416 607 616 Z" opacity="0.2"/></g><g transform="translate(-283,-126) scale(1,1)"><path fill="#ffffff" stroke="none" d="M 600 609 C 600 599.6111584 622.6096176 592 650.5 592 C 678.3903824 592 701 599.6111584 701 609 C 701 618.3888416 678.3903824 626 650.5 626 C 622.6096176 626 600 618.3888416 600 609 Z"/></g><g transform="translate(-283,-126) scale(1,1)"><path fill="none" stroke="#000000" d="M 600 609 C 600 599.6111584 622.6096176 592 650.5 592 C 678.3903824 592 701 599.6111584 701 609 C 701 618.3888416 678.3903824 626 650.5 626 C 622.6096176 626 600 618.3888416 600 609 Z" stroke-miterlimit="10"/></g><g transform="translate(-283,-126) scale(1,1)"><g><path fill="none" stroke="none"/><text fill="#000000" stroke="none" font-family="Arial" font-size="13px" font-style="normal" font-weight="bold" text-decoration="none" x="620.513671875" y="616">Save Task</text></g></g><g transform="translate(-283,-126) scale(1,1)"><path fill="none" stroke="#000000" d="M 418 248 L 607 205" stroke-miterlimit="10"/></g><g transform="translate(-283,-126) scale(1,1)"><path fill="none" stroke="#000000" d="M 598.0244137654571 211.35915495536025 L 607 205 L 596.1567005168788 203.14990369998134" stroke-miterlimit="10"/></g><g transform="translate(-283,-126) scale(1,1)"><path fill="none" stroke="#000000" d="M 418 259 L 607 251" stroke-miterlimit="10"/></g><g transform="translate(-283,-126) scale(1,1)"><path fill="none" stroke="#000000" d="M 597.024438212264 255.6355330889836 L 607 251 L 596.6683957321115 247.22402949538144" stroke-miterlimit="10"/></g><g transform="translate(-283,-126) scale(1,1)"><path fill="none" stroke="#000000" d="M 418 269 L 599 296" stroke-miterlimit="10"/></g><g transform="translate(-283,-126) scale(1,1)"><path fill="none" stroke="#000000" d="M 588.3274755794683 298.6640612780406 L 599 296 L 589.569609814664 290.33716140506203" stroke-miterlimit="10"/></g><g transform="translate(-283,-126) scale(1,1)"><path fill="none" stroke="#000000" d="M 450 372 L 603 323" stroke-miterlimit="10"/></g><g transform="translate(-283,-126) scale(1,1)"><path fill="none" stroke="#000000" d="M 594.6054673587629 330.10857381865054 L 603 323 L 592.0376482927564 322.09068979622236" stroke-miterlimit="10"/></g><g transform="translate(-283,-126) scale(1,1)"><path fill="none" stroke="#000000" d="M 449 357 L 628 267" stroke-miterlimit="10"/></g><g transform="translate(-283,-126) scale(1,1)"><path fill="none" stroke="#000000" d="M 620.8113478462534 275.3260603055968 L 628 267 L 617.0294416118388 267.80426901715015" stroke-miterlimit="10"/></g><g transform="translate(-283,-126) scale(1,1)"><path fill="none" stroke="#000000" d="M 426 357 L 633 211" stroke-miterlimit="10"/></g><g transform="translate(-283,-126) scale(1,1)"><path fill="none" stroke="#000000" d="M 627.121451197084 220.29745470393564 L 633 211 L 622.2689450089944 213.4175315468497" stroke-miterlimit="10"/></g><g transform="translate(-283,-126) scale(1,1)"><path fill="none" stroke="#000000" d="M 418 279 L 607 344" stroke-miterlimit="10"/></g><g transform="translate(-283,-126) scale(1,1)"><path fill="none" stroke="#000000" d="M 596.0207655026577 344.6755811219744 L 607 344 L 598.7588008421022 336.7142168272817" stroke-miterlimit="10"/></g><g transform="translate(-283,-126) scale(1,1)"><path fill="none" stroke="#000000" d="M 450 387 L 607 367" stroke-miterlimit="10"/></g><g transform="translate(-283,-126) scale(1,1)"><path fill="none" stroke="#000000" d="M 597.4507395562422 372.4600022872965 L 607 367 L 596.386848542261 364.1084578275438" stroke-miterlimit="10"/></g><g transform="translate(-283,-126) scale(1,1)"><path fill="none" stroke="#000000" d="M 874 313 L 710 349" stroke-miterlimit="10"/></g><g transform="translate(-283,-126) scale(1,1)"><path fill="none" stroke="#000000" d="M 719.0237838640202 342.7094257197416 L 710 349 L 720.8288864933388 350.932671031082" stroke-miterlimit="10"/></g><g transform="translate(-283,-126) scale(1,1)"><path fill="none" stroke="#000000" d="M 893 518 L 685 379" stroke-miterlimit="10"/></g><g transform="translate(-283,-126) scale(1,1)"><path fill="none" stroke="#000000" d="M 695.788503664004 381.14666920874447 L 685 379 L 691.1106997452056 388.14654845414077" stroke-miterlimit="10"/></g><g transform="translate(-283,-126) scale(1,1)"><path fill="none" stroke="#000000" d="M 415 515 L 630 379" stroke-miterlimit="10"/></g><g transform="translate(-283,-126) scale(1,1)"><path fill="none" stroke="#000000" d="M 623.6617128550046 387.99033459152577 L 630 379 L 619.1610276238623 380.87528073347005" stroke-miterlimit="10"/></g><g transform="translate(-283,-126) scale(1,1)"><path fill="none" stroke="#000000" d="M 874 326 L 699 407" stroke-miterlimit="10"/></g><g transform="translate(-283,-126) scale(1,1)"><path fill="none" stroke="#000000" d="M 706.4544784471774 398.9110723157783 L 699 407 L 709.9908478782488 406.5513766421673" stroke-miterlimit="10"/></g><g transform="translate(-283,-126) scale(1,1)"><path fill="none" stroke="#000000" d="M 876 341 L 744 440 L 693 471" stroke-miterlimit="10"/></g><g transform="translate(-283,-126) scale(1,1)"><path fill="none" stroke="#000000" d="M 699.4977407312241 462.12422592728996 L 693 471 L 703.8707165685336 469.31847649834754" stroke-miterlimit="10"/></g><g transform="translate(-283,-126) scale(1,1)"><path fill="none" stroke="#000000" d="M 891 341 L 760 480 L 686 527" stroke-miterlimit="10"/></g><g transform="translate(-283,-126) scale(1,1)"><path fill="none" stroke="#000000" d="M 692.3217486297468 517.9980283125143 L 686 527 L 696.8355065493212 525.1047961007803" stroke-miterlimit="10"/></g><g transform="translate(-283,-126) scale(1,1)"><path fill="none" stroke="#000000" d="M 900 341 L 768 520 L 674 591" stroke-miterlimit="10"/></g><g transform="translate(-283,-126) scale(1,1)"><path fill="none" stroke="#000000" d="M 679.5722571454589 581.5158052368753 L 674 591 L 684.6465192451686 588.2338423829698" stroke-miterlimit="10"/></g><g transform="translate(-283,-126) scale(1,1)"><path fill="#C0C0C0" stroke="none" d="M 607 672 C 607 662.6111584 630.0573328 655 658.5 655 C 686.9426672 655 710 662.6111584 710 672 C 710 681.3888416 686.9426672 689 658.5 689 C 630.0573328 689 607 681.3888416 607 672 Z" opacity="0.2"/></g><g transform="translate(-283,-126) scale(1,1)"><path fill="#ffffff" stroke="none" d="M 600 665 C 600 655.6111584 623.0573328 648 651.5 648 C 679.9426672 648 703 655.6111584 703 665 C 703 674.3888416 679.9426672 682 651.5 682 C 623.0573328 682 600 674.3888416 600 665 Z"/></g><g transform="translate(-283,-126) scale(1,1)"><path fill="none" stroke="#000000" d="M 600 665 C 600 655.6111584 623.0573328 648 651.5 648 C 679.9426672 648 703 655.6111584 703 665 C 703 674.3888416 679.9426672 682 651.5 682 C 623.0573328 682 600 674.3888416 600 665 Z" stroke-miterlimit="10"/></g><g transform="translate(-283,-126) scale(1,1)"><g><path fill="none" stroke="none"/><text fill="#000000" stroke="none" font-family="Arial" font-size="13px" font-style="normal" font-weight="bold" text-decoration="none" x="621.869140625" y="672">Post-pone</text></g></g><g transform="translate(-283,-126) scale(1,1)"><path fill="none" stroke="#000000" d="M 907 341 L 776 576 L 676 647" stroke-miterlimit="10"/></g><g transform="translate(-283,-126) scale(1,1)"><path fill="none" stroke="#000000" d="M 681.8494900594193 637.6842356167217 L 676 647 L 686.7234542548508 644.5489739201465" stroke-miterlimit="10"/></g></g></svg>