<svg version="1.1" xmlns="http://www.w3.org/2000/svg" xmlns:xlink="http://www.w3.org/1999/xlink" width="713.578125" height="459"><defs/><g><g transform="translate(-315,-158) scale(1,1)"><rect fill="#C0C0C0" stroke="none" x="559" y="175" width="279" height="439" opacity="0.2"/></g><g transform="translate(-315,-158) scale(1,1)"><rect fill="#ffffff" stroke="none" x="552" y="168" width="279" height="439"/></g><g transform="translate(-315,-158) scale(1,1)"><path fill="none" stroke="#000000" d="M 552 168 L 831 168 L 831 607 L 552 607 L 552 168 Z Z" stroke-miterlimit="10"/></g><g transform="translate(-315,-158) scale(1,1)"><g><path fill="none" stroke="none"/><text fill="#000000" stroke="none" font-family="Arial" font-size="13px" font-style="normal" font-weight="bold" text-decoration="none" x="637.3037109375" y="187.5">Question Category</text></g></g><g transform="translate(-315,-158) scale(1,1)"><path fill="#ffffff" stroke="none" d="M 393.85661594460225 227.68 C 393.85661594460225 222.886167936 397.74245826954774 219 402.535888671875 219 C 407.32931907420226 219 411.21516139914775 222.886167936 411.21516139914775 227.68 C 411.21516139914775 232.47383206400002 407.32931907420226 236.36 402.535888671875 236.36 C 397.74245826954774 236.36 393.85661594460225 232.47383206400002 393.85661594460225 227.68 Z"/></g><g transform="translate(-315,-158) scale(1,1)"><path fill="none" stroke="#000000" d="M 393.85661594460225 227.68 C 393.85661594460225 222.886167936 397.74245826954774 219 402.535888671875 219 C 407.32931907420226 219 411.21516139914775 222.886167936 411.21516139914775 227.68 C 411.21516139914775 232.47383206400002 407.32931907420226 236.36 402.535888671875 236.36 C 397.74245826954774 236.36 393.85661594460225 232.47383206400002 393.85661594460225 227.68 Z" stroke-miterlimit="10"/></g><g transform="translate(-315,-158) scale(1,1)"><path fill="none" stroke="#000000" d="M 402.535888671875 236.36 L 402.535888671875 253.64" stroke-miterlimit="10"/></g><g transform="translate(-315,-158) scale(1,1)"><path fill="none" stroke="#000000" d="M 393.34607049005683 242.84 L 411.72570685369317 242.84" stroke-miterlimit="10"/></g><g transform="translate(-315,-158) scale(1,1)"><path fill="none" stroke="#000000" d="M 402.535888671875 253.64 L 389.77225230823865 271" stroke-miterlimit="10"/></g><g transform="translate(-315,-158) scale(1,1)"><path fill="none" stroke="#000000" d="M 402.535888671875 253.64 L 415.29952503551135 271" stroke-miterlimit="10"/></g><g transform="translate(-315,-158) scale(1,1)"><g><path fill="none" stroke="none"/><text fill="#000000" stroke="none" font-family="Arial" font-size="13px" font-style="normal" font-weight="bold" text-decoration="none" x="357.7373046875" y="291.5">Centeral Admin</text></g></g><g transform="translate(-315,-158) scale(1,1)"><path fill="#ffffff" stroke="none" d="M 394.14250461647725 363.68 C 394.14250461647725 358.886167936 398.02834694142274 355 402.82177734375 355 C 407.61520774607726 355 411.50105007102275 358.886167936 411.50105007102275 363.68 C 411.50105007102275 368.473832064 407.61520774607726 372.36 402.82177734375 372.36 C 398.02834694142274 372.36 394.14250461647725 368.473832064 394.14250461647725 363.68 Z"/></g><g transform="translate(-315,-158) scale(1,1)"><path fill="none" stroke="#000000" d="M 394.14250461647725 363.68 C 394.14250461647725 358.886167936 398.02834694142274 355 402.82177734375 355 C 407.61520774607726 355 411.50105007102275 358.886167936 411.50105007102275 363.68 C 411.50105007102275 368.473832064 407.61520774607726 372.36 402.82177734375 372.36 C 398.02834694142274 372.36 394.14250461647725 368.473832064 394.14250461647725 363.68 Z" stroke-miterlimit="10"/></g><g transform="translate(-315,-158) scale(1,1)"><path fill="none" stroke="#000000" d="M 402.82177734375 372.36 L 402.82177734375 389.64" stroke-miterlimit="10"/></g><g transform="translate(-315,-158) scale(1,1)"><path fill="none" stroke="#000000" d="M 393.63195916193183 378.84 L 412.01159552556817 378.84" stroke-miterlimit="10"/></g><g transform="translate(-315,-158) scale(1,1)"><path fill="none" stroke="#000000" d="M 402.82177734375 389.64 L 390.05814098011365 407" stroke-miterlimit="10"/></g><g transform="translate(-315,-158) scale(1,1)"><path fill="none" stroke="#000000" d="M 402.82177734375 389.64 L 415.58541370738635 407" stroke-miterlimit="10"/></g><g transform="translate(-315,-158) scale(1,1)"><g><path fill="none" stroke="none"/><text fill="#000000" stroke="none" font-family="Arial" font-size="13px" font-style="normal" font-weight="bold" text-decoration="none" x="336.352294921875" y="427.5">Business Administrator</text></g></g><g transform="translate(-315,-158) scale(1,1)"><path fill="#ffffff" stroke="none" d="M 390.43571750710225 511.68 C 390.43571750710225 506.886167936 394.32155983204774 503 399.114990234375 503 C 403.90842063670226 503 407.79426296164775 506.886167936 407.79426296164775 511.68 C 407.79426296164775 516.473832064 403.90842063670226 520.36 399.114990234375 520.36 C 394.32155983204774 520.36 390.43571750710225 516.473832064 390.43571750710225 511.68 Z"/></g><g transform="translate(-315,-158) scale(1,1)"><path fill="none" stroke="#000000" d="M 390.43571750710225 511.68 C 390.43571750710225 506.886167936 394.32155983204774 503 399.114990234375 503 C 403.90842063670226 503 407.79426296164775 506.886167936 407.79426296164775 511.68 C 407.79426296164775 516.473832064 403.90842063670226 520.36 399.114990234375 520.36 C 394.32155983204774 520.36 390.43571750710225 516.473832064 390.43571750710225 511.68 Z" stroke-miterlimit="10"/></g><g transform="translate(-315,-158) scale(1,1)"><path fill="none" stroke="#000000" d="M 399.114990234375 520.36 L 399.114990234375 537.64" stroke-miterlimit="10"/></g><g transform="translate(-315,-158) scale(1,1)"><path fill="none" stroke="#000000" d="M 389.92517205255683 526.84 L 408.30480841619317 526.84" stroke-miterlimit="10"/></g><g transform="translate(-315,-158) scale(1,1)"><path fill="none" stroke="#000000" d="M 399.114990234375 537.64 L 386.35135387073865 555" stroke-miterlimit="10"/></g><g transform="translate(-315,-158) scale(1,1)"><path fill="none" stroke="#000000" d="M 399.114990234375 537.64 L 411.87862659801135 555" stroke-miterlimit="10"/></g><g transform="translate(-315,-158) scale(1,1)"><g><path fill="none" stroke="none"/><text fill="#000000" stroke="none" font-family="Arial" font-size="13px" font-style="normal" font-weight="bold" text-decoration="none" x="360.825927734375" y="575.5">Administrator</text></g></g><g transform="translate(-315,-158) scale(1,1)"><path fill="#ffffff" stroke="none" d="M 951.0770749289773 507.68 C 951.0770749289773 502.886167936 954.9629172539227 499 959.75634765625 499 C 964.5497780585773 499 968.4356203835227 502.886167936 968.4356203835227 507.68 C 968.4356203835227 512.473832064 964.5497780585773 516.36 959.75634765625 516.36 C 954.9629172539227 516.36 951.0770749289773 512.473832064 951.0770749289773 507.68 Z"/></g><g transform="translate(-315,-158) scale(1,1)"><path fill="none" stroke="#000000" d="M 951.0770749289773 507.68 C 951.0770749289773 502.886167936 954.9629172539227 499 959.75634765625 499 C 964.5497780585773 499 968.4356203835227 502.886167936 968.4356203835227 507.68 C 968.4356203835227 512.473832064 964.5497780585773 516.36 959.75634765625 516.36 C 954.9629172539227 516.36 951.0770749289773 512.473832064 951.0770749289773 507.68 Z" stroke-miterlimit="10"/></g><g transform="translate(-315,-158) scale(1,1)"><path fill="none" stroke="#000000" d="M 959.75634765625 516.36 L 959.75634765625 533.64" stroke-miterlimit="10"/></g><g transform="translate(-315,-158) scale(1,1)"><path fill="none" stroke="#000000" d="M 950.5665294744318 522.84 L 968.9461658380682 522.84" stroke-miterlimit="10"/></g><g transform="translate(-315,-158) scale(1,1)"><path fill="none" stroke="#000000" d="M 959.75634765625 533.64 L 946.9927112926136 551" stroke-miterlimit="10"/></g><g transform="translate(-315,-158) scale(1,1)"><path fill="none" stroke="#000000" d="M 959.75634765625 533.64 L 972.5199840198864 551" stroke-miterlimit="10"/></g><g transform="translate(-315,-158) scale(1,1)"><g><path fill="none" stroke="none"/><text fill="#000000" stroke="none" font-family="Arial" font-size="13px" font-style="normal" font-weight="bold" text-decoration="none" x="933.02001953125" y="571.5">Inspector</text></g></g><g transform="translate(-315,-158) scale(1,1)"><path fill="#ffffff" stroke="none" d="M 954.1097897727273 266.68 C 954.1097897727273 261.886167936 957.9956320976727 258 962.7890625 258 C 967.5824929023273 258 971.4683352272727 261.886167936 971.4683352272727 266.68 C 971.4683352272727 271.473832064 967.5824929023273 275.36 962.7890625 275.36 C 957.9956320976727 275.36 954.1097897727273 271.473832064 954.1097897727273 266.68 Z"/></g><g transform="translate(-315,-158) scale(1,1)"><path fill="none" stroke="#000000" d="M 954.1097897727273 266.68 C 954.1097897727273 261.886167936 957.9956320976727 258 962.7890625 258 C 967.5824929023273 258 971.4683352272727 261.886167936 971.4683352272727 266.68 C 971.4683352272727 271.473832064 967.5824929023273 275.36 962.7890625 275.36 C 957.9956320976727 275.36 954.1097897727273 271.473832064 954.1097897727273 266.68 Z" stroke-miterlimit="10"/></g><g transform="translate(-315,-158) scale(1,1)"><path fill="none" stroke="#000000" d="M 962.7890625 275.36 L 962.7890625 292.64" stroke-miterlimit="10"/></g><g transform="translate(-315,-158) scale(1,1)"><path fill="none" stroke="#000000" d="M 953.5992443181818 281.84 L 971.9788806818182 281.84" stroke-miterlimit="10"/></g><g transform="translate(-315,-158) scale(1,1)"><path fill="none" stroke="#000000" d="M 962.7890625 292.64 L 950.0254261363636 310" stroke-miterlimit="10"/></g><g transform="translate(-315,-158) scale(1,1)"><path fill="none" stroke="#000000" d="M 962.7890625 292.64 L 975.5526988636364 310" stroke-miterlimit="10"/></g><g transform="translate(-315,-158) scale(1,1)"><g><path fill="none" stroke="none"/><text fill="#000000" stroke="none" font-family="Arial" font-size="13px" font-style="normal" font-weight="bold" text-decoration="none" x="915.457763671875" y="330.5">Senior Inspector</text></g></g><g transform="translate(-315,-158) scale(1,1)"><path fill="#C0C0C0" stroke="none" d="M 591 248 C 591 238.6111584 640.2486719999999 231 701 231 C 761.7513280000001 231 811 238.6111584 811 248 C 811 257.3888416 761.7513280000001 265 701 265 C 640.2486719999999 265 591 257.3888416 591 248 Z" opacity="0.2"/></g><g transform="translate(-315,-158) scale(1,1)"><path fill="#ffffff" stroke="none" d="M 584 241 C 584 231.6111584 633.2486719999999 224 694 224 C 754.7513280000001 224 804 231.6111584 804 241 C 804 250.3888416 754.7513280000001 258 694 258 C 633.2486719999999 258 584 250.3888416 584 241 Z"/></g><g transform="translate(-315,-158) scale(1,1)"><path fill="none" stroke="#000000" d="M 584 241 C 584 231.6111584 633.2486719999999 224 694 224 C 754.7513280000001 224 804 231.6111584 804 241 C 804 250.3888416 754.7513280000001 258 694 258 C 633.2486719999999 258 584 250.3888416 584 241 Z" stroke-miterlimit="10"/></g><g transform="translate(-315,-158) scale(1,1)"><g><path fill="none" stroke="none"/><text fill="#000000" stroke="none" font-family="Arial" font-size="13px" font-style="normal" font-weight="bold" text-decoration="none" x="626.070556640625" y="248">Add Question category </text></g></g><g transform="translate(-315,-158) scale(1,1)"><path fill="#C0C0C0" stroke="none" d="M 575 312 C 575 302.6111584 630.7405424 295 699.5 295 C 768.2594576 295 824 302.6111584 824 312 C 824 321.3888416 768.2594576 329 699.5 329 C 630.7405424 329 575 321.3888416 575 312 Z" opacity="0.2"/></g><g transform="translate(-315,-158) scale(1,1)"><path fill="#ffffff" stroke="none" d="M 568 305 C 568 295.6111584 623.7405424 288 692.5 288 C 761.2594576 288 817 295.6111584 817 305 C 817 314.3888416 761.2594576 322 692.5 322 C 623.7405424 322 568 314.3888416 568 305 Z"/></g><g transform="translate(-315,-158) scale(1,1)"><path fill="none" stroke="#000000" d="M 568 305 C 568 295.6111584 623.7405424 288 692.5 288 C 761.2594576 288 817 295.6111584 817 305 C 817 314.3888416 761.2594576 322 692.5 322 C 623.7405424 322 568 314.3888416 568 305 Z" stroke-miterlimit="10"/></g><g transform="translate(-315,-158) scale(1,1)"><g><path fill="none" stroke="none"/><text fill="#000000" stroke="none" font-family="Arial" font-size="13px" font-style="normal" font-weight="bold" text-decoration="none" x="614.458740234375" y="312">Update-Question-category </text></g></g><g transform="translate(-315,-158) scale(1,1)"><path fill="#C0C0C0" stroke="none" d="M 583 496 C 583 486.6111584 633.5918176 479 696 479 C 758.4081824 479 809 486.6111584 809 496 C 809 505.3888416 758.4081824 513 696 513 C 633.5918176 513 583 505.3888416 583 496 Z" opacity="0.2"/></g><g transform="translate(-315,-158) scale(1,1)"><path fill="#ffffff" stroke="none" d="M 576 489 C 576 479.6111584 626.5918176 472 689 472 C 751.4081824 472 802 479.6111584 802 489 C 802 498.3888416 751.4081824 506 689 506 C 626.5918176 506 576 498.3888416 576 489 Z"/></g><g transform="translate(-315,-158) scale(1,1)"><path fill="none" stroke="#000000" d="M 576 489 C 576 479.6111584 626.5918176 472 689 472 C 751.4081824 472 802 479.6111584 802 489 C 802 498.3888416 751.4081824 506 689 506 C 626.5918176 506 576 498.3888416 576 489 Z" stroke-miterlimit="10"/></g><g transform="translate(-315,-158) scale(1,1)"><g><path fill="none" stroke="none"/><text fill="#000000" stroke="none" font-family="Arial" font-size="13px" font-style="normal" font-weight="bold" text-decoration="none" x="618.664794921875" y="496">View Question category </text></g></g><g transform="translate(-315,-158) scale(1,1)"><path fill="#C0C0C0" stroke="none" d="M 583 400 C 583 390.6111584 636.5019664 383 702.5 383 C 768.4980336 383 822 390.6111584 822 400 C 822 409.3888416 768.4980336 417 702.5 417 C 636.5019664 417 583 409.3888416 583 400 Z" opacity="0.2"/></g><g transform="translate(-315,-158) scale(1,1)"><path fill="#ffffff" stroke="none" d="M 576 393 C 576 383.6111584 629.5019664 376 695.5 376 C 761.4980336 376 815 383.6111584 815 393 C 815 402.3888416 761.4980336 410 695.5 410 C 629.5019664 410 576 402.3888416 576 393 Z"/></g><g transform="translate(-315,-158) scale(1,1)"><path fill="none" stroke="#000000" d="M 576 393 C 576 383.6111584 629.5019664 376 695.5 376 C 761.4980336 376 815 383.6111584 815 393 C 815 402.3888416 761.4980336 410 695.5 410 C 629.5019664 410 576 402.3888416 576 393 Z" stroke-miterlimit="10"/></g><g transform="translate(-315,-158) scale(1,1)"><g><path fill="none" stroke="none"/><text fill="#000000" stroke="none" font-family="Arial" font-size="13px" font-style="normal" font-weight="bold" text-decoration="none" x="620.346923828125" y="400">Delete Question category </text></g></g><g transform="translate(-315,-158) scale(1,1)"><path fill="none" stroke="#000000" d="M 456 254 L 583 247" stroke-miterlimit="10"/></g><g transform="translate(-315,-158) scale(1,1)"><path fill="none" stroke="#000000" d="M 573.0843962162237 251.76243651959382 L 583 247 L 572.6210581669575 243.35616048290802" stroke-miterlimit="10"/></g><g transform="translate(-315,-158) scale(1,1)"><path fill="none" stroke="#000000" d="M 456 266 L 583 287" stroke-miterlimit="10"/></g><g transform="translate(-315,-158) scale(1,1)"><path fill="none" stroke="#000000" d="M 572.2867367843397 289.4951936341658 L 583 287 L 573.6602105924782 281.18894727066237" stroke-miterlimit="10"/></g><g transform="translate(-315,-158) scale(1,1)"><path fill="none" stroke="#000000" d="M 456 282 L 656 375" stroke-miterlimit="10"/></g><g transform="translate(-315,-158) scale(1,1)"><path fill="none" stroke="#000000" d="M 645.0099602817455 374.53199680429736 L 656 375 L 648.559796623011 366.8979401564144" stroke-miterlimit="10"/></g><g transform="translate(-315,-158) scale(1,1)"><path fill="none" stroke="#000000" d="M 448 298 L 552 392 L 664 471" stroke-miterlimit="10"/></g><g transform="translate(-315,-158) scale(1,1)"><path fill="none" stroke="#000000" d="M 653.2690146468218 468.582159362184 L 664 471 L 658.1217189987823 461.70237597712605" stroke-miterlimit="10"/></g><g transform="translate(-315,-158) scale(1,1)"><path fill="none" stroke="#000000" d="M 447 532 L 589 507" stroke-miterlimit="10"/></g><g transform="translate(-315,-158) scale(1,1)"><path fill="none" stroke="#000000" d="M 579.7211429988447 512.9078602515726 L 589 507 L 578.2613692466334 504.61634533901224" stroke-miterlimit="10"/></g><g transform="translate(-315,-158) scale(1,1)"><path fill="none" stroke="#000000" d="M 482 420 L 635 471" stroke-miterlimit="10"/></g><g transform="translate(-315,-158) scale(1,1)"><path fill="none" stroke="#000000" d="M 624.0276737030609 471.77977922099745 L 635 471 L 626.6900064950472 463.7927808450386" stroke-miterlimit="10"/></g><g transform="translate(-315,-158) scale(1,1)"><path fill="none" stroke="#000000" d="M 906 336 L 714 471" stroke-miterlimit="10"/></g><g transform="translate(-315,-158) scale(1,1)"><path fill="none" stroke="#000000" d="M 719.8921476103837 461.7111574166934 L 714 471 L 724.7345811110848 468.59817395102397" stroke-miterlimit="10"/></g><g transform="translate(-315,-158) scale(1,1)"><path fill="none" stroke="#000000" d="M 925 531 L 790 507" stroke-miterlimit="10"/></g><g transform="translate(-315,-158) scale(1,1)"><path fill="none" stroke="#000000" d="M 800.7425945740232 504.6342735115472 L 790 507 L 799.2689827132473 512.923340228412" stroke-miterlimit="10"/></g></g></svg>