<svg version="1.1" xmlns="http://www.w3.org/2000/svg" xmlns:xlink="http://www.w3.org/1999/xlink" width="713.578125" height="427"><defs/><g><g transform="translate(-275,-150) scale(1,1)"><rect fill="#C0C0C0" stroke="none" x="479" y="167" width="319" height="407" opacity="0.2"/></g><g transform="translate(-275,-150) scale(1,1)"><rect fill="#ffffff" stroke="none" x="472" y="160" width="319" height="407"/></g><g transform="translate(-275,-150) scale(1,1)"><path fill="none" stroke="#000000" d="M 472 160 L 791 160 L 791 567 L 472 567 L 472 160 Z Z" stroke-miterlimit="10"/></g><g transform="translate(-275,-150) scale(1,1)"><g><path fill="none" stroke="none"/><text fill="#000000" stroke="none" font-family="Arial" font-size="13px" font-style="normal" font-weight="bold" text-decoration="none" x="598.3779296875" y="179.5">Violation fix</text></g></g><g transform="translate(-275,-150) scale(1,1)"><path fill="#ffffff" stroke="none" d="M 347.85661594460225 210.68 C 347.85661594460225 205.886167936 351.74245826954774 202 356.535888671875 202 C 361.32931907420226 202 365.21516139914775 205.886167936 365.21516139914775 210.68 C 365.21516139914775 215.47383206400002 361.32931907420226 219.36 356.535888671875 219.36 C 351.74245826954774 219.36 347.85661594460225 215.47383206400002 347.85661594460225 210.68 Z"/></g><g transform="translate(-275,-150) scale(1,1)"><path fill="none" stroke="#000000" d="M 347.85661594460225 210.68 C 347.85661594460225 205.886167936 351.74245826954774 202 356.535888671875 202 C 361.32931907420226 202 365.21516139914775 205.886167936 365.21516139914775 210.68 C 365.21516139914775 215.47383206400002 361.32931907420226 219.36 356.535888671875 219.36 C 351.74245826954774 219.36 347.85661594460225 215.47383206400002 347.85661594460225 210.68 Z" stroke-miterlimit="10"/></g><g transform="translate(-275,-150) scale(1,1)"><path fill="none" stroke="#000000" d="M 356.535888671875 219.36 L 356.535888671875 236.64" stroke-miterlimit="10"/></g><g transform="translate(-275,-150) scale(1,1)"><path fill="none" stroke="#000000" d="M 347.34607049005683 225.84 L 365.72570685369317 225.84" stroke-miterlimit="10"/></g><g transform="translate(-275,-150) scale(1,1)"><path fill="none" stroke="#000000" d="M 356.535888671875 236.64 L 343.77225230823865 254" stroke-miterlimit="10"/></g><g transform="translate(-275,-150) scale(1,1)"><path fill="none" stroke="#000000" d="M 356.535888671875 236.64 L 369.29952503551135 254" stroke-miterlimit="10"/></g><g transform="translate(-275,-150) scale(1,1)"><g><path fill="none" stroke="none"/><text fill="#000000" stroke="none" font-family="Arial" font-size="13px" font-style="normal" font-weight="bold" text-decoration="none" x="311.7373046875" y="274.5">Centeral Admin</text></g></g><g transform="translate(-275,-150) scale(1,1)"><path fill="#ffffff" stroke="none" d="M 354.14250461647725 346.68 C 354.14250461647725 341.886167936 358.02834694142274 338 362.82177734375 338 C 367.61520774607726 338 371.50105007102275 341.886167936 371.50105007102275 346.68 C 371.50105007102275 351.473832064 367.61520774607726 355.36 362.82177734375 355.36 C 358.02834694142274 355.36 354.14250461647725 351.473832064 354.14250461647725 346.68 Z"/></g><g transform="translate(-275,-150) scale(1,1)"><path fill="none" stroke="#000000" d="M 354.14250461647725 346.68 C 354.14250461647725 341.886167936 358.02834694142274 338 362.82177734375 338 C 367.61520774607726 338 371.50105007102275 341.886167936 371.50105007102275 346.68 C 371.50105007102275 351.473832064 367.61520774607726 355.36 362.82177734375 355.36 C 358.02834694142274 355.36 354.14250461647725 351.473832064 354.14250461647725 346.68 Z" stroke-miterlimit="10"/></g><g transform="translate(-275,-150) scale(1,1)"><path fill="none" stroke="#000000" d="M 362.82177734375 355.36 L 362.82177734375 372.64" stroke-miterlimit="10"/></g><g transform="translate(-275,-150) scale(1,1)"><path fill="none" stroke="#000000" d="M 353.63195916193183 361.84 L 372.01159552556817 361.84" stroke-miterlimit="10"/></g><g transform="translate(-275,-150) scale(1,1)"><path fill="none" stroke="#000000" d="M 362.82177734375 372.64 L 350.05814098011365 390" stroke-miterlimit="10"/></g><g transform="translate(-275,-150) scale(1,1)"><path fill="none" stroke="#000000" d="M 362.82177734375 372.64 L 375.58541370738635 390" stroke-miterlimit="10"/></g><g transform="translate(-275,-150) scale(1,1)"><g><path fill="none" stroke="none"/><text fill="#000000" stroke="none" font-family="Arial" font-size="13px" font-style="normal" font-weight="bold" text-decoration="none" x="296.352294921875" y="410.5">Business Administrator</text></g></g><g transform="translate(-275,-150) scale(1,1)"><path fill="#ffffff" stroke="none" d="M 350.43571750710225 494.68 C 350.43571750710225 489.886167936 354.32155983204774 486 359.114990234375 486 C 363.90842063670226 486 367.79426296164775 489.886167936 367.79426296164775 494.68 C 367.79426296164775 499.473832064 363.90842063670226 503.36 359.114990234375 503.36 C 354.32155983204774 503.36 350.43571750710225 499.473832064 350.43571750710225 494.68 Z"/></g><g transform="translate(-275,-150) scale(1,1)"><path fill="none" stroke="#000000" d="M 350.43571750710225 494.68 C 350.43571750710225 489.886167936 354.32155983204774 486 359.114990234375 486 C 363.90842063670226 486 367.79426296164775 489.886167936 367.79426296164775 494.68 C 367.79426296164775 499.473832064 363.90842063670226 503.36 359.114990234375 503.36 C 354.32155983204774 503.36 350.43571750710225 499.473832064 350.43571750710225 494.68 Z" stroke-miterlimit="10"/></g><g transform="translate(-275,-150) scale(1,1)"><path fill="none" stroke="#000000" d="M 359.114990234375 503.36 L 359.114990234375 520.64" stroke-miterlimit="10"/></g><g transform="translate(-275,-150) scale(1,1)"><path fill="none" stroke="#000000" d="M 349.92517205255683 509.84 L 368.30480841619317 509.84" stroke-miterlimit="10"/></g><g transform="translate(-275,-150) scale(1,1)"><path fill="none" stroke="#000000" d="M 359.114990234375 520.64 L 346.35135387073865 538" stroke-miterlimit="10"/></g><g transform="translate(-275,-150) scale(1,1)"><path fill="none" stroke="#000000" d="M 359.114990234375 520.64 L 371.87862659801135 538" stroke-miterlimit="10"/></g><g transform="translate(-275,-150) scale(1,1)"><g><path fill="none" stroke="none"/><text fill="#000000" stroke="none" font-family="Arial" font-size="13px" font-style="normal" font-weight="bold" text-decoration="none" x="320.825927734375" y="558.5">Administrator</text></g></g><g transform="translate(-275,-150) scale(1,1)"><path fill="#ffffff" stroke="none" d="M 911.0770749289773 490.68 C 911.0770749289773 485.886167936 914.9629172539227 482 919.75634765625 482 C 924.5497780585773 482 928.4356203835227 485.886167936 928.4356203835227 490.68 C 928.4356203835227 495.473832064 924.5497780585773 499.36 919.75634765625 499.36 C 914.9629172539227 499.36 911.0770749289773 495.473832064 911.0770749289773 490.68 Z"/></g><g transform="translate(-275,-150) scale(1,1)"><path fill="none" stroke="#000000" d="M 911.0770749289773 490.68 C 911.0770749289773 485.886167936 914.9629172539227 482 919.75634765625 482 C 924.5497780585773 482 928.4356203835227 485.886167936 928.4356203835227 490.68 C 928.4356203835227 495.473832064 924.5497780585773 499.36 919.75634765625 499.36 C 914.9629172539227 499.36 911.0770749289773 495.473832064 911.0770749289773 490.68 Z" stroke-miterlimit="10"/></g><g transform="translate(-275,-150) scale(1,1)"><path fill="none" stroke="#000000" d="M 919.75634765625 499.36 L 919.75634765625 516.64" stroke-miterlimit="10"/></g><g transform="translate(-275,-150) scale(1,1)"><path fill="none" stroke="#000000" d="M 910.5665294744318 505.84 L 928.9461658380682 505.84" stroke-miterlimit="10"/></g><g transform="translate(-275,-150) scale(1,1)"><path fill="none" stroke="#000000" d="M 919.75634765625 516.64 L 906.9927112926136 534" stroke-miterlimit="10"/></g><g transform="translate(-275,-150) scale(1,1)"><path fill="none" stroke="#000000" d="M 919.75634765625 516.64 L 932.5199840198864 534" stroke-miterlimit="10"/></g><g transform="translate(-275,-150) scale(1,1)"><g><path fill="none" stroke="none"/><text fill="#000000" stroke="none" font-family="Arial" font-size="13px" font-style="normal" font-weight="bold" text-decoration="none" x="893.02001953125" y="554.5">Inspector</text></g></g><g transform="translate(-275,-150) scale(1,1)"><path fill="#ffffff" stroke="none" d="M 914.1097897727273 249.68 C 914.1097897727273 244.886167936 917.9956320976727 241 922.7890625 241 C 927.5824929023273 241 931.4683352272727 244.886167936 931.4683352272727 249.68 C 931.4683352272727 254.47383206400002 927.5824929023273 258.36 922.7890625 258.36 C 917.9956320976727 258.36 914.1097897727273 254.47383206400002 914.1097897727273 249.68 Z"/></g><g transform="translate(-275,-150) scale(1,1)"><path fill="none" stroke="#000000" d="M 914.1097897727273 249.68 C 914.1097897727273 244.886167936 917.9956320976727 241 922.7890625 241 C 927.5824929023273 241 931.4683352272727 244.886167936 931.4683352272727 249.68 C 931.4683352272727 254.47383206400002 927.5824929023273 258.36 922.7890625 258.36 C 917.9956320976727 258.36 914.1097897727273 254.47383206400002 914.1097897727273 249.68 Z" stroke-miterlimit="10"/></g><g transform="translate(-275,-150) scale(1,1)"><path fill="none" stroke="#000000" d="M 922.7890625 258.36 L 922.7890625 275.64" stroke-miterlimit="10"/></g><g transform="translate(-275,-150) scale(1,1)"><path fill="none" stroke="#000000" d="M 913.5992443181818 264.84 L 931.9788806818182 264.84" stroke-miterlimit="10"/></g><g transform="translate(-275,-150) scale(1,1)"><path fill="none" stroke="#000000" d="M 922.7890625 275.64 L 910.0254261363636 293" stroke-miterlimit="10"/></g><g transform="translate(-275,-150) scale(1,1)"><path fill="none" stroke="#000000" d="M 922.7890625 275.64 L 935.5526988636364 293" stroke-miterlimit="10"/></g><g transform="translate(-275,-150) scale(1,1)"><g><path fill="none" stroke="none"/><text fill="#000000" stroke="none" font-family="Arial" font-size="13px" font-style="normal" font-weight="bold" text-decoration="none" x="875.457763671875" y="313.5">Senior Inspector</text></g></g><g transform="translate(-275,-150) scale(1,1)"><path fill="#C0C0C0" stroke="none" d="M 559 240 C 559 230.6111584 594.1456432 223 637.5 223 C 680.8543568 223 716 230.6111584 716 240 C 716 249.3888416 680.8543568 257 637.5 257 C 594.1456432 257 559 249.3888416 559 240 Z" opacity="0.2"/></g><g transform="translate(-275,-150) scale(1,1)"><path fill="#ffffff" stroke="none" d="M 552 233 C 552 223.6111584 587.1456432 216 630.5 216 C 673.8543568 216 709 223.6111584 709 233 C 709 242.3888416 673.8543568 250 630.5 250 C 587.1456432 250 552 242.3888416 552 233 Z"/></g><g transform="translate(-275,-150) scale(1,1)"><path fill="none" stroke="#000000" d="M 552 233 C 552 223.6111584 587.1456432 216 630.5 216 C 673.8543568 216 709 223.6111584 709 233 C 709 242.3888416 673.8543568 250 630.5 250 C 587.1456432 250 552 242.3888416 552 233 Z" stroke-miterlimit="10"/></g><g transform="translate(-275,-150) scale(1,1)"><g><path fill="none" stroke="none"/><text fill="#000000" stroke="none" font-family="Arial" font-size="13px" font-style="normal" font-weight="bold" text-decoration="none" x="584.006591796875" y="240">Add Violation fix</text></g></g><g transform="translate(-275,-150) scale(1,1)"><path fill="#C0C0C0" stroke="none" d="M 543 304 C 543 294.6111584 584.1897984 287 635 287 C 685.8102016 287 727 294.6111584 727 304 C 727 313.3888416 685.8102016 321 635 321 C 584.1897984 321 543 313.3888416 543 304 Z" opacity="0.2"/></g><g transform="translate(-275,-150) scale(1,1)"><path fill="#ffffff" stroke="none" d="M 536 297 C 536 287.6111584 577.1897984 280 628 280 C 678.8102016 280 720 287.6111584 720 297 C 720 306.3888416 678.8102016 314 628 314 C 577.1897984 314 536 306.3888416 536 297 Z"/></g><g transform="translate(-275,-150) scale(1,1)"><path fill="none" stroke="#000000" d="M 536 297 C 536 287.6111584 577.1897984 280 628 280 C 678.8102016 280 720 287.6111584 720 297 C 720 306.3888416 678.8102016 314 628 314 C 577.1897984 314 536 306.3888416 536 297 Z" stroke-miterlimit="10"/></g><g transform="translate(-275,-150) scale(1,1)"><g><path fill="none" stroke="none"/><text fill="#000000" stroke="none" font-family="Arial" font-size="13px" font-style="normal" font-weight="bold" text-decoration="none" x="572.112060546875" y="304">Update Violation fix</text></g></g><g transform="translate(-275,-150) scale(1,1)"><path fill="#C0C0C0" stroke="none" d="M 551 472 C 551 462.6111584 587.4887888 455 632.5 455 C 677.5112112 455 714 462.6111584 714 472 C 714 481.3888416 677.5112112 489 632.5 489 C 587.4887888 489 551 481.3888416 551 472 Z" opacity="0.2"/></g><g transform="translate(-275,-150) scale(1,1)"><path fill="#ffffff" stroke="none" d="M 544 465 C 544 455.6111584 580.4887888 448 625.5 448 C 670.5112112 448 707 455.6111584 707 465 C 707 474.3888416 670.5112112 482 625.5 482 C 580.4887888 482 544 474.3888416 544 465 Z"/></g><g transform="translate(-275,-150) scale(1,1)"><path fill="none" stroke="#000000" d="M 544 465 C 544 455.6111584 580.4887888 448 625.5 448 C 670.5112112 448 707 455.6111584 707 465 C 707 474.3888416 670.5112112 482 625.5 482 C 580.4887888 482 544 474.3888416 544 465 Z" stroke-miterlimit="10"/></g><g transform="translate(-275,-150) scale(1,1)"><g><path fill="none" stroke="none"/><text fill="#000000" stroke="none" font-family="Arial" font-size="13px" font-style="normal" font-weight="bold" text-decoration="none" x="576.600830078125" y="472">View Violation fix</text></g></g><g transform="translate(-275,-150) scale(1,1)"><path fill="#C0C0C0" stroke="none" d="M 535 384 C 535 374.6111584 574.6227952 367 623.5 367 C 672.3772048 367 712 374.6111584 712 384 C 712 393.3888416 672.3772048 401 623.5 401 C 574.6227952 401 535 393.3888416 535 384 Z" opacity="0.2"/></g><g transform="translate(-275,-150) scale(1,1)"><path fill="#ffffff" stroke="none" d="M 528 377 C 528 367.6111584 567.6227952 360 616.5 360 C 665.3772048 360 705 367.6111584 705 377 C 705 386.3888416 665.3772048 394 616.5 394 C 567.6227952 394 528 386.3888416 528 377 Z"/></g><g transform="translate(-275,-150) scale(1,1)"><path fill="none" stroke="#000000" d="M 528 377 C 528 367.6111584 567.6227952 360 616.5 360 C 665.3772048 360 705 367.6111584 705 377 C 705 386.3888416 665.3772048 394 616.5 394 C 567.6227952 394 528 386.3888416 528 377 Z" stroke-miterlimit="10"/></g><g transform="translate(-275,-150) scale(1,1)"><g><path fill="none" stroke="none"/><text fill="#000000" stroke="none" font-family="Arial" font-size="13px" font-style="normal" font-weight="bold" text-decoration="none" x="562.782958984375" y="384">Delete Violation fix</text></g></g><g transform="translate(-275,-150) scale(1,1)"><path fill="none" stroke="#000000" d="M 410 239 L 551 235" stroke-miterlimit="10"/></g><g transform="translate(-275,-150) scale(1,1)"><path fill="none" stroke="#000000" d="M 540.9607829965094 239.49601178343912 L 551 235 L 540.7220411586641 231.08036199939286" stroke-miterlimit="10"/></g><g transform="translate(-275,-150) scale(1,1)"><path fill="none" stroke="#000000" d="M 410 251 L 542 279" stroke-miterlimit="10"/></g><g transform="translate(-275,-150) scale(1,1)"><path fill="none" stroke="#000000" d="M 531.1850320024328 281.00909611805827 L 542 279 L 532.9320173014702 272.7733082797393" stroke-miterlimit="10"/></g><g transform="translate(-275,-150) scale(1,1)"><path fill="none" stroke="#000000" d="M 410 268 L 582 359" stroke-miterlimit="10"/></g><g transform="translate(-275,-150) scale(1,1)"><path fill="none" stroke="#000000" d="M 571.0484930590288 357.9682559804585 L 582 359 L 574.9856683704942 350.52656198516127" stroke-miterlimit="10"/></g><g transform="translate(-275,-150) scale(1,1)"><path fill="none" stroke="#000000" d="M 405 281 L 603 447" stroke-miterlimit="10"/></g><g transform="translate(-275,-150) scale(1,1)"><path fill="none" stroke="#000000" d="M 592.5077245703184 443.69664468945615 L 603 447 L 597.9166658343493 437.24501595284096" stroke-miterlimit="10"/></g><g transform="translate(-275,-150) scale(1,1)"><path fill="none" stroke="#000000" d="M 442 403 L 572 447" stroke-miterlimit="10"/></g><g transform="translate(-275,-150) scale(1,1)"><path fill="none" stroke="#000000" d="M 561.0241967929867 447.72920776251715 L 572 447 L 563.723307369582 439.75456287712154" stroke-miterlimit="10"/></g><g transform="translate(-275,-150) scale(1,1)"><path fill="none" stroke="#000000" d="M 407 513 L 544 483" stroke-miterlimit="10"/></g><g transform="translate(-275,-150) scale(1,1)"><path fill="none" stroke="#000000" d="M 534.9730116476757 489.2859749670995 L 544 483 L 533.1720997967745 481.0618108479844" stroke-miterlimit="10"/></g><g transform="translate(-275,-150) scale(1,1)"><path fill="none" stroke="#000000" d="M 866 314 L 654 447" stroke-miterlimit="10"/></g><g transform="translate(-275,-150) scale(1,1)"><path fill="none" stroke="#000000" d="M 660.3717089376158 438.0333213945014 L 654 447 L 664.8458778442035 445.1650793508667" stroke-miterlimit="10"/></g><g transform="translate(-275,-150) scale(1,1)"><path fill="none" stroke="#000000" d="M 885 514 L 708 481" stroke-miterlimit="10"/></g><g transform="translate(-275,-150) scale(1,1)"><path fill="none" stroke="#000000" d="M 718.762052821237 478.72442994550727 L 708 481 L 717.2189915459813 487.0008495127877" stroke-miterlimit="10"/></g></g></svg>