<svg version="1.1" xmlns="http://www.w3.org/2000/svg" xmlns:xlink="http://www.w3.org/1999/xlink" width="571" height="460"><defs/><g><g transform="translate(-366,-198) scale(1,1)"><rect fill="#C0C0C0" stroke="none" x="599" y="375" width="144" height="112" opacity="0.2"/></g><g transform="translate(-366,-198) scale(1,1)"><rect fill="#ffffff" stroke="none" x="592" y="368" width="144" height="112"/></g><g transform="translate(-366,-198) scale(1,1)"><path fill="none" stroke="#000000" d="M 592 368 L 592 480" stroke-miterlimit="10"/></g><g transform="translate(-366,-198) scale(1,1)"><path fill="none" stroke="#000000" d="M 592 368 L 736 368" stroke-miterlimit="10"/></g><g transform="translate(-366,-198) scale(1,1)"><path fill="none" stroke="#000000" d="M 592 480 L 736 480" stroke-miterlimit="10"/></g><g transform="translate(-366,-198) scale(1,1)"><path fill="none" stroke="#000000" d="M 602 368 L 602 480" stroke-miterlimit="10"/></g><g transform="translate(-366,-198) scale(1,1)"><g><path fill="none" stroke="none"/><text fill="#000000" stroke="none" font-family="Arial" font-size="13px" font-style="normal" font-weight="normal" text-decoration="none" x="655.2763671875" y="390.5">Lims</text></g></g><g transform="translate(-366,-198) scale(1,1)"><g><path fill="none" stroke="none"/><text fill="#000000" stroke="none" font-family="Arial" font-size="13px" font-style="normal" font-weight="normal" text-decoration="none" x="596.5" y="390.5"></text></g></g><g transform="translate(-366,-198) scale(1,1)"><rect fill="#C0C0C0" stroke="none" x="551" y="215" width="104" height="40" opacity="0.2"/></g><g transform="translate(-366,-198) scale(1,1)"><rect fill="#ffffff" stroke="none" x="544" y="208" width="104" height="40"/></g><g transform="translate(-366,-198) scale(1,1)"><path fill="none" stroke="#000000" d="M 544 208 L 648 208 L 648 248 L 544 248 L 544 208 Z Z" stroke-miterlimit="10"/></g><g transform="translate(-366,-198) scale(1,1)"><g><path fill="none" stroke="none"/><text fill="#000000" stroke="none" font-family="Arial" font-size="13px" font-style="normal" font-weight="normal" text-decoration="none" x="596" y="225.5"></text></g></g><g transform="translate(-366,-198) scale(1,1)"><g><path fill="none" stroke="none"/><text fill="#000000" stroke="none" font-family="Arial" font-size="13px" font-style="normal" font-weight="normal" text-decoration="none" x="596" y="225.5"></text></g></g><g transform="translate(-366,-198) scale(1,1)"><g><path fill="none" stroke="none"/><text fill="#000000" stroke="none" font-family="Arial" font-size="13px" font-style="normal" font-weight="normal" text-decoration="none" x="596" y="225.5"></text></g></g><g transform="translate(-366,-198) scale(1,1)"><g><path fill="none" stroke="none"/><text fill="#000000" stroke="none" font-family="Arial" font-size="13px" font-style="normal" font-weight="normal" text-decoration="none" x="596" y="225.5"></text></g></g><g transform="translate(-366,-198) scale(1,1)"><g><path fill="none" stroke="none"/><text fill="#000000" stroke="none" font-family="Arial" font-size="13px" font-style="normal" font-weight="normal" text-decoration="none" x="596" y="225.5"></text></g></g><g transform="translate(-366,-198) scale(1,1)"><g><path fill="none" stroke="none"/><text fill="#000000" stroke="none" font-family="Arial" font-size="13px" font-style="normal" font-weight="normal" text-decoration="none" x="569.263671875" y="230.5">Inspector</text></g></g><g transform="translate(-366,-198) scale(1,1)"><g><path fill="none" stroke="none"/><text fill="#000000" stroke="none" font-family="Arial" font-size="13px" font-style="normal" font-weight="normal" text-decoration="none" x="-0.5" y="20.5"></text></g></g><g transform="translate(-366,-198) scale(1,1)"><rect fill="#C0C0C0" stroke="none" x="383" y="599" width="127" height="40" opacity="0.2"/></g><g transform="translate(-366,-198) scale(1,1)"><rect fill="#ffffff" stroke="none" x="376" y="592" width="127" height="40"/></g><g transform="translate(-366,-198) scale(1,1)"><path fill="none" stroke="#000000" d="M 376 592 L 503 592 L 503 632 L 376 632 L 376 592 Z Z" stroke-miterlimit="10"/></g><g transform="translate(-366,-198) scale(1,1)"><g><path fill="none" stroke="none"/><text fill="#000000" stroke="none" font-family="Arial" font-size="13px" font-style="normal" font-weight="normal" text-decoration="none" x="439.5" y="609.5"></text></g></g><g transform="translate(-366,-198) scale(1,1)"><g><path fill="none" stroke="none"/><text fill="#000000" stroke="none" font-family="Arial" font-size="13px" font-style="normal" font-weight="normal" text-decoration="none" x="439.5" y="609.5"></text></g></g><g transform="translate(-366,-198) scale(1,1)"><g><path fill="none" stroke="none"/><text fill="#000000" stroke="none" font-family="Arial" font-size="13px" font-style="normal" font-weight="normal" text-decoration="none" x="439.5" y="609.5"></text></g></g><g transform="translate(-366,-198) scale(1,1)"><g><path fill="none" stroke="none"/><text fill="#000000" stroke="none" font-family="Arial" font-size="13px" font-style="normal" font-weight="normal" text-decoration="none" x="439.5" y="609.5"></text></g></g><g transform="translate(-366,-198) scale(1,1)"><g><path fill="none" stroke="none"/><text fill="#000000" stroke="none" font-family="Arial" font-size="13px" font-style="normal" font-weight="normal" text-decoration="none" x="439.5" y="609.5"></text></g></g><g transform="translate(-366,-198) scale(1,1)"><g><path fill="none" stroke="none"/><text fill="#000000" stroke="none" font-family="Arial" font-size="13px" font-style="normal" font-weight="normal" text-decoration="none" x="401.2109375" y="614.5">Administrator</text></g></g><g transform="translate(-366,-198) scale(1,1)"><g><path fill="none" stroke="none"/><text fill="#000000" stroke="none" font-family="Arial" font-size="13px" font-style="normal" font-weight="normal" text-decoration="none" x="-568.5" y="276.5"></text></g></g><g transform="translate(-366,-198) scale(1,1)"><rect fill="#C0C0C0" stroke="none" x="599" y="599" width="120" height="56" opacity="0.2"/></g><g transform="translate(-366,-198) scale(1,1)"><rect fill="#ffffff" stroke="none" x="592" y="592" width="120" height="56"/></g><g transform="translate(-366,-198) scale(1,1)"><path fill="none" stroke="#000000" d="M 592 592 L 712 592 L 712 648 L 592 648 L 592 592 Z Z" stroke-miterlimit="10"/></g><g transform="translate(-366,-198) scale(1,1)"><g><path fill="none" stroke="none"/><text fill="#000000" stroke="none" font-family="Arial" font-size="13px" font-style="normal" font-weight="normal" text-decoration="none" x="652" y="609.5"></text></g></g><g transform="translate(-366,-198) scale(1,1)"><g><path fill="none" stroke="none"/><text fill="#000000" stroke="none" font-family="Arial" font-size="13px" font-style="normal" font-weight="normal" text-decoration="none" x="652" y="609.5"></text></g></g><g transform="translate(-366,-198) scale(1,1)"><g><path fill="none" stroke="none"/><text fill="#000000" stroke="none" font-family="Arial" font-size="13px" font-style="normal" font-weight="normal" text-decoration="none" x="652" y="609.5"></text></g></g><g transform="translate(-366,-198) scale(1,1)"><g><path fill="none" stroke="none"/><text fill="#000000" stroke="none" font-family="Arial" font-size="13px" font-style="normal" font-weight="normal" text-decoration="none" x="652" y="609.5"></text></g></g><g transform="translate(-366,-198) scale(1,1)"><g><path fill="none" stroke="none"/><text fill="#000000" stroke="none" font-family="Arial" font-size="13px" font-style="normal" font-weight="normal" text-decoration="none" x="652" y="609.5"></text></g></g><g transform="translate(-366,-198) scale(1,1)"><g><path fill="none" stroke="none"/><text fill="#000000" stroke="none" font-family="Arial" font-size="13px" font-style="normal" font-weight="normal" text-decoration="none" x="637.91455078125" y="614.5">Assit</text><text fill="#000000" stroke="none" font-family="Arial" font-size="13px" font-style="normal" font-weight="normal" text-decoration="none" x="613.7109375" y="627.5">Administrator</text></g></g><g transform="translate(-366,-198) scale(1,1)"><g><path fill="none" stroke="none"/><text fill="#000000" stroke="none" font-family="Arial" font-size="13px" font-style="normal" font-weight="normal" text-decoration="none" x="-8.5" y="4.5"></text></g></g><g transform="translate(-366,-198) scale(1,1)"><rect fill="#C0C0C0" stroke="none" x="799" y="543" width="135" height="56" opacity="0.2"/></g><g transform="translate(-366,-198) scale(1,1)"><rect fill="#ffffff" stroke="none" x="792" y="536" width="135" height="56"/></g><g transform="translate(-366,-198) scale(1,1)"><path fill="none" stroke="#000000" d="M 792 536 L 927 536 L 927 592 L 792 592 L 792 536 Z Z" stroke-miterlimit="10"/></g><g transform="translate(-366,-198) scale(1,1)"><g><path fill="none" stroke="none"/><text fill="#000000" stroke="none" font-family="Arial" font-size="13px" font-style="normal" font-weight="normal" text-decoration="none" x="859.5" y="553.5"></text></g></g><g transform="translate(-366,-198) scale(1,1)"><g><path fill="none" stroke="none"/><text fill="#000000" stroke="none" font-family="Arial" font-size="13px" font-style="normal" font-weight="normal" text-decoration="none" x="859.5" y="553.5"></text></g></g><g transform="translate(-366,-198) scale(1,1)"><g><path fill="none" stroke="none"/><text fill="#000000" stroke="none" font-family="Arial" font-size="13px" font-style="normal" font-weight="normal" text-decoration="none" x="859.5" y="553.5"></text></g></g><g transform="translate(-366,-198) scale(1,1)"><g><path fill="none" stroke="none"/><text fill="#000000" stroke="none" font-family="Arial" font-size="13px" font-style="normal" font-weight="normal" text-decoration="none" x="859.5" y="553.5"></text></g></g><g transform="translate(-366,-198) scale(1,1)"><g><path fill="none" stroke="none"/><text fill="#000000" stroke="none" font-family="Arial" font-size="13px" font-style="normal" font-weight="normal" text-decoration="none" x="859.5" y="553.5"></text></g></g><g transform="translate(-366,-198) scale(1,1)"><g><path fill="none" stroke="none"/><text fill="#000000" stroke="none" font-family="Arial" font-size="13px" font-style="normal" font-weight="normal" text-decoration="none" x="834.931396484375" y="558.5">Centeral</text><text fill="#000000" stroke="none" font-family="Arial" font-size="13px" font-style="normal" font-weight="normal" text-decoration="none" x="821.2109375" y="571.5">Administrator</text></g></g><g transform="translate(-366,-198) scale(1,1)"><g><path fill="none" stroke="none"/><text fill="#000000" stroke="none" font-family="Arial" font-size="13px" font-style="normal" font-weight="normal" text-decoration="none" x="543.5" y="156.5"></text></g></g><g transform="translate(-366,-198) scale(1,1)"><rect fill="#C0C0C0" stroke="none" x="703" y="215" width="112" height="45" opacity="0.2"/></g><g transform="translate(-366,-198) scale(1,1)"><rect fill="#ffffff" stroke="none" x="696" y="208" width="112" height="45"/></g><g transform="translate(-366,-198) scale(1,1)"><path fill="none" stroke="#000000" d="M 696 208 L 808 208 L 808 253 L 696 253 L 696 208 Z Z" stroke-miterlimit="10"/></g><g transform="translate(-366,-198) scale(1,1)"><g><path fill="none" stroke="none"/><text fill="#000000" stroke="none" font-family="Arial" font-size="13px" font-style="normal" font-weight="normal" text-decoration="none" x="752" y="225.5"></text></g></g><g transform="translate(-366,-198) scale(1,1)"><g><path fill="none" stroke="none"/><text fill="#000000" stroke="none" font-family="Arial" font-size="13px" font-style="normal" font-weight="normal" text-decoration="none" x="752" y="225.5"></text></g></g><g transform="translate(-366,-198) scale(1,1)"><g><path fill="none" stroke="none"/><text fill="#000000" stroke="none" font-family="Arial" font-size="13px" font-style="normal" font-weight="normal" text-decoration="none" x="752" y="225.5"></text></g></g><g transform="translate(-366,-198) scale(1,1)"><g><path fill="none" stroke="none"/><text fill="#000000" stroke="none" font-family="Arial" font-size="13px" font-style="normal" font-weight="normal" text-decoration="none" x="752" y="225.5"></text></g></g><g transform="translate(-366,-198) scale(1,1)"><g><path fill="none" stroke="none"/><text fill="#000000" stroke="none" font-family="Arial" font-size="13px" font-style="normal" font-weight="normal" text-decoration="none" x="752" y="225.5"></text></g></g><g transform="translate(-366,-198) scale(1,1)"><g><path fill="none" stroke="none"/><text fill="#000000" stroke="none" font-family="Arial" font-size="13px" font-style="normal" font-weight="normal" text-decoration="none" x="733.2109375" y="230.5">Senior</text><text fill="#000000" stroke="none" font-family="Arial" font-size="13px" font-style="normal" font-weight="normal" text-decoration="none" x="725.263671875" y="243.5">Inspector</text></g></g><g transform="translate(-366,-198) scale(1,1)"><g><path fill="none" stroke="none"/><text fill="#000000" stroke="none" font-family="Arial" font-size="13px" font-style="normal" font-weight="normal" text-decoration="none" x="-80.5" y="132.5"></text></g></g><g transform="translate(-366,-198) scale(1,1)"><path fill="none" stroke="#000000" d="M 742 253 L 742 296 M 742 296 A 8 8 0 0 1 734 304 L 696 304 M 696 304 A 8 8 0 0 0 688 312 L 688 368" stroke-miterlimit="10"/></g><g transform="translate(-366,-198) scale(1,1)"><path fill="#000000" stroke="none" d="M 683.790482243984 357.83732514237585 L 688 368 L 692.209517756016 357.83732514237585"/></g><g transform="translate(-366,-198) scale(1,1)"><path fill="none" stroke="#000000" d="M 683.790482243984 357.83732514237585 L 688 368 L 692.209517756016 357.83732514237585 L 683.790482243984 357.83732514237585" stroke-miterlimit="10"/></g><g transform="translate(-366,-198) scale(1,1)"><g><path fill="none" stroke="none"/><text fill="#000000" stroke="none" font-family="Arial" font-size="13px" font-style="normal" font-weight="normal" text-decoration="none" x="678.5" y="325.5">Submit Task</text></g></g><g transform="translate(-366,-198) scale(1,1)"><path fill="none" stroke="#000000" d="M 736 392 L 784 392 M 784 392 A 8 8 0 0 0 792 384 L 792 253" stroke-miterlimit="10"/></g><g transform="translate(-366,-198) scale(1,1)"><path fill="#000000" stroke="none" d="M 796.209517756016 263.16267485762415 L 792 253 L 787.790482243984 263.16267485762415"/></g><g transform="translate(-366,-198) scale(1,1)"><path fill="none" stroke="#000000" d="M 796.209517756016 263.16267485762415 L 792 253 L 787.790482243984 263.16267485762415 L 796.209517756016 263.16267485762415" stroke-miterlimit="10"/></g><g transform="translate(-366,-198) scale(1,1)"><g><path fill="none" stroke="none"/><text fill="#000000" stroke="none" font-family="Arial" font-size="13px" font-style="normal" font-weight="normal" text-decoration="none" x="759.5" y="340.5">Having performance</text></g></g><g transform="translate(-366,-198) scale(1,1)"><rect fill="#ffffff" stroke="none" x="680" y="424" width="152.208984375" height="22"/></g><g transform="translate(-366,-198) scale(1,1)"><path fill="none" stroke="#000000" d="M 680 424 L 832.208984375 424 L 832.208984375 446 L 680 446 L 680 424 Z Z" stroke-miterlimit="10"/></g><g transform="translate(-366,-198) scale(1,1)"><path fill="none" stroke="#000000" d="M 712.39453125 424 L 712.39453125 446" stroke-miterlimit="10"/></g><g transform="translate(-366,-198) scale(1,1)"><g><path fill="none" stroke="none"/><text fill="#000000" stroke="none" font-family="Arial" font-size="13px" font-style="normal" font-weight="normal" text-decoration="none" x="716.89453125" y="441.5">DFDCompanyData</text></g></g><g transform="translate(-366,-198) scale(1,1)"><g><path fill="none" stroke="none"/><text fill="#000000" stroke="none" font-family="Arial" font-size="13px" font-style="normal" font-weight="bold" text-decoration="none" x="686.444091796875" y="441.5">link</text></g></g></g></svg>