<svg version="1.1" xmlns="http://www.w3.org/2000/svg" xmlns:xlink="http://www.w3.org/1999/xlink" width="713.578125" height="392"><defs/><g><g transform="translate(-275,-182) scale(1,1)"><rect fill="#C0C0C0" stroke="none" x="487" y="199" width="303" height="344" opacity="0.2"/></g><g transform="translate(-275,-182) scale(1,1)"><rect fill="#ffffff" stroke="none" x="480" y="192" width="303" height="344"/></g><g transform="translate(-275,-182) scale(1,1)"><path fill="none" stroke="#000000" d="M 480 192 L 783 192 L 783 536 L 480 536 L 480 192 Z Z" stroke-miterlimit="10"/></g><g transform="translate(-275,-182) scale(1,1)"><g><path fill="none" stroke="none"/><text fill="#000000" stroke="none" font-family="Arial" font-size="13px" font-style="normal" font-weight="bold" text-decoration="none" x="610.298828125" y="211.5">Violtion</text></g></g><g transform="translate(-275,-182) scale(1,1)"><path fill="#ffffff" stroke="none" d="M 353.85661594460225 210.68 C 353.85661594460225 205.886167936 357.74245826954774 202 362.535888671875 202 C 367.32931907420226 202 371.21516139914775 205.886167936 371.21516139914775 210.68 C 371.21516139914775 215.47383206400002 367.32931907420226 219.36 362.535888671875 219.36 C 357.74245826954774 219.36 353.85661594460225 215.47383206400002 353.85661594460225 210.68 Z"/></g><g transform="translate(-275,-182) scale(1,1)"><path fill="none" stroke="#000000" d="M 353.85661594460225 210.68 C 353.85661594460225 205.886167936 357.74245826954774 202 362.535888671875 202 C 367.32931907420226 202 371.21516139914775 205.886167936 371.21516139914775 210.68 C 371.21516139914775 215.47383206400002 367.32931907420226 219.36 362.535888671875 219.36 C 357.74245826954774 219.36 353.85661594460225 215.47383206400002 353.85661594460225 210.68 Z" stroke-miterlimit="10"/></g><g transform="translate(-275,-182) scale(1,1)"><path fill="none" stroke="#000000" d="M 362.535888671875 219.36 L 362.535888671875 236.64" stroke-miterlimit="10"/></g><g transform="translate(-275,-182) scale(1,1)"><path fill="none" stroke="#000000" d="M 353.34607049005683 225.84 L 371.72570685369317 225.84" stroke-miterlimit="10"/></g><g transform="translate(-275,-182) scale(1,1)"><path fill="none" stroke="#000000" d="M 362.535888671875 236.64 L 349.77225230823865 254" stroke-miterlimit="10"/></g><g transform="translate(-275,-182) scale(1,1)"><path fill="none" stroke="#000000" d="M 362.535888671875 236.64 L 375.29952503551135 254" stroke-miterlimit="10"/></g><g transform="translate(-275,-182) scale(1,1)"><g><path fill="none" stroke="none"/><text fill="#000000" stroke="none" font-family="Arial" font-size="13px" font-style="normal" font-weight="bold" text-decoration="none" x="317.7373046875" y="274.5">Centeral Admin</text></g></g><g transform="translate(-275,-182) scale(1,1)"><path fill="#ffffff" stroke="none" d="M 354.14250461647725 346.68 C 354.14250461647725 341.886167936 358.02834694142274 338 362.82177734375 338 C 367.61520774607726 338 371.50105007102275 341.886167936 371.50105007102275 346.68 C 371.50105007102275 351.473832064 367.61520774607726 355.36 362.82177734375 355.36 C 358.02834694142274 355.36 354.14250461647725 351.473832064 354.14250461647725 346.68 Z"/></g><g transform="translate(-275,-182) scale(1,1)"><path fill="none" stroke="#000000" d="M 354.14250461647725 346.68 C 354.14250461647725 341.886167936 358.02834694142274 338 362.82177734375 338 C 367.61520774607726 338 371.50105007102275 341.886167936 371.50105007102275 346.68 C 371.50105007102275 351.473832064 367.61520774607726 355.36 362.82177734375 355.36 C 358.02834694142274 355.36 354.14250461647725 351.473832064 354.14250461647725 346.68 Z" stroke-miterlimit="10"/></g><g transform="translate(-275,-182) scale(1,1)"><path fill="none" stroke="#000000" d="M 362.82177734375 355.36 L 362.82177734375 372.64" stroke-miterlimit="10"/></g><g transform="translate(-275,-182) scale(1,1)"><path fill="none" stroke="#000000" d="M 353.63195916193183 361.84 L 372.01159552556817 361.84" stroke-miterlimit="10"/></g><g transform="translate(-275,-182) scale(1,1)"><path fill="none" stroke="#000000" d="M 362.82177734375 372.64 L 350.05814098011365 390" stroke-miterlimit="10"/></g><g transform="translate(-275,-182) scale(1,1)"><path fill="none" stroke="#000000" d="M 362.82177734375 372.64 L 375.58541370738635 390" stroke-miterlimit="10"/></g><g transform="translate(-275,-182) scale(1,1)"><g><path fill="none" stroke="none"/><text fill="#000000" stroke="none" font-family="Arial" font-size="13px" font-style="normal" font-weight="bold" text-decoration="none" x="296.352294921875" y="410.5">Business Administrator</text></g></g><g transform="translate(-275,-182) scale(1,1)"><path fill="#ffffff" stroke="none" d="M 350.43571750710225 494.68 C 350.43571750710225 489.886167936 354.32155983204774 486 359.114990234375 486 C 363.90842063670226 486 367.79426296164775 489.886167936 367.79426296164775 494.68 C 367.79426296164775 499.473832064 363.90842063670226 503.36 359.114990234375 503.36 C 354.32155983204774 503.36 350.43571750710225 499.473832064 350.43571750710225 494.68 Z"/></g><g transform="translate(-275,-182) scale(1,1)"><path fill="none" stroke="#000000" d="M 350.43571750710225 494.68 C 350.43571750710225 489.886167936 354.32155983204774 486 359.114990234375 486 C 363.90842063670226 486 367.79426296164775 489.886167936 367.79426296164775 494.68 C 367.79426296164775 499.473832064 363.90842063670226 503.36 359.114990234375 503.36 C 354.32155983204774 503.36 350.43571750710225 499.473832064 350.43571750710225 494.68 Z" stroke-miterlimit="10"/></g><g transform="translate(-275,-182) scale(1,1)"><path fill="none" stroke="#000000" d="M 359.114990234375 503.36 L 359.114990234375 520.64" stroke-miterlimit="10"/></g><g transform="translate(-275,-182) scale(1,1)"><path fill="none" stroke="#000000" d="M 349.92517205255683 509.84 L 368.30480841619317 509.84" stroke-miterlimit="10"/></g><g transform="translate(-275,-182) scale(1,1)"><path fill="none" stroke="#000000" d="M 359.114990234375 520.64 L 346.35135387073865 538" stroke-miterlimit="10"/></g><g transform="translate(-275,-182) scale(1,1)"><path fill="none" stroke="#000000" d="M 359.114990234375 520.64 L 371.87862659801135 538" stroke-miterlimit="10"/></g><g transform="translate(-275,-182) scale(1,1)"><g><path fill="none" stroke="none"/><text fill="#000000" stroke="none" font-family="Arial" font-size="13px" font-style="normal" font-weight="bold" text-decoration="none" x="320.825927734375" y="558.5">Administrator</text></g></g><g transform="translate(-275,-182) scale(1,1)"><path fill="#ffffff" stroke="none" d="M 911.0770749289773 490.68 C 911.0770749289773 485.886167936 914.9629172539227 482 919.75634765625 482 C 924.5497780585773 482 928.4356203835227 485.886167936 928.4356203835227 490.68 C 928.4356203835227 495.473832064 924.5497780585773 499.36 919.75634765625 499.36 C 914.9629172539227 499.36 911.0770749289773 495.473832064 911.0770749289773 490.68 Z"/></g><g transform="translate(-275,-182) scale(1,1)"><path fill="none" stroke="#000000" d="M 911.0770749289773 490.68 C 911.0770749289773 485.886167936 914.9629172539227 482 919.75634765625 482 C 924.5497780585773 482 928.4356203835227 485.886167936 928.4356203835227 490.68 C 928.4356203835227 495.473832064 924.5497780585773 499.36 919.75634765625 499.36 C 914.9629172539227 499.36 911.0770749289773 495.473832064 911.0770749289773 490.68 Z" stroke-miterlimit="10"/></g><g transform="translate(-275,-182) scale(1,1)"><path fill="none" stroke="#000000" d="M 919.75634765625 499.36 L 919.75634765625 516.64" stroke-miterlimit="10"/></g><g transform="translate(-275,-182) scale(1,1)"><path fill="none" stroke="#000000" d="M 910.5665294744318 505.84 L 928.9461658380682 505.84" stroke-miterlimit="10"/></g><g transform="translate(-275,-182) scale(1,1)"><path fill="none" stroke="#000000" d="M 919.75634765625 516.64 L 906.9927112926136 534" stroke-miterlimit="10"/></g><g transform="translate(-275,-182) scale(1,1)"><path fill="none" stroke="#000000" d="M 919.75634765625 516.64 L 932.5199840198864 534" stroke-miterlimit="10"/></g><g transform="translate(-275,-182) scale(1,1)"><g><path fill="none" stroke="none"/><text fill="#000000" stroke="none" font-family="Arial" font-size="13px" font-style="normal" font-weight="bold" text-decoration="none" x="893.02001953125" y="554.5">Inspector</text></g></g><g transform="translate(-275,-182) scale(1,1)"><path fill="#ffffff" stroke="none" d="M 914.1097897727273 249.68 C 914.1097897727273 244.886167936 917.9956320976727 241 922.7890625 241 C 927.5824929023273 241 931.4683352272727 244.886167936 931.4683352272727 249.68 C 931.4683352272727 254.47383206400002 927.5824929023273 258.36 922.7890625 258.36 C 917.9956320976727 258.36 914.1097897727273 254.47383206400002 914.1097897727273 249.68 Z"/></g><g transform="translate(-275,-182) scale(1,1)"><path fill="none" stroke="#000000" d="M 914.1097897727273 249.68 C 914.1097897727273 244.886167936 917.9956320976727 241 922.7890625 241 C 927.5824929023273 241 931.4683352272727 244.886167936 931.4683352272727 249.68 C 931.4683352272727 254.47383206400002 927.5824929023273 258.36 922.7890625 258.36 C 917.9956320976727 258.36 914.1097897727273 254.47383206400002 914.1097897727273 249.68 Z" stroke-miterlimit="10"/></g><g transform="translate(-275,-182) scale(1,1)"><path fill="none" stroke="#000000" d="M 922.7890625 258.36 L 922.7890625 275.64" stroke-miterlimit="10"/></g><g transform="translate(-275,-182) scale(1,1)"><path fill="none" stroke="#000000" d="M 913.5992443181818 264.84 L 931.9788806818182 264.84" stroke-miterlimit="10"/></g><g transform="translate(-275,-182) scale(1,1)"><path fill="none" stroke="#000000" d="M 922.7890625 275.64 L 910.0254261363636 293" stroke-miterlimit="10"/></g><g transform="translate(-275,-182) scale(1,1)"><path fill="none" stroke="#000000" d="M 922.7890625 275.64 L 935.5526988636364 293" stroke-miterlimit="10"/></g><g transform="translate(-275,-182) scale(1,1)"><g><path fill="none" stroke="none"/><text fill="#000000" stroke="none" font-family="Arial" font-size="13px" font-style="normal" font-weight="bold" text-decoration="none" x="875.457763671875" y="313.5">Senior Inspector</text></g></g><g transform="translate(-275,-182) scale(1,1)"><path fill="#C0C0C0" stroke="none" d="M 567 264 C 567 254.6111584 596.3253456 247 632.5 247 C 668.6746544 247 698 254.6111584 698 264 C 698 273.3888416 668.6746544 281 632.5 281 C 596.3253456 281 567 273.3888416 567 264 Z" opacity="0.2"/></g><g transform="translate(-275,-182) scale(1,1)"><path fill="#ffffff" stroke="none" d="M 560 257 C 560 247.6111584 589.3253456 240 625.5 240 C 661.6746544 240 691 247.6111584 691 257 C 691 266.3888416 661.6746544 274 625.5 274 C 589.3253456 274 560 266.3888416 560 257 Z"/></g><g transform="translate(-275,-182) scale(1,1)"><path fill="none" stroke="#000000" d="M 560 257 C 560 247.6111584 589.3253456 240 625.5 240 C 661.6746544 240 691 247.6111584 691 257 C 691 266.3888416 661.6746544 274 625.5 274 C 589.3253456 274 560 266.3888416 560 257 Z" stroke-miterlimit="10"/></g><g transform="translate(-275,-182) scale(1,1)"><g><path fill="none" stroke="none"/><text fill="#000000" stroke="none" font-family="Arial" font-size="13px" font-style="normal" font-weight="bold" text-decoration="none" x="587.3125" y="264">Add Violation</text></g></g><g transform="translate(-275,-182) scale(1,1)"><path fill="#C0C0C0" stroke="none" d="M 559 320 C 559 310.6111584 594.1456432 303 637.5 303 C 680.8543568 303 716 310.6111584 716 320 C 716 329.3888416 680.8543568 337 637.5 337 C 594.1456432 337 559 329.3888416 559 320 Z" opacity="0.2"/></g><g transform="translate(-275,-182) scale(1,1)"><path fill="#ffffff" stroke="none" d="M 552 313 C 552 303.6111584 587.1456432 296 630.5 296 C 673.8543568 296 709 303.6111584 709 313 C 709 322.3888416 673.8543568 330 630.5 330 C 587.1456432 330 552 322.3888416 552 313 Z"/></g><g transform="translate(-275,-182) scale(1,1)"><path fill="none" stroke="#000000" d="M 552 313 C 552 303.6111584 587.1456432 296 630.5 296 C 673.8543568 296 709 303.6111584 709 313 C 709 322.3888416 673.8543568 330 630.5 330 C 587.1456432 330 552 322.3888416 552 313 Z" stroke-miterlimit="10"/></g><g transform="translate(-275,-182) scale(1,1)"><g><path fill="none" stroke="none"/><text fill="#000000" stroke="none" font-family="Arial" font-size="13px" font-style="normal" font-weight="bold" text-decoration="none" x="582.91796875" y="320">Update Violation</text></g></g><g transform="translate(-275,-182) scale(1,1)"><path fill="#C0C0C0" stroke="none" d="M 559 384 C 559 374.6111584 592.57864 367 634 367 C 675.42136 367 709 374.6111584 709 384 C 709 393.3888416 675.42136 401 634 401 C 592.57864 401 559 393.3888416 559 384 Z" opacity="0.2"/></g><g transform="translate(-275,-182) scale(1,1)"><path fill="#ffffff" stroke="none" d="M 552 377 C 552 367.6111584 585.57864 360 627 360 C 668.42136 360 702 367.6111584 702 377 C 702 386.3888416 668.42136 394 627 394 C 585.57864 394 552 386.3888416 552 377 Z"/></g><g transform="translate(-275,-182) scale(1,1)"><path fill="none" stroke="#000000" d="M 552 377 C 552 367.6111584 585.57864 360 627 360 C 668.42136 360 702 367.6111584 702 377 C 702 386.3888416 668.42136 394 627 394 C 585.57864 394 552 386.3888416 552 377 Z" stroke-miterlimit="10"/></g><g transform="translate(-275,-182) scale(1,1)"><g><path fill="none" stroke="none"/><text fill="#000000" stroke="none" font-family="Arial" font-size="13px" font-style="normal" font-weight="bold" text-decoration="none" x="581.5888671875" y="384">Delete Violation</text></g></g><g transform="translate(-275,-182) scale(1,1)"><path fill="#C0C0C0" stroke="none" d="M 567 472 C 567 462.6111584 597.6684912 455 635.5 455 C 673.3315088 455 704 462.6111584 704 472 C 704 481.3888416 673.3315088 489 635.5 489 C 597.6684912 489 567 481.3888416 567 472 Z" opacity="0.2"/></g><g transform="translate(-275,-182) scale(1,1)"><path fill="#ffffff" stroke="none" d="M 560 465 C 560 455.6111584 590.6684912 448 628.5 448 C 666.3315088 448 697 455.6111584 697 465 C 697 474.3888416 666.3315088 482 628.5 482 C 590.6684912 482 560 474.3888416 560 465 Z"/></g><g transform="translate(-275,-182) scale(1,1)"><path fill="none" stroke="#000000" d="M 560 465 C 560 455.6111584 590.6684912 448 628.5 448 C 666.3315088 448 697 455.6111584 697 465 C 697 474.3888416 666.3315088 482 628.5 482 C 590.6684912 482 560 474.3888416 560 465 Z" stroke-miterlimit="10"/></g><g transform="translate(-275,-182) scale(1,1)"><g><path fill="none" stroke="none"/><text fill="#000000" stroke="none" font-family="Arial" font-size="13px" font-style="normal" font-weight="bold" text-decoration="none" x="587.90673828125" y="472">View Violation</text></g></g><g transform="translate(-275,-182) scale(1,1)"><path fill="none" stroke="#000000" d="M 416 243 L 559 253" stroke-miterlimit="10"/></g><g transform="translate(-275,-182) scale(1,1)"><path fill="none" stroke="#000000" d="M 548.5684284766053 256.49031739993654 L 559 253 L 549.1557379353866 248.0917921393636" stroke-miterlimit="10"/></g><g transform="translate(-275,-182) scale(1,1)"><path fill="none" stroke="#000000" d="M 416 255 L 564 295" stroke-miterlimit="10"/></g><g transform="translate(-275,-182) scale(1,1)"><path fill="none" stroke="#000000" d="M 553.0910245431576 296.4121807540146 L 564 295 L 555.2876268912443 288.284752066094" stroke-miterlimit="10"/></g><g transform="translate(-275,-182) scale(1,1)"><path fill="none" stroke="#000000" d="M 416 268 L 592 359" stroke-miterlimit="10"/></g><g transform="translate(-275,-182) scale(1,1)"><path fill="none" stroke="#000000" d="M 581.0392403240195 358.07169653377787 L 592 359 L 584.9059821821228 350.5931628301935" stroke-miterlimit="10"/></g><g transform="translate(-275,-182) scale(1,1)"><path fill="none" stroke="#000000" d="M 410 281 L 607 447" stroke-miterlimit="10"/></g><g transform="translate(-275,-182) scale(1,1)"><path fill="none" stroke="#000000" d="M 596.5159954623364 443.6704881958087 L 607 447 L 601.9410096722119 437.2323689226432" stroke-miterlimit="10"/></g><g transform="translate(-275,-182) scale(1,1)"><path fill="none" stroke="#000000" d="M 442 403 L 574 447" stroke-miterlimit="10"/></g><g transform="translate(-275,-182) scale(1,1)"><path fill="none" stroke="#000000" d="M 563.0276737030609 447.77977922099745 L 574 447 L 565.6900064950472 439.7927808450386" stroke-miterlimit="10"/></g><g transform="translate(-275,-182) scale(1,1)"><path fill="none" stroke="#000000" d="M 407 513 L 559 480" stroke-miterlimit="10"/></g><g transform="translate(-275,-182) scale(1,1)"><path fill="none" stroke="#000000" d="M 549.9617877581832 486.26982611177317 L 559 480 L 548.1755822735128 478.04245539450335" stroke-miterlimit="10"/></g><g transform="translate(-275,-182) scale(1,1)"><path fill="none" stroke="#000000" d="M 866 314 L 656 447" stroke-miterlimit="10"/></g><g transform="translate(-275,-182) scale(1,1)"><path fill="none" stroke="#000000" d="M 662.3333103422374 438.00615876786185 L 656 447 L 666.837932814515 445.1187205661949" stroke-miterlimit="10"/></g><g transform="translate(-275,-182) scale(1,1)"><path fill="none" stroke="#000000" d="M 885 514 L 698 478" stroke-miterlimit="10"/></g><g transform="translate(-275,-182) scale(1,1)"><path fill="none" stroke="#000000" d="M 708.7752076998562 475.7875581307161 L 698 478 L 707.1836550820135 484.05478978451015" stroke-miterlimit="10"/></g></g></svg>